<svg xmlns="http://www.w3.org/2000/svg" viewBox="0 0 305.35 305.35"><defs><style>.cls-1{fill:#191c1c;}.cls-2,.cls-3{fill:#c49766;}.cls-3{font-size:4.07px;font-family:MyriadPro-Regular, Myriad Pro;}</style></defs><g id="Calque_2" data-name="Calque 2"><g id="OBJECTS"><circle class="cls-1" cx="152.68" cy="152.68" r="152.68"/><path class="cls-2" d="M175.6,37.57c-1.95-1.35-3.92-2.7-5.93-4,1.31-1.75,2.59-3.51,3.83-5.31a.62.62,0,0,0-.22-.84.63.63,0,0,0-.84.22q-1.84,2.67-3.8,5.27c-2.19-1.39-4.42-2.71-6.72-3.89,1-1.94,2-3.83,3.08-5.68a.61.61,0,0,0-1.06-.62c-1.11,1.86-2.15,3.77-3.1,5.72a.06.06,0,0,1,0,0,48.38,48.38,0,0,0-7.46-2.94l2.07-5.22a.63.63,0,0,0-.43-.76.64.64,0,0,0-.76.43l-2.06,5.22c-.76-.2-1.52-.38-2.29-.53-1-.19-1.9-.33-2.85-.44.38-2.09.75-4.17,1.13-6.25a.64.64,0,0,0-.43-.76.61.61,0,0,0-.75.43l-1.17,6.45a40.6,40.6,0,0,0-7.06,0,43,43,0,0,0-.85-6.08c-.17-.77-1.35-.44-1.18.33a40.17,40.17,0,0,1,.81,5.88,42.49,42.49,0,0,0-7,1.44c-.65-1.9-1.28-3.81-1.87-5.73-.23-.75-1.42-.43-1.18.33.59,1.93,1.22,3.86,1.88,5.77a44.11,44.11,0,0,0-6.32,2.63c-1.16-1.84-2.29-3.69-3.38-5.58a.61.61,0,0,0-1,.62c1.07,1.87,2.19,3.71,3.34,5.53a43.54,43.54,0,0,0-6.35,4.23l0,0-4.5-5.56a.62.62,0,0,0-.87,0,.63.63,0,0,0,0,.87l4.45,5.49a42.25,42.25,0,0,0-5,5,.62.62,0,0,0-.1.74,38.75,38.75,0,0,0,23.48,16.84,36.83,36.83,0,0,0,8.23,1.06,38.05,38.05,0,0,0,15.73-3.3,36.85,36.85,0,0,0,13-9.35c1.93-2.23,3.48-4.77,5.71-6.74A.62.62,0,0,0,175.6,37.57ZM170,43.4a32.88,32.88,0,0,1-5.5,5.37,38.13,38.13,0,0,1-14.2,6.88,35.62,35.62,0,0,1-9,1.05,37.5,37.5,0,0,1-25.6-11,35.44,35.44,0,0,1-4.81-6A42.56,42.56,0,0,1,134,26.08a38.7,38.7,0,0,1,14.35-.44,44.45,44.45,0,0,1,13.1,4.51,118.54,118.54,0,0,1,12.86,8A51.8,51.8,0,0,0,170,43.4Z"/><path class="cls-2" d="M143.84,27.88C138.3,27.12,132,30,129.56,35.16A13.45,13.45,0,0,0,132.41,50c3.94,3.89,10.1,4.32,14.9,1.81a12.11,12.11,0,0,0,5.47-5.62,13.85,13.85,0,0,0,.95-7.76C152.93,33.2,149.26,28.61,143.84,27.88Zm4.57,21.79c-3.85,2.92-9.53,3.46-13.61.71a12.13,12.13,0,0,1-4.18-14.6c2-4.14,6.64-6.67,11.15-6.79a10.14,10.14,0,0,1,6.3,1.82,11.34,11.34,0,0,1,4,5.77C153.53,41.26,152.46,46.62,148.41,49.67Z"/><path class="cls-2" d="M146.22,33.11c-4.16-2.88-10.91-.64-13,3.81a8.79,8.79,0,0,0,15.51,8.21C151,41.39,149.84,35.61,146.22,33.11Z"/><circle class="cls-2" cx="117.56" cy="39.93" r="1.49"/><circle class="cls-2" cx="123.93" cy="39.93" r="1.49"/><circle class="cls-2" cx="159.74" cy="39.93" r="1.49"/><circle class="cls-2" cx="166.11" cy="39.93" r="1.49"/><path class="cls-2" d="M141.06,45.54a.71.71,0,1,0,.71.71A.71.71,0,0,0,141.06,45.54Z"/><path class="cls-2" d="M141.06,35.15a.71.71,0,1,0,.71.7A.7.7,0,0,0,141.06,35.15Z"/><path class="cls-2" d="M135.87,40.34a.71.71,0,1,0,.7.71A.71.71,0,0,0,135.87,40.34Z"/><path class="cls-2" d="M146.26,40.34a.71.71,0,1,0,.71.71A.71.71,0,0,0,146.26,40.34Z"/><path class="cls-2" d="M136.89,44.22a.71.71,0,1,0,1,0A.71.71,0,0,0,136.89,44.22Z"/><path class="cls-2" d="M144.24,36.88a.7.7,0,0,0,0,1,.71.71,0,0,0,1-1A.7.7,0,0,0,144.24,36.88Z"/><path class="cls-2" d="M137.89,37.88a.71.71,0,1,0-1,0A.72.72,0,0,0,137.89,37.88Z"/><path class="cls-2" d="M144.24,44.22a.71.71,0,0,0,1,1,.73.73,0,0,0,0-1A.72.72,0,0,0,144.24,44.22Z"/><path class="cls-2" d="M131.92,89.5l0,.09a3.44,3.44,0,0,0-.2,1.73c.28,1.06,1.49,1.52,2.55,1.79a47.13,47.13,0,0,0,25.82-.88,7.21,7.21,0,0,0,3.84-2.32c1.51-2.14-1.06-5.9-1.44-8.22-.64-4-.08-8.12.37-12.12.15-1.39.13-3.11-1.1-3.77a3.52,3.52,0,0,0-1.61-.29,118.53,118.53,0,0,0-14.71.65c-4.25.46-14.37-1-14.54,5.52a13.09,13.09,0,0,0,.87,4A25.14,25.14,0,0,1,131.92,89.5Z"/><path class="cls-2" d="M146,79.89a72,72,0,0,0-8.68.85,46.42,46.42,0,0,0-8.55,1.94c-1.54.57-3.49,2.35-2.09,4,.69.84,2,1,3,1.22,1.46.34,2.94.63,4.43.86a63.81,63.81,0,0,0,16.68.41,56,56,0,0,0,16.13-3.92c2-.87,3.87-3.48,1.64-5.26a9.14,9.14,0,0,0-4.18-1.35,19.6,19.6,0,0,0-4.9-.16c-1.27.12-1.28,2.12,0,2a17.71,17.71,0,0,1,6.64.59c.56.17,1.21.27,1.35.87s-.47,1-1,1.31a19.15,19.15,0,0,1-3.22,1.2,61.41,61.41,0,0,1-12.72,2.75,64.12,64.12,0,0,1-12.62,0,61.91,61.91,0,0,1-6.64-1c-.51-.11-2.66-.33-2.83-.85-.24-.69,1.83-1.1,2.3-1.23A69,69,0,0,1,146,81.89c1.28,0,1.29-2,0-2Z"/><path class="cls-2" d="M126.08,86.15A24.77,24.77,0,0,1,128,94a26,26,0,0,1,0,3.53c-.09,1.16-.39,2.41.19,3.5,1,1.85,4,2.53,5.84,3.09a37.49,37.49,0,0,0,7.29,1.36,62,62,0,0,0,15.44-.8c4.57-.72,9.65-1.49,13.4-4.43,2.42-1.91,1.44-4.82,1.1-7.47q-.63-4.8-1.24-9.6c-.16-1.26-2.16-1.28-2,0l1,7.44c.15,1.2.31,2.4.46,3.6.13,1,.62,2.54.27,3.52s-1.79,1.67-2.67,2.13a18.94,18.94,0,0,1-3.17,1.28,52.68,52.68,0,0,1-6.34,1.39,67.28,67.28,0,0,1-13.81,1.1,38.75,38.75,0,0,1-6.86-.85c-1.05-.24-2.1-.52-3.13-.86a12.26,12.26,0,0,1-3.28-1.35c-1.06-.75-.47-2.59-.42-3.71a23.47,23.47,0,0,0-.11-3.75,26.29,26.29,0,0,0-1.92-7.5c-.49-1.17-2.43-.66-1.93.53Z"/><path class="cls-2" d="M132.1,102.6c.42,7.52,1.11,15.08,1.21,22.61a25.21,25.21,0,0,1-1.95,10.68c-1.37,3.12-3.22,6-4.86,9a72.56,72.56,0,0,0-7.62,19c-1.57,7-1.22,14.16-.52,21.27,1.46,14.79,4.53,29.37,5.92,44.17.35,3.69.59,7.39.68,11.1.07,3.12,0,6.25.28,9.37.5,5.91,2.32,11.54,7.23,15.22s11.41,5.11,17.37,5.93a75.45,75.45,0,0,0,19.46.08,74,74,0,0,0,18.19-4.46c4.92-1.95,9.79-4.72,12.81-9.2,3.23-4.78,3-10.41,2-15.86-1.14-6.19-3-12.15-3.61-18.45-1.41-13.91.07-27.93-1.11-41.86a70.58,70.58,0,0,0-4-19.18c-2.42-6.39-6.22-11.93-10.3-17.35s-8-10.46-10.43-16.65a58,58,0,0,1-3.54-17.13c-.22-3.13-.32-6.27-.4-9.41a1,1,0,0,0-2,0,118.42,118.42,0,0,0,1.39,17.65,48.71,48.71,0,0,0,5.85,16.09C177.5,141,182,146,185.73,151.47a54.47,54.47,0,0,1,8,18.05c3.09,12.89,2.17,26.32,2.26,39.45a116.38,116.38,0,0,0,1.61,20.93c1.07,5.62,3,11.1,3.33,16.84a15.43,15.43,0,0,1-1.48,8.09,17.5,17.5,0,0,1-5.21,5.88c-4.58,3.35-10.21,5.19-15.66,6.56-12.25,3.07-25.79,3.46-37.9-.41a22.26,22.26,0,0,1-7.94-4.17,15.39,15.39,0,0,1-4.67-7.75c-1.65-6.08-1-12.65-1.31-18.88-.78-14.37-3.6-28.5-5.47-42.74-.94-7.1-1.89-14.37-1.52-21.55a53.73,53.73,0,0,1,5.29-19.71c1.44-3.11,3.07-6.12,4.78-9.09a50,50,0,0,0,4.21-8.56c2.25-6.66,1-14.17.63-21-.21-3.59-.41-7.19-.61-10.78-.08-1.28-2.08-1.29-2,0Z"/><path class="cls-2" d="M129.63,173.42q5,28.29,8.9,56.74,1.14,8.21,2.18,16.42c.16,1.26,2.16,1.28,2,0q-3.66-28.74-8.37-57.34-1.35-8.18-2.79-16.35c-.22-1.26-2.15-.73-1.92.53Z"/><path class="cls-2" d="M130.93,173.89c16.09-.28,32.46-.63,47.92-5.59,1.22-.4.7-2.33-.53-1.93-15.3,4.91-31.47,5.24-47.39,5.52a1,1,0,0,0,0,2Z"/><path class="cls-2" d="M177.9,167.67q1.33,29.22,3.61,58.38.66,8.32,1.38,16.62c.12,1.28,2.12,1.29,2,0q-2.55-29.13-4.15-58.34-.47-8.34-.84-16.66c-.06-1.28-2.06-1.29-2,0Z"/><path class="cls-2" d="M141.35,247.91a25.27,25.27,0,0,0,10.32,1.9,78.36,78.36,0,0,0,11.24-.7,80.75,80.75,0,0,0,21.28-5.92c1.18-.51.17-2.24-1-1.73a77.93,77.93,0,0,1-20.08,5.62,75.41,75.41,0,0,1-10.29.73c-3.54,0-7.18-.14-10.45-1.62-1.16-.53-2.18,1.19-1,1.72Z"/><path class="cls-2" d="M133,189.5a28.48,28.48,0,0,0-11.41,3.68,2.78,2.78,0,0,0-1.58,2.09,2.7,2.7,0,0,0,1,2.24,4.54,4.54,0,0,0,2.79.83c1.08,0,2.16,0,3.23-.08a42.83,42.83,0,0,0,7.4-1.14,1,1,0,0,0-.53-1.93,39.24,39.24,0,0,1-6.74,1.06c-.65.05-5.42.61-5.17-.81,0-.31.57-.51.8-.64.41-.23.81-.45,1.23-.66a25.49,25.49,0,0,1,2.94-1.26,27.19,27.19,0,0,1,6-1.38,1,1,0,0,0,1-1,1,1,0,0,0-1-1Z"/><path class="cls-2" d="M180.19,184.64a46.67,46.67,0,0,1,8.19,0c.75.07,7.5.69,7.19,1.76-.09.3-.86.42-1.1.48a17,17,0,0,1-1.89.33c-1.33.17-2.67.28-4,.4q-4.19.36-8.39.48c-1.28,0-1.29,2,0,2,2.64-.08,5.28-.22,7.92-.44a34.56,34.56,0,0,0,7.38-1,2.78,2.78,0,0,0,2-1.78,2.53,2.53,0,0,0-1.16-2.65,8.87,8.87,0,0,0-3.32-1c-1.27-.24-2.56-.42-3.85-.55a46.46,46.46,0,0,0-9-.05c-1.28.12-1.29,2.12,0,2Z"/><path class="cls-2" d="M148.26,201.28c-.43,1.43-.65,3.37.67,4.06a3.33,3.33,0,0,0,2.29,0c1.9-.44,7.22-3.23,8.1-.05.46,1.62-.47,3.28-1.34,4.73a123.51,123.51,0,0,0-5.89,11.15c-.5,1.07-1,2.36-.39,3.39.73,1.28,2.57,1.28,4,.86s2.9-1.09,4.28-.59c1.53.54,2.26,2.35,2.21,4a23.61,23.61,0,0,1-1.07,4.73,11.67,11.67,0,0,0,.65,7.9c1.48.18,2.44-1.47,3-2.86l5-12.68c.74-1.88,1.25-4.5-.51-5.49a11.67,11.67,0,0,0-2.06-.61,4.39,4.39,0,0,1-2.59-3.91,12.92,12.92,0,0,1,.91-4.85l1.92-5.89a12.69,12.69,0,0,0,.9-4.69,4.36,4.36,0,0,0-2.41-3.87c-1.53-.63-3.24,0-4.86.3-6.08,1.16-4.09-5.7-2.87-9.21.74-2.12,1.79-4.45.84-6.48-1.55.34-2.55,1.82-3.39,3.17A66.75,66.75,0,0,0,148.26,201.28Z"/><path class="cls-2" d="M158.48,110.15a79.6,79.6,0,0,0,2.58,24.54,25.57,25.57,0,0,0,5.11,9.52,62.8,62.8,0,0,0,8,7.42c1,.81,2.41-.6,1.41-1.42a65.22,65.22,0,0,1-7.54-6.94,23.48,23.48,0,0,1-5.13-9.55,79.61,79.61,0,0,1-2.39-23.57c0-1.29-2-1.29-2,0Z"/><path class="cls-2" d="M179.26,156.82a1,1,0,0,0,0-2,1,1,0,0,0,0,2Z"/><path class="cls-2" d="M189.36,195a106,106,0,0,0,5.24,42.68c.41,1.21,2.34.69,1.93-.54A104.44,104.44,0,0,1,191.36,195c.11-1.28-1.89-1.27-2,0Z"/><path class="cls-2" d="M195.71,243.78a43.84,43.84,0,0,1-1.78,5.33,13.12,13.12,0,0,1-1,2.08,2.75,2.75,0,0,1-.59.73,1,1,0,0,1-.52.23,1,1,0,0,0,0,2c2-.13,3-2,3.65-3.64a45.36,45.36,0,0,0,2.13-6.2,1,1,0,0,0-1.92-.53Z"/><path class="cls-2" d="M135.79,100a45.52,45.52,0,0,0,28.33-2.47c1.18-.5.16-2.22-1-1.72a43.26,43.26,0,0,1-26.79,2.26c-1.25-.3-1.79,1.63-.53,1.93Z"/><path class="cls-2" d="M184.49,161c0-.1,0-.2,0-.3a.86.86,0,0,0-.09-.39.75.75,0,0,0-.21-.32.69.69,0,0,0-.32-.21.71.71,0,0,0-.38-.08l-.27,0a1.1,1.1,0,0,0-.44.26l-.16.2a1,1,0,0,0-.13.51c0,.1,0,.2,0,.3a1,1,0,0,0,1,1l.26,0a1,1,0,0,0,.44-.26l.16-.2a1.15,1.15,0,0,0,.14-.51Z"/><path class="cls-2" d="M185.57,167a18.24,18.24,0,0,1,3.21,9.84,1,1,0,0,0,2,0A20.21,20.21,0,0,0,187.3,166c-.73-1.05-2.46-.06-1.73,1Z"/><path class="cls-2" d="M139.92,120.47A29.89,29.89,0,0,1,133.63,145c-.82,1,.59,2.41,1.41,1.41a32,32,0,0,0,6.81-26.43c-.24-1.26-2.17-.72-1.93.54Z"/><path class="cls-2" d="M132.79,152.94h0s0-.24,0-.27h0a1,1,0,0,0,0-.29h0a2.56,2.56,0,0,0-.11-.24,2.66,2.66,0,0,0-.16-.22h0l-.2-.15h0l-.26-.11h0l-.28,0h0a1.35,1.35,0,0,0-.29,0h0l-.26.11h0a1.12,1.12,0,0,0-.21.17,1,1,0,0,0-.28.47h0a2.51,2.51,0,0,0,0,.27h0a1.26,1.26,0,0,0,0,.28,1.15,1.15,0,0,0,.46.6.81.81,0,0,0,.37.12.78.78,0,0,0,.4,0l.24-.1a.93.93,0,0,0,.35-.36l.11-.24a1.19,1.19,0,0,0,0-.53h0l0,.26v0l0,.27a0,0,0,0,0,0,0l-.1.24h0l-.16.2,0,0-.2.16h0l-.24.1h0l-.26,0h.05l-.27,0h.05l-.24-.1h0l-.21-.15h0l-.15-.2v0l-.11-.24v0l0-.27v0l0-.26h0a.78.78,0,0,0,0,.4.81.81,0,0,0,.12.37,1.15,1.15,0,0,0,.6.46l.26,0a1,1,0,0,0,.51-.14l.2-.16a1,1,0,0,0,.26-.44Z"/><text class="cls-3" transform="translate(163.46 261) rotate(10.01)">3</text></g></g></svg>