<svg xmlns="http://www.w3.org/2000/svg" viewBox="0 0 267.26 267.26"><defs><style>.cls-1{fill:#191c1c;}.cls-2,.cls-3{fill:#c49766;}.cls-3{font-size:1.16px;font-family:MyriadPro-Regular, Myriad Pro;}</style></defs><g id="Calque_2" data-name="Calque 2"><g id="PREVIEW"><circle class="cls-1" cx="133.63" cy="133.63" r="133.63"/><path class="cls-2" d="M110.12,162.88a.18.18,0,0,0-.33-.09c-1.31,2.41.66,5.82,2.84,7,.26.15.61-.16.43-.43C111.64,167.24,110,165.63,110.12,162.88Z"/><path class="cls-2" d="M166.49,193.7c.14-.4-.34-.64-.65-.5a22.38,22.38,0,0,1-7.57,2.47c-4.42.49-9.06-.63-13.3-1.83-.18-.05-.23.21-.07.27,4.45,1.85,9.43,3.41,14.33,2.85C161.4,196.71,165.61,196.1,166.49,193.7Z"/><path class="cls-2" d="M95.08,44.63c3.19,3.48,6.44,7,9.9,10.19.12.11.27-.06.18-.18-2.8-3.43-5.82-6.68-8.77-10a92.45,92.45,0,0,0-10-10.16.21.21,0,0,0-.3.3C88.85,38.25,92.1,41.36,95.08,44.63Z"/><path class="cls-2" d="M77.57,44c8,4.14,15.88,8.12,23.39,13.1.07.05.14-.07.07-.12A110.77,110.77,0,0,0,77.75,43.5C77.5,43.39,77.32,43.82,77.57,44Z"/><path class="cls-2" d="M63.52,46.79c9.6,3.65,19.71,5.66,29.32,9.27.08,0,.13-.09.06-.12-9.48-4-19.45-6.56-29.24-9.66C63.33,46.18,63.21,46.67,63.52,46.79Z"/><path class="cls-2" d="M92.62,60.44c-3.64-.49-7.32-.95-11-1.11-.33,0-.41.52-.08.58,3.63.63,7.37.48,11,.64A.06.06,0,0,0,92.62,60.44Z"/><path class="cls-2" d="M80.06,59.64c-8.23-1-16.6-3-24.9-3.29-.37,0-.46.59-.09.65,8.19,1.43,16.71,2.08,25,2.74C80.13,59.75,80.13,59.65,80.06,59.64Z"/><path class="cls-2" d="M86.06,65.78a71.62,71.62,0,0,0,7.56-1.07c.12,0,.07-.18,0-.17-2.52.35-5.07.46-7.58.83C85.77,65.4,85.82,65.8,86.06,65.78Z"/><path class="cls-2" d="M83.16,65.86c-4.51.12-9.08.9-13.57,1.36S60.4,68,56,69.14c-.29.08-.24.58.08.55,4.52-.36,9-1.16,13.52-1.71s9.24-.81,13.58-2.08A0,0,0,0,0,83.16,65.86Z"/><path class="cls-2" d="M101.65,34c1.29,3.84,2.54,8,4.75,11.42.16.26.63.09.51-.21-1.67-4.08-3.43-8.06-4.88-12.23A99.22,99.22,0,0,0,97,20.65a.09.09,0,1,0-.15.08A138.84,138.84,0,0,1,101.65,34Z"/><path class="cls-2" d="M106.84,47.79a53.68,53.68,0,0,0,2.58,5.35c.12.22.5.07.41-.18a24.61,24.61,0,0,0-2.69-5.35A.17.17,0,0,0,106.84,47.79Z"/><path class="cls-2" d="M112.23,49.75a.22.22,0,0,0,.43-.13,132.69,132.69,0,0,1-2-14.45c-.5-4.69-1.41-9.31-2.15-14,0-.08-.15-.06-.14,0,.61,5,1.36,9.88,1.73,14.87C110.47,40.67,110.62,45.4,112.23,49.75Z"/><path class="cls-2" d="M116.79,48.06c.56-9.81,3.77-19.09,4.68-28.83,0-.06-.1-.07-.11,0-1.48,9.54-5.66,19.08-5.06,28.85A.25.25,0,0,0,116.79,48.06Z"/><path class="cls-2" d="M115.79,54c.2-.8.08-1.61.23-2.43a.16.16,0,0,0-.3-.08,4.92,4.92,0,0,0-.33,2.51C115.42,54.18,115.75,54.16,115.79,54Z"/><path class="cls-2" d="M118.89,53.48c2-2.66,2.7-6.1,3.82-9.17a114.16,114.16,0,0,1,5.56-12.49c0-.1-.1-.19-.15-.09-3.77,7-6.32,14.35-9.68,21.48A.26.26,0,0,0,118.89,53.48Z"/><path class="cls-2" d="M128.85,44.16c6.84-5.91,12.32-13.42,18.65-19.86a.12.12,0,0,0-.18-.17c-6.55,6.21-12.87,12.89-18.89,19.61A.3.3,0,0,0,128.85,44.16Z"/><path class="cls-2" d="M123.71,49.77A37.22,37.22,0,0,1,120,53.9a.28.28,0,0,0,.34.44,11.54,11.54,0,0,0,3.6-4.43C124,49.75,123.81,49.63,123.71,49.77Z"/><path class="cls-2" d="M122.88,55.71c-.13.1,0,.3.12.21,4.4-2.92,8.2-6.65,12.29-10,4.79-3.9,9.71-7.68,14.3-11.81.23-.21-.08-.62-.34-.44-4.55,3.19-8.76,6.87-13,10.44C131.74,47.9,127.62,52.25,122.88,55.71Z"/><path class="cls-2" d="M143.21,49.27a0,0,0,1,0,0,0S143.23,49.27,143.21,49.27Z"/><path class="cls-2" d="M130.71,57.18c7.08-2.92,14-6.32,21-9.51.15-.07,0-.32-.1-.26-7,2.94-14.4,5.53-21.09,9.22C130.19,56.79,130.39,57.31,130.71,57.18Z"/><path class="cls-2" d="M122.73,60.5a36.22,36.22,0,0,0,4.67-1.79c.2-.08.12-.41-.1-.33a47,47,0,0,0-4.72,1.77C122.38,60.25,122.53,60.55,122.73,60.5Z"/><path class="cls-2" d="M125.6,61.56c10.15-2.47,20.07-5.8,30.21-8.34.28-.07.16-.5-.12-.44-10.26,2-20.2,5.38-30.14,8.58A.1.1,0,0,0,125.6,61.56Z"/><path class="cls-2" d="M133.81,63.63c.28-.06.2-.47-.07-.48-2.31,0-4.69.22-7,.32a.09.09,0,0,0,0,.18C128.81,64.38,131.68,64.09,133.81,63.63Z"/><path class="cls-2" d="M136.09,63.27a.28.28,0,0,0,0,.56c5,.26,10,.56,15,.57,4.7,0,9.69.54,14.31-.34.1,0,.08-.18,0-.17-4.66.55-9.59-.06-14.29-.06C146.08,63.83,141.09,63.33,136.09,63.27Z"/><path class="cls-2" d="M126.24,66.92c10.12.83,19.94,3.66,30,4.78.3,0,.36-.48.07-.52-10-1.38-19.91-4.36-30.09-4.61C126,66.56,126,66.9,126.24,66.92Z"/><path class="cls-2" d="M128.59,71.94c6.49,2.55,12.94,5.24,19.59,7.38.28.09.39-.34.12-.44-6.51-2.5-13.1-4.77-19.69-7C128.55,71.82,128.52,71.92,128.59,71.94Z"/><path class="cls-2" d="M156.07,88.34c-8.74-3.48-17.55-6.78-26-10.86-.14-.07-.27.13-.13.21a158,158,0,0,0,26,11.36C156.33,89.2,156.5,88.52,156.07,88.34Z"/><path class="cls-2" d="M157.45,82.44a44.8,44.8,0,0,0-6.11-1.85c-.28-.06-.41.37-.12.43,2.09.5,4,1.51,6.06,2.06A.33.33,0,0,0,157.45,82.44Z"/><path class="cls-2" d="M133.56,86.93c4.75,4.36,9.42,8.85,14.79,12.46.29.2.65-.26.38-.49-4.94-4.12-10-8.1-15-12.14C133.61,86.66,133.44,86.83,133.56,86.93Z"/><path class="cls-2" d="M119.05,99a0,0,0,0,0,0,0S119,99,119.05,99Z"/><path class="cls-2" d="M119.27,97.2c.83,5.29.63,10.92,2.55,16a.22.22,0,0,0,.43-.12c-1.33-5.26-1.79-10.6-2.81-15.91C119.41,97,119.25,97.09,119.27,97.2Z"/><path class="cls-2" d="M114.42,104.2a17.81,17.81,0,0,0,.18,5.55c.06.29.47.16.43-.12a37.94,37.94,0,0,1-.4-5.43C114.63,104.07,114.43,104.07,114.42,104.2Z"/><path class="cls-2" d="M108.33,65.76c3.3,0,6.36,1.51,9.1,4.48,3.46,3.74,3.68,8.71.59,13.3a16.59,16.59,0,0,1-3,3.3,10.29,10.29,0,0,0,3.73-2.92c.21-.26.41-.54.6-.81a12.91,12.91,0,0,0,1.46-11.33,9.56,9.56,0,0,0-6.65-6,14.27,14.27,0,0,0-3.72-.53,10.93,10.93,0,0,0-3.74.64,11.73,11.73,0,0,1,1.33-.11Z"/><path class="cls-2" d="M186.83,222.81v0h0q-1.29-5.85-2.63-11.68c-.9-3.89-1.76-7.79-2.68-11.68l-5.4-23.25-.69-2.9-.17-.72-.09-.36,0-.1h0v-.18l.12-1.33a44.6,44.6,0,0,0,.19-6.13,32.14,32.14,0,0,0-.83-6.14c-.13-.5-.28-1-.42-1.51s-.34-1-.52-1.48c-.4-1-.75-1.85-1.18-2.8a30.5,30.5,0,0,0-1.44-2.78,21,21,0,0,0-1.79-2.57,18.85,18.85,0,0,1-1.7-2.3c-.49-.79-.86-1.67-1.3-2.56a42.6,42.6,0,0,0-2.84-5.37,15,15,0,0,0-1.92-2.46,6.14,6.14,0,0,0-2.56-1.67c-.07-.33-.16-.65-.26-1s-.26-.71-.41-1-.33-.68-.52-1a10.34,10.34,0,0,0-.62-1,8.94,8.94,0,0,0-.71-.89,8.73,8.73,0,0,0-.81-.8,6.73,6.73,0,0,0-.91-.68,6.61,6.61,0,0,0-.94-.52l-1.88-4.41c-.63-1.49-1.3-3-1.89-4.47-.29-.76-.59-1.5-.89-2.25-.14-.34-.26-.76-.39-1.13s-.21-.76-.32-1.14c-.19-.76-.35-1.55-.51-2.35-.07-.39-.17-.81-.26-1.22a6.53,6.53,0,0,0-.22-.67c-.06-.13-.13-.25-.2-.38l-.07-.11,0,0-.09-.12c-.25-.31-.57-.64-.83-.94s-.54-.58-.79-.89c-.52-.61-1-1.24-1.49-1.87a47.31,47.31,0,0,1-2.62-4c-.78-1.4-1.52-2.88-2.35-4.29a40,40,0,0,0-2.76-4.08c-.44-.56-.89-1.11-1.37-1.64-1.17-1.95-3-4.67-4.26-5.12-1.55-.55-2.34,2.3-2.55,4.83a23.62,23.62,0,0,0-1.09,4.1,29.5,29.5,0,0,0-.44,5c0,.84,0,1.67.13,2.51a21.09,21.09,0,0,0,.43,2.48,13.24,13.24,0,0,0,.77,2.41l.94,2.25,1.1,2.24c.42.71.81,1.43,1.26,2.12s.9,1.38,1.41,2a18.17,18.17,0,0,0,1.58,1.83c.11.5.24,1,.36,1.48s.25,1,.4,1.52c.27,1,.54,2,.84,3s.59,2,.9,3a17.81,17.81,0,0,0,.94,2.42l-1.92-.62-2.48-.73c-1.66-.47-3.34-.9-5-1.31l-2.52-.6-2.6-.56-.32-.07-.16,0h-.25l-.4,0-.38.08c-.44.1-.86.22-1.28.33-.84.23-1.67.48-2.5.73-2.68.82-5.33,1.69-8,2.57-.34-.37-.7-.72-1.07-1s-.53-.45-.8-.68l-.41-.32-.21-.15-.1-.08h0a2.6,2.6,0,0,1-.23-.32l-.28-.43-.55-.87-1.1-1.77c-.74-1.18-1.49-2.36-2.27-3.52-.39-.58-.79-1.15-1.2-1.72l-.63-.85c-.16-.21-.33-.42-.5-.62.17-.11.34-.22.48-.33l.68-.49c.45-.33.9-.66,1.33-1s.89-.68,1.31-1l1.29-1.06c.86-.71,1.67-1.47,2.51-2.2s1.62-1.55,2.43-2.32l1.17-1.21c.37-.42.77-.81,1.14-1.25l1.09-1.31.27-.33.13-.17,0,0,0,0,0,0,.06-.08.46-.69a10,10,0,0,0,.84-1.63,6.45,6.45,0,0,0,.44-1.83,4,4,0,0,0-.38-1.95,2.77,2.77,0,0,0-.59-.76c.58-.55.91-1,.86-1.29a.66.66,0,0,0-.06-.2l-2,.67a1.61,1.61,0,0,0-.46-.26l1.48-.92c-1.24-.08-3.76.73-8.21,3.08l-2,.92c-1.53.71-3.07,1.42-4.58,2.16s-3,1.45-4.55,2.23l-2.09,1.07-.08-.33c-.07-.32-.13-.64-.21-1l-.34-1.3a36.86,36.86,0,0,0,.65-4.24,32,32,0,0,0,.1-4.49,20.47,20.47,0,0,0-.71-4.5c-.12-.37-.22-.75-.36-1.11l-.46-1.08a.2.2,0,0,1,0-.08,14.79,14.79,0,0,0,5.09,3.78c7.56,3.6,22.71,5.17,28.5,3.72l.07,0a3,3,0,0,0,.93-.65c2-2.26.57-10.86.07-13.44-1.3-6.72-3.52-13.22-5.8-17-3.27-5.36-8-7.47-13.22-5.93h0c-3.34,1.34-6.87,4.06-10.5,8.08-5.8,6.44-8.26,12.14-7.3,17a9.58,9.58,0,0,0,.56,1.82,20.53,20.53,0,0,0-2.37-2.73,16.88,16.88,0,0,0-2.76-2.18,5.66,5.66,0,0,0-3.09-2.73,42.8,42.8,0,0,0,5.73-2.81.07.07,0,1,0-.07-.12,51,51,0,0,1-6.5,2.78,1.24,1.24,0,0,0-1,.35A70.78,70.78,0,0,0,72,78.33c-.21.1,0,.39.18.3,2.64-1.15,5.36-2.1,8-3.13-.16,1.84,0,9.6,0,10.91l-.53,6c-.25,2.88-.48,5.77-.69,8.65l-.16,2.18,0,.27v.35a5.29,5.29,0,0,0,.11.61c.09.41.18.74.27,1.1.38,1.41.8,2.8,1.22,4.19s.89,2.76,1.34,4.14c.37,1.12.76,2.24,1.15,3.35,0,.09-.11.17-.17.26s0,0,0,0c-1,1.61-2.06,3.23-3.06,4.87-.51.82-1,1.64-1.5,2.5l-.18.34a2.42,2.42,0,0,0-.25.61,2.61,2.61,0,0,0,.19,1.11c.18.5.37,1,.57,1.41.4.9.83,1.77,1.28,2.63s.9,1.71,1.37,2.56q1.41,2.53,2.87,5h0l1.66,3,.83,1.5c.27.5.56,1,.83,1.49l1.57,3c.52,1,1.06,2,1.56,3L92,153.74c.26.51.49,1,.73,1.53l.36.77.18.39,0,.09h0l0,.05h0v0l0,0c0,.06.06.11.12.19a4.52,4.52,0,0,0,.66.7c.22.21.44.39.67.58.45.36.91.7,1.38,1,.73.52,1.47,1,2.22,1.51a3.66,3.66,0,0,0,.17.94l.05.11.08.14c.06.1.14.23.2.31a3.82,3.82,0,0,0,.37.42,13.31,13.31,0,0,0,1.51,1.34c2,1.6,4.2,3,6.34,4.39l3.2,2.08c1.05.67,2,1.47,3.11,2.18s2.15,1.4,3.22,2.1l3.2,2.08c1.07.7,2.12,1.41,3.16,2.13l1.55,1.08,1.48,1.14c.71.58,1.39,1.16,2.08,1.76l2.07,1.78c1.38,1.19,2.75,2.39,4.15,3.56s2.81,2.34,4.24,3.48c.71.56,1.44,1.12,2.18,1.67.37.27.74.54,1.12.8l.59.38.52.28.37,1.95.41,2,.81,4c.14.66.27,1.34.4,2l.4,2c.13.67.27,1.34.39,2l.38,2c.23,1.35.48,2.68.69,4,.12.67.24,1.34.34,2s.22,1.34.35,2c.18,1.35.44,2.69.62,4,.09.67.24,1.35.31,2s.19,1.36.32,2.05l0,.1a.14.14,0,0,0,0,.08,21.81,21.81,0,0,0,2,1.81c.72.55,1.46,1.09,2.23,1.57s1.56.93,2.37,1.34l1.22.59,1.27.53c.41.17.85.3,1.28.45l.65.23.66.17c.44.12.88.25,1.32.35l1.35.26c.44.1.9.13,1.35.19s.91.12,1.37.14l1.37,0h.72l.67,0,1.34-.09c.46-.06.92-.16,1.39-.23l.69-.13c.23,0,.45-.12.67-.18l1.34-.39c.43-.16.86-.35,1.29-.52.21-.09.43-.17.64-.27l.62-.32c.4-.22.83-.41,1.22-.66l1.17-.74a25.56,25.56,0,0,0,2.2-1.68,13.09,13.09,0,0,0,1-.93c.33-.32.68-.62,1-1,.63-.67,1.25-1.36,1.81-2.09a21.9,21.9,0,0,0,1.62-2.3A.78.78,0,0,0,186.83,222.81ZM112.75,95a1.31,1.31,0,0,1,.28,0,.85.85,0,0,1,.22,0l-1.25.42Zm1.64-34c.19,0,.38-.1.56-.15l-.45-.4a0,0,0,0,1,0,0c.17.1.34.2.52.29l-.09-.58a.05.05,0,0,1,.1,0c.06.19.11.37.15.55l.33-.45a0,0,0,1,1,.08.05,5.5,5.5,0,0,1-.28.48,2.32,2.32,0,0,1,.58-.08.07.07,0,0,1,0,.13,4.44,4.44,0,0,1-.52.15,2.12,2.12,0,0,1,.42.32c.05,0,0,.13-.07.1a2.62,2.62,0,0,1-.49-.27,4.87,4.87,0,0,1,0,.54h0a3.65,3.65,0,0,1-.18-.56c-.12.15-.24.3-.38.45a0,0,0,0,1,0,0A4.91,4.91,0,0,1,115,61a4,4,0,0,1-.6,0S114.37,61,114.39,61Zm-4.47-3c.19,0,.38-.1.57-.16a4.28,4.28,0,0,1-.45-.4s0,0,0,0c.17.11.35.2.52.3,0-.2,0-.39-.09-.58a.05.05,0,0,1,.1,0c.06.18.11.36.16.55l.32-.46s.11,0,.08.06a3.59,3.59,0,0,1-.27.47,2.79,2.79,0,0,1,.58-.07.06.06,0,0,1,0,.12A2.38,2.38,0,0,1,111,58a3.43,3.43,0,0,1,.43.32c0,.05,0,.14-.07.11a3.84,3.84,0,0,1-.49-.27c0,.18,0,.35,0,.53,0,0,0,0,0,0a3.81,3.81,0,0,1-.19-.57,3.94,3.94,0,0,1-.38.45s0,0,0,0c.09-.18.18-.34.28-.5-.2,0-.4,0-.59,0C109.9,58.09,109.9,58.05,109.92,58.05Zm-.51,3.82c.35-.09.69-.2,1-.3-.28-.24-.56-.48-.82-.74,0,0,0-.08,0-.06.31.19.64.36,1,.53-.06-.35-.1-.7-.16-1.06,0-.1.15-.17.19-.06q.16.51.3,1c.19-.27.38-.54.59-.82.07-.11.22,0,.16.11a8.75,8.75,0,0,1-.48.86,4.56,4.56,0,0,1,1-.13.13.13,0,0,1,0,.25,6.08,6.08,0,0,1-.92.28,6.08,6.08,0,0,1,.75.59c.09.09,0,.26-.14.21a6,6,0,0,1-.9-.49c0,.32,0,.65,0,1,0,0,0,0,0,0a8.71,8.71,0,0,1-.34-1,10.27,10.27,0,0,1-.7.8s0,0,0,0a8.77,8.77,0,0,1,.49-.91c-.36,0-.73,0-1.08,0A0,0,0,0,1,109.41,61.87Zm5.19,2.46a11.05,11.05,0,0,1,7.66,6.93A14.44,14.44,0,0,1,120.63,84c-.21.31-.43.61-.67.9-5.16,6.4-13.2,4.06-13.28,4a.1.1,0,0,1-.07-.12.12.12,0,0,1,.11-.09c3.26.28,7.59-2.29,10.07-6,2.71-4,2.55-8.2-.46-11.45-2.51-2.72-5.27-4.06-8.22-4-5.42.13-9.65,5.06-9.69,5.11a.11.11,0,0,1-.14,0,.09.09,0,0,1,0-.13A14,14,0,0,1,99.5,70C101.59,66.91,106.32,62.07,114.6,64.33ZM106,85.69s0,0,0,0a9.89,9.89,0,0,1-.39-1.2,11.83,11.83,0,0,1-.82,1s0,0,0,0a12,12,0,0,1,.58-1.06c-.42,0-.84.06-1.26.07,0,0,0-.07,0-.09.4-.09.81-.22,1.21-.34-.34-.27-.66-.56-1-.85a0,0,0,0,1,.06-.07c.36.23.74.42,1.11.63l-.18-1.24c0-.12.16-.19.21-.07.13.4.24.79.34,1.19.22-.32.45-.63.69-1,.08-.12.24,0,.18.12a10.68,10.68,0,0,1-.57,1,5.51,5.51,0,0,1,1.22-.16.15.15,0,0,1,0,.28,6.55,6.55,0,0,1-1.09.33,5.37,5.37,0,0,1,.89.68.15.15,0,0,1-.15.24,8.83,8.83,0,0,1-1.05-.58C106,84.92,106,85.3,106,85.69Zm.69-5.84s0,0,0,0,.25.15.38.22c0-.15,0-.29-.07-.43a0,0,0,0,1,.08,0c0,.14.08.28.11.41l.24-.34s.08,0,.06,0a4,4,0,0,1-.2.35,1.52,1.52,0,0,1,.42-.06,0,0,0,0,1,0,.09,2.38,2.38,0,0,1-.38.11,2.34,2.34,0,0,1,.31.24s0,.09,0,.07a1.58,1.58,0,0,1-.36-.2c0,.14,0,.27,0,.4s0,0,0,0a2,2,0,0,1-.13-.41l-.28.33h0a2.71,2.71,0,0,1,.21-.37l-.44,0s0,0,0,0,.28-.08.42-.12C106.93,80.05,106.83,80,106.72,79.85Zm2.89,3.23a0,0,0,0,1,0,0c.23.13.46.26.7.38,0-.25-.07-.51-.12-.77,0-.08.12-.13.14-.05a7.08,7.08,0,0,1,.22.75l.43-.6a.08.08,0,0,1,.13.08,6.44,6.44,0,0,1-.36.63,3.32,3.32,0,0,1,.77-.1c.09,0,.12.15,0,.19a4.89,4.89,0,0,1-.68.21,3.28,3.28,0,0,1,.56.42c.06.07,0,.2-.11.16a4.13,4.13,0,0,1-.65-.36c0,.24,0,.47,0,.71,0,0,0,0,0,0a4.71,4.71,0,0,1-.25-.75,7.08,7.08,0,0,1-.52.59s0,0,0,0a7,7,0,0,1,.36-.66l-.8,0a0,0,0,0,1,0,0c.25-.06.5-.14.75-.22A7.7,7.7,0,0,1,109.61,83.08Zm-17-10.47C94.86,67.72,103,59.73,103,59.73S97,67.17,94.81,71s-2.65,9.49.57,13.1,14,7,14,7-9.49-1.74-13.81-4.59S90.3,77.49,92.58,72.61ZM81.47,109.5c-.37-1.4-.73-2.8-1-4.19-.08-.34-.16-.72-.21-1s-.07-.27-.08-.45v-.21h0l0-.26.2-2.15.8-8.64c.27-2.88.54-5.76.83-8.64l.45-4.27c0-.35.09-.71.14-1.06l.08-.54V78l.16,0a3.67,3.67,0,0,1,.83.33,13.28,13.28,0,0,1,3.21,2.49,18.22,18.22,0,0,1,2.57,3.24,15,15,0,0,1,1,1.8l.37.93c.12.31.19.64.29,1a18.3,18.3,0,0,1,.54,4.07A26.69,26.69,0,0,1,91.38,96a31.94,31.94,0,0,1-.78,4.1h0l0,.6a.46.46,0,0,0,.12.3L92,102.4c.21.24.41.5.61.75l.24.29-.06,0-.27.16-.08.05h0l0,0-.06,0a1.2,1.2,0,0,0-.12.11,11.12,11.12,0,0,0-.92,1.06c-1,1.36-2,2.74-3,4.14q-2.53,3.75-5,7.55C82.71,114.25,82.08,111.88,81.47,109.5Zm17.27,24.09c-.08,1.28-.18,2.56-.22,3.83s-.11,2.55-.15,3.83l-.1,3.83c0,1.27-.06,2.55-.07,3.82l0,3.83c0,1.28,0,2.56,0,3.84,0,1.13,0,2.26.13,3.42-.6-.44-1.2-.88-1.79-1.33s-.89-.71-1.31-1.08c-.21-.18-.42-.37-.61-.56a5.42,5.42,0,0,1-.49-.56.55.55,0,0,1-.1-.17l0,0v0l0-.09-.17-.39-.34-.8c-.22-.53-.45-1.06-.69-1.58l-1.41-3.13c-.46-1-1-2.07-1.46-3.1L88.43,144c-.24-.52-.52-1-.77-1.53L86.87,141l-1.56-3v0c-.91-1.69-1.81-3.38-2.68-5.09l-1.29-2.56c-.41-.85-.83-1.71-1.22-2.56-.19-.43-.38-.86-.52-1.26l0-.15,0-.07h0v0l0-.08.16-.3c.44-.82.92-1.65,1.41-2.48,1-1.65,2-3.29,3-4.93v-.05c1.75-2.85,3.52-5.68,5.35-8.48.92-1.4,1.84-2.81,2.82-4.14.23-.33.52-.67.69-.89a1,1,0,0,0,.11-.1l.06,0,0,0h0l.23-.14.27-.16a2,2,0,0,1,.26-.14l2.2-1.2c1.47-.81,3-1.56,4.47-2.34,1.21-.64,2.43-1.25,3.65-1.87-.23,1.4.53,3.44,1.35,3.06a55.51,55.51,0,0,0,8.85-5.69,1.93,1.93,0,0,1,.19.59,3.17,3.17,0,0,1-.09,1.33,6.49,6.49,0,0,1-.55,1.32,5.19,5.19,0,0,1-.37.65c-.14.21-.23.4-.4.63l-.48.68-.06.08h0l0,0-.13.16-.25.31-1,1.26c-.34.42-.73.81-1.09,1.22l-1.09,1.22-2.27,2.39-2.31,2.36-4.62,4.66a.23.23,0,0,0-.14.16c-.77,2-1.61,4-2.52,6-.46,1-.94,1.93-1.46,2.86l-.39.69-.42.66c-.14.21-.29.4-.44.61s-.3.34-.45.52h0l-.15.25a.84.84,0,0,0,.16,1.06c.47.44.94.9,1.41,1.36s.91.93,1.36,1.41c.23.24.43.49.65.74s.43.49.63.75.42.5.6.77l.08.13-.05.51Zm.68-2.05a1.07,1.07,0,0,0-.19.13l-.08.08,0,0c-.18.27,0,.08-.09.15h0l0,.07c-.06-.1-.11-.21-.17-.32-.15-.3-.32-.59-.5-.88s-.34-.59-.52-.87c-.37-.57-.73-1.13-1.12-1.69-.23-.34-.47-.68-.72-1l.07-.11a8.35,8.35,0,0,0,.43-.77l.38-.77.34-.77c.42-1,.81-2.07,1.16-3.11.63-1.9,1.19-3.8,1.7-5.73.6,1,1.16,2.09,1.75,3.13.67,1.22,1.34,2.44,2,3.65.35.6.69,1.21,1.06,1.81l.55.9.28.45c.13.18.29.42.39.53l0,0h0s-.08-.06.08.07h0l.06,0,.1.08.21.15.44.29c.29.19.58.39.88.56s.52.3.78.44l-.89.3q-2.46.83-4.9,1.71c-.81.3-1.63.6-2.44.93-.21.09-.41.16-.63.27a2.14,2.14,0,0,0-.34.17Zm49.79,95.34Zm34.6-2.19c-.52.7-1.07,1.37-1.66,2-.28.33-.6.63-.9.94s-.62.61-.95.9-.64.59-1,.85-.67.55-1,.79l-1.08.73c-.36.25-.76.43-1.13.65l-.57.32-.59.26c-.4.18-.79.36-1.19.52l-1.24.4a4.89,4.89,0,0,1-.62.19l-.63.13c-.42.09-.83.19-1.26.26l-1.34.12-.67.06H166c-.44,0-.88-.07-1.32-.1s-.88-.06-1.31-.14l-1.31-.22c-.43-.07-.86-.19-1.29-.29l-.64-.15-.63-.2c-.42-.14-.85-.25-1.26-.41l-1.24-.47c-.41-.17-.81-.36-1.21-.54a26.43,26.43,0,0,1-2.35-1.25c-.77-.45-1.5-1-2.22-1.47A20.06,20.06,0,0,1,149.3,227c.11-.66.19-1.32.28-2s.11-1.4.14-2.1.06-1.4,0-2.09,0-1.4-.07-2.1-.12-1.39-.19-2.08-.16-1.39-.26-2.08-.19-1.38-.33-2.06l-.39-2.05-.46-2c-.15-.68-.33-1.35-.5-2s-.34-1.35-.54-2-.39-1.33-.6-2-.42-1.32-.65-2-.45-1.31-.7-2c-.49-1.3-1-2.58-1.61-3.84h0a.2.2,0,0,0-.08-.12l-.05,0c-.18-.12-.36-.23-.54-.36l-.53-.41-1.05-.85c-.69-.59-1.38-1.19-2.05-1.79-1.37-1.2-2.72-2.42-4.07-3.64s-2.7-2.44-4.06-3.66l-2-1.83c-.68-.61-1.38-1.22-2.07-1.81h0l-1.55-1.2-1.57-1.11q-1.58-1.09-3.18-2.16l-3.19-2.1c-1.06-.7-2.15-1.4-3.17-2.09s-2-1.51-3.14-2.22l-3.2-2.1c-2.12-1.4-4.25-2.79-6.21-4.33a13.22,13.22,0,0,1-1.34-1.2,3.48,3.48,0,0,1-.26-.3l-.06-.08s0,0-.05-.08l0-.05v0l0-.12,0-.12v0h0v0l0-.46c-.11-1.2-.12-2.48-.14-3.75s0-2.54,0-3.8l0-3.82c0-1.27,0-2.54,0-3.81l.08-3.82c0-1.27.08-2.54.13-3.81s.13-2.52.21-3.78v0h0l0-.59,0-.29v0h0l.16-.08c.18-.09.38-.17.57-.25.78-.32,1.58-.62,2.38-.92,1.61-.59,3.24-1.16,4.87-1.72,3.25-1.12,6.52-2.21,9.81-3.23.82-.25,1.64-.5,2.46-.73l.08,0c-.41,1.85-.22,4.58,1.74,5.2.42.13.62-.39.39-.68a6.13,6.13,0,0,1-1.3-2.58c-.15-.68-.2-1.38-.35-2.07l.66-.16.25-.06a.89.89,0,0,1,.24,0l.54.12,2.46.52,2.52.6c1.68.37,3.36.75,5,1.1.85.17,1.69.34,2.54.49l1.44.25c-1.15.54-.95,2.61-.22,2.89a22.12,22.12,0,0,0,8,.41h0a5.52,5.52,0,0,1-.07.55,4.34,4.34,0,0,1-.14.6,3.37,3.37,0,0,1-.23.6,4.13,4.13,0,0,1-.33.58,5.34,5.34,0,0,1-.41.53c-.16.15-.31.31-.48.45l-.44.35a22.68,22.68,0,0,0-3.82-.44l-1.15-.27c-1.32-.29-3.22-.7-5.52-1.08-.58-.09-1.19-.17-1.82-.23q-.48,0-1-.06a4.51,4.51,0,0,0-1.12.07l-.49.12-.51.16c-.35.1-.66.22-1,.33-.66.23-1.33.47-2,.73-1.36.5-2.76,1.06-4.17,1.63s-2.84,1.18-4.26,1.81l-2.12,1c-.71.34-1.4.66-2.11,1.07l-.27.16-.06,0-.06,0h0l0,0,0,0-.11.11a2.31,2.31,0,0,0-.45.67,6.32,6.32,0,0,0-.41,1.2,20.91,20.91,0,0,0-.38,2.26c-.17,1.47-.24,2.88-.29,4.22s0,2.59,0,3.76c0,2.32.07,4.25.09,5.6,0,.67,0,1.2,0,1.55s0,.54,0,.54a.26.26,0,0,0,.19.27.25.25,0,0,0,.3-.19h0s0-.2.1-.57.11-.9.15-1.58c.11-1.35.21-3.29.33-5.6,0-1.15.12-2.4.21-3.72s.19-2.7.38-4.11a18.4,18.4,0,0,1,.32-1.83,4.77,4.77,0,0,0,3.13,2.73.51.51,0,0,0,.39-.93,10.74,10.74,0,0,1-2.12-1.54,5.54,5.54,0,0,1-1-1.5c.13-.24.1-.21.47-.43.6-.35,1.3-.69,2-1l2.09-1c1.4-.63,2.81-1.25,4.2-1.85s2.77-1.17,4.11-1.73c.66-.27,1.32-.54,2-.78.32-.12.65-.25.95-.35l.45-.16.49-.14a4,4,0,0,1,.83-.07l.92,0c.61,0,1.2.1,1.77.16,2.29.24,4.2.55,5.53.76l.39.07c-.88.91-.76,2.92-.1,3.22a13.82,13.82,0,0,0,6.41.26,0,0,0,0,0,0,0v0a1.47,1.47,0,0,1,.06.78,2,2,0,0,1-.28.75,1.51,1.51,0,0,1-.24.34,2.81,2.81,0,0,1-.29.31,5.2,5.2,0,0,1-.68.54,4.16,4.16,0,0,1-.76.46,7.61,7.61,0,0,1-.81.4l-.85.35c-.27.12-.57.2-.86.3s-.58.2-.88.28l-.9.23-.9.23-.91.2-.91.2c-.3.07-.61.1-.92.16l-1.84.34h0a.19.19,0,0,0-.1,0h0c-.69.5-1.38,1-2.1,1.45l-1.07.68c-.37.22-.72.45-1.09.66l-1.11.63-1.12.59c-.37.2-.75.39-1.13.56l-1.15.53a.55.55,0,0,0-.32.56v0c.13.7.24,1.42.33,2.14s.17,1.43.22,2.15c0,.36,0,.72.07,1.08s0,.72,0,1.08v.54a4.61,4.61,0,0,1,0,.53l-.12,1.07v0a.24.24,0,0,0,.2.27.25.25,0,0,0,.29-.2l.2-1.11a3.31,3.31,0,0,0,.06-.55l0-.55c0-.38,0-.75.06-1.12s0-.74,0-1.1,0-.52,0-.78l2,1.39c.38.27.79.58,1.22.9s.88.66,1.35,1,.91.73,1.38,1.11a7.73,7.73,0,0,1,.69.61l.34.33.17.16,0,0,0,0,.07.08.26.33.23.37c.16.24.26.53.4.79.23.54.43,1.1.61,1.65a28.14,28.14,0,0,1,.76,3.09c.19.92.31,1.69.39,2.23s.13.85.13.85a.25.25,0,0,0,.49,0,31.07,31.07,0,0,0-.29-3.16,29,29,0,0,0-.65-3.21c-.08-.29-.18-.58-.27-.88s-.22-.59-.34-.89l-.11-.23.24.17c.18.13.39.26.59.43l.65.51c.2.19.43.38.65.59s.44.41.63.64.42.44.61.67.37.46.54.68c.35.46.64.9.88,1.29a10.49,10.49,0,0,1,.55,1l.14.27a.55.55,0,0,1,0,.1h0a.27.27,0,0,0,.28.14.26.26,0,0,0,.19-.31l0-.11c0-.08,0-.19-.09-.32a11.28,11.28,0,0,0-.43-1.09l-.2-.41a1.11,1.11,0,0,0,.19.09,10.41,10.41,0,0,0,1.68.54,21.8,21.8,0,0,0,2.22.44c1.63.23,3.52.45,5.54.7,1,.12,2,.25,3.1.41l1.58.25.8.15.4.06.38.1a11.93,11.93,0,0,1,2.93,1,10.13,10.13,0,0,1,1.33.75,10.82,10.82,0,0,1,1.22.88l.57.46c.18.16.35.34.52.49l.52.49.47.51.45.5.41.51.4.5.36.5c.23.32.45.64.64,1s.39.6.55.88c.34.56.61,1.07.82,1.49.43.84.63,1.33.63,1.33h0a.24.24,0,0,0,.31.14.23.23,0,0,0,.15-.31l-.12-.38c-.09-.24-.22-.6-.42-1s-.43-1-.74-1.57c-.15-.31-.33-.62-.52-.94s-.39-.67-.62-1c-.12-.17-.23-.35-.35-.53l-.39-.53-.41-.55-.46-.54-.47-.55-.53-.53a8.75,8.75,0,0,0-1.14-1,11.36,11.36,0,0,0-1.29-1,13.2,13.2,0,0,0-1.42-.83,12.92,12.92,0,0,0-3.18-1.12c-1.1-.24-2.15-.37-3.23-.53s-2.12-.27-3.14-.38c-2-.23-3.94-.34-5.54-.52-.8-.1-1.54-.19-2.17-.31a13.51,13.51,0,0,1-1.62-.41,9.77,9.77,0,0,1-.93-.4l-.1-.16a11.77,11.77,0,0,0-1.19-1.49c-.21-.25-.47-.45-.69-.68s-.49-.4-.73-.59a6.15,6.15,0,0,0-.71-.5c-.23-.16-.47-.28-.68-.4a5.49,5.49,0,0,0-.59-.3l-.46-.19-.09,0a30.23,30.23,0,0,0,9.85-1.37,34.93,34.93,0,0,1,12.72-1.55c.55,0,.68-.86.14-1a23.11,23.11,0,0,0-10.45.68c-2.12.55-4.15,1.37-6.27,1.9a34.92,34.92,0,0,1-6.37.81h0l-.08-.11s0,0-.06-.07l0,0-.16-.16-.34-.33c-.23-.22-.44-.44-.7-.65-.49-.41-1-.81-1.46-1.16-.95-.72-1.88-1.32-2.69-1.82s-1.49-.9-2-1.17l-.45-.24,0-.74c0-.61-.09-1.21-.15-1.82l.8-.43c.38-.2.76-.41,1.13-.64l1.1-.67,1.09-.71c.36-.23.71-.49,1.06-.73l1-.76c.67-.49,1.32-1,2-1.55l1.81-.18c.32,0,.63-.06.94-.12l.93-.16.94-.16c.31,0,.62-.14.93-.21l.92-.22.92-.28c.3-.11.61-.18.91-.3l.89-.38a7,7,0,0,0,.86-.45,4.86,4.86,0,0,0,.83-.53,4.74,4.74,0,0,0,.76-.67,3.3,3.3,0,0,0,.32-.4,2.16,2.16,0,0,0,.27-.44,2.39,2.39,0,0,0,.28-1,2,2,0,0,0-.21-1,11.7,11.7,0,0,0,1.46-.57l-1.72-.47,2.73-.1c.68-.46,1-.89.69-1.07a31.08,31.08,0,0,0-4.17-.94l.47-.41c.17-.2.35-.4.51-.62a5.49,5.49,0,0,0,.39-.71c.05-.13.11-.25.15-.37s.07-.25.1-.38a3.64,3.64,0,0,0,.12-.71c0-.23,0-.45,0-.65,0,0,0-.08,0-.12a8.79,8.79,0,0,0,.89-.19c1.61-.41,2.13-1.12,0-1.71-1.95-.55-5.59-.74-8-1.28a.19.19,0,0,0,0-.13h0a15.93,15.93,0,0,0-.66-3.08c-.31-1-.62-2-1-3s-.67-2-1-3c-.17-.5-.35-1-.53-1.48s-.31-.83-.47-1.24c2.73.53,6-1.5,7.69-3.39.15-.17-.05-.46-.25-.33-1.12.73-2.22,1.45-3.4,2.07a21.27,21.27,0,0,1-4.25,1.23,31.19,31.19,0,0,1-2.53-4c-.38-.7-.72-1.44-1.08-2.15l-1-2.18-.84-2.29a16.94,16.94,0,0,1-.65-2.24,24.4,24.4,0,0,1-.5-4.69,30.13,30.13,0,0,1,.32-4.74,21.88,21.88,0,0,1,1.16-4.57,6.79,6.79,0,0,1,.5-1,2,2,0,0,1,.27-.36s0,0,0,0,.08,0,.11-.07h.08a1.82,1.82,0,0,1,.87.25,7,7,0,0,1,1,.6A20.14,20.14,0,0,1,135.52,92a32.85,32.85,0,0,1,2.76,4c.85,1.37,1.52,2.83,2.26,4.3a45.3,45.3,0,0,0,2.42,4.29c.47.68.92,1.38,1.45,2,.26.33.53.64.8,1s.52.56.78.89a5.13,5.13,0,0,1,.67,2c.17.8.35,1.6.58,2.41.12.4.22.82.36,1.2s.25.75.42,1.16c.32.75.64,1.51,1,2.26.67,1.5,1.4,2.94,2.1,4.42s1.47,2.9,2.26,4.33h0l.09.09c.24.27.52.49.77.75l.37.37.37.38c.25.25.46.53.7.78s.46.53.66.82.41.57.61.86.39.59.57.89.35.62.52.93.33.64.48,1h0a.18.18,0,0,0,.08.12l.07,0a6.43,6.43,0,0,1,1.93,2,21.81,21.81,0,0,1,1.42,2.5c.85,1.75,1.6,3.56,2.4,5.4a25.62,25.62,0,0,0,1.38,2.78,21.28,21.28,0,0,0,1.84,2.54,22.33,22.33,0,0,1,2.91,4.89c.39.88.78,1.86,1.13,2.73l.46,1.34c.12.47.26.92.37,1.39a28.7,28.7,0,0,1,.73,5.71,43.33,43.33,0,0,1-.22,5.8c-2.64,4.74-6.53,10.4-4.31,15.56.07.18.3.06.32-.09a26.55,26.55,0,0,1,3-9.4c.43-.84.86-1.65,1.26-2.47l.59,2.58,5.56,23.4c.93,3.89,1.9,7.76,2.85,11.64s1.86,7.53,2.82,11.29A21.6,21.6,0,0,1,183.81,224.69Z"/><text class="cls-3" transform="translate(130.32 89.75)">7</text></g></g></svg>