<svg xmlns="http://www.w3.org/2000/svg" viewBox="0 0 190.04 283.47"><defs><style>.cls-1{fill:#191c1c;}.cls-2,.cls-3{fill:#c99e67;}.cls-3{font-size:3.74px;font-family:ChauPhilomeneOne-Regular, Chau Philomene One;}</style></defs><g id="Calque_2" data-name="Calque 2"><g id="OBJECTS"><path class="cls-1" d="M190,89.65V283.47H0V89.65A89.75,89.75,0,0,1,89.65,0H100.4A89.75,89.75,0,0,1,190,89.65Z"/><path class="cls-2" d="M83.67,233.9c1.35.44,2.7.86,4.07,1.25a134.3,134.3,0,0,0,38,5.55l2.32,0c-9.12,4.68-17,7.18-27.19,9.7l-.88-.11c-10.77-1.44-21.18-4.82-29.94-7.94h0l-.63-.22c-1-.37-2.11-.75-3.17-1.11-5.67-2-11.51-3.56-17.55-2.74-.79.11-1.57.26-2.33.44s-4.79,1.62-5.66,2a76,76,0,0,0-9.86,5.87c-1.2.78-2.39,1.58-3.58,2.34a89.42,89.42,0,0,1-24,10.64V200.25c.92.08,1.83.18,2.73.29a81.39,81.39,0,0,1,9.9,1.83c1.59.39,3.13.83,4.65,1.3,12.35,3.78,22.51,9.7,29.25,13.93l3.11,2c1.46.94,2.65,1.71,3.6,2.27l.43.24A149.25,149.25,0,0,0,83.67,233.9Zm103.16,46.36H3.2V262.9a92.5,92.5,0,0,0,25.72-11.26c1.21-.77,2.42-1.58,3.63-2.39,3.7-2.45,7.48-5,11.51-6.5a23.17,23.17,0,0,1,3.65-1.08c.45-.1.89-.17,1.35-.24,4.41-.6,8.89.31,13.3,1.68,1.06.33,2.11.68,3.16,1l2.75,1,.66.24c8.92,3.17,19.53,6.61,30.6,8.09.39.06.79.1,1.18.15l0,.11.3-.08c.17,0,.33.05.5.06,2.7.31,5.44.54,8.08.75l3,.24c1.83.16,3.67.33,5.48.55,12.53,1.49,19.44,4.48,29.92,9,2.78,1.19,5.91,2.55,9.42,4,6.8,2.78,17,5.63,25.9,5.63a33.08,33.08,0,0,0,3.48-.18Zm0-9.8c-9,1-20.71-2.15-28.16-5.2-3.48-1.43-6.61-2.78-9.37-4-9.29-4-16.27-7-27-8.72-1.21-.2-2.47-.37-3.79-.53-.88-.11-1.77-.2-2.66-.28-2-.2-3.92-.36-5.84-.51a109.09,109.09,0,0,0,25.1-10.77l.27-.15h0a75.5,75.5,0,0,1,23.21-8.88c1.52-.3,3-.52,4.42-.69,12.13-1.39,20.54,1.51,23.81,2.95Zm0-40.23a49.83,49.83,0,0,0-20-3c-1.18.06-2.42.15-3.69.28-8.14.87-17.85,3.56-28.74,9.66a129.74,129.74,0,0,1-43-4.33q-2.86-.76-5.71-1.68l-.4-.12c-1.12-.36-2.24-.73-3.35-1.12a147.28,147.28,0,0,1-23.51-10.64c-.93-.52-2.23-1.35-3.87-2.4-1.28-.83-2.76-1.77-4.4-2.79h-.08a19.14,19.14,0,0,1-4-2.45h0c-1.85-1.07-3.84-2.19-6-3.3A105.13,105.13,0,0,0,15.49,199c-1.48-.35-3-.66-4.51-.94-2.22-.39-4.49-.71-6.8-.92l-1-.09V89.65A86.54,86.54,0,0,1,89.65,3.22H100.4a86.52,86.52,0,0,1,86.43,86.43ZM100.4,0H89.65A89.75,89.75,0,0,0,0,89.65V283.47H190V89.65A89.75,89.75,0,0,0,100.4,0Z"/><path class="cls-2" d="M76.48,61.47a31.56,31.56,0,0,0-16.37-4.13,31.56,31.56,0,0,0-16.37,4.13c-4,2-7.73,3.91-15.43,3.91s-11.46-1.9-15.44-3.91c-1.38-.7-2.78-1.4-4.36-2-.2.65-.4,1.29-.59,1.94,1.42.57,2.71,1.22,4,1.88a31.56,31.56,0,0,0,16.37,4.13,31.56,31.56,0,0,0,16.37-4.13c4-2,7.73-3.91,15.43-3.91s11.46,1.9,15.44,3.91a31.53,31.53,0,0,0,16.37,4.13v-2C84.21,65.38,80.46,63.48,76.48,61.47Z"/><path class="cls-2" d="M76.48,70.83A31.56,31.56,0,0,0,60.11,66.7a31.56,31.56,0,0,0-16.37,4.13c-4,2-7.73,3.91-15.43,3.91s-11.46-1.9-15.44-3.91A38.68,38.68,0,0,0,6.17,68c-.15.65-.31,1.3-.46,2a38.16,38.16,0,0,1,6.23,2.67,31.56,31.56,0,0,0,16.37,4.13,31.56,31.56,0,0,0,16.37-4.13c4-2,7.73-3.91,15.43-3.91s11.46,1.9,15.44,3.91a31.53,31.53,0,0,0,16.37,4.13v-2C84.21,74.74,80.46,72.84,76.48,70.83Z"/><path class="cls-2" d="M76.48,80.19a31.46,31.46,0,0,0-16.37-4.14,31.46,31.46,0,0,0-16.37,4.14c-4,2-7.73,3.91-15.43,3.91s-11.46-1.9-15.44-3.91A34.58,34.58,0,0,0,4.3,76.85c-.12.66-.24,1.32-.35,2a33.2,33.2,0,0,1,8,3.14,31.46,31.46,0,0,0,16.37,4.14A31.46,31.46,0,0,0,44.68,82c4-2,7.73-3.91,15.43-3.91S71.57,80,75.55,82a31.43,31.43,0,0,0,16.37,4.14v-2C84.21,84.1,80.46,82.2,76.48,80.19Z"/><path class="cls-2" d="M76.48,89.54a31.56,31.56,0,0,0-16.37-4.13,31.56,31.56,0,0,0-16.37,4.13c-4,2-7.73,3.91-15.43,3.91s-11.46-1.9-15.44-3.91a32.91,32.91,0,0,0-10-3.62c-.09.66-.18,1.33-.26,2a31.06,31.06,0,0,1,9.32,3.41,31.56,31.56,0,0,0,16.37,4.13,31.56,31.56,0,0,0,16.37-4.13c4-2,7.73-3.91,15.43-3.91s11.46,1.9,15.44,3.91a31.53,31.53,0,0,0,16.37,4.13v-2C84.21,93.45,80.46,91.55,76.48,89.54Z"/><path class="cls-2" d="M76.48,98.9a31.56,31.56,0,0,0-16.37-4.13A31.56,31.56,0,0,0,43.74,98.9c-4,2-7.73,3.91-15.43,3.91s-11.46-1.9-15.44-3.91a32.21,32.21,0,0,0-11-3.78c-.06.67-.11,1.34-.17,2a30.09,30.09,0,0,1,10.25,3.56,31.56,31.56,0,0,0,16.37,4.13,31.56,31.56,0,0,0,16.37-4.13c4-2,7.73-3.91,15.43-3.91s11.46,1.9,15.44,3.91a31.53,31.53,0,0,0,16.37,4.13v-2C84.21,102.81,80.46,100.91,76.48,98.9Z"/><path class="cls-2" d="M184.11,57.42a31.27,31.27,0,0,0-13.88,4c-4,2-7.73,3.91-15.44,3.91s-11.45-1.9-15.43-3.91A31.56,31.56,0,0,0,123,57.34a31.56,31.56,0,0,0-16.37,4.13c-4,2-7.73,3.91-15.43,3.91v2a31.56,31.56,0,0,0,16.37-4.13c4-2,7.73-3.91,15.43-3.91s11.46,1.9,15.43,3.91a34.51,34.51,0,0,0,32.74,0c3.62-1.83,7.06-3.56,13.45-3.86C184.46,58.75,184.3,58.08,184.11,57.42Z"/><path class="cls-2" d="M186,66.71a31.42,31.42,0,0,0-15.76,4.12c-4,2-7.73,3.91-15.44,3.91s-11.45-1.9-15.43-3.91A31.56,31.56,0,0,0,123,66.7a31.56,31.56,0,0,0-16.37,4.13c-4,2-7.73,3.91-15.43,3.91v2a31.56,31.56,0,0,0,16.37-4.13c4-2,7.73-3.91,15.43-3.91s11.46,1.9,15.43,3.91a34.51,34.51,0,0,0,32.74,0c3.92-2,7.64-3.86,15.12-3.91C186.19,68,186.09,67.38,186,66.71Z"/><path class="cls-2" d="M91.19,86.11A31.46,31.46,0,0,0,107.56,82c4-2,7.73-3.91,15.43-3.91S134.45,80,138.42,82a34.43,34.43,0,0,0,32.74,0c4-2,7.73-3.91,15.44-3.91v-2a31.43,31.43,0,0,0-16.37,4.14c-4,2-7.73,3.91-15.44,3.91s-11.45-1.9-15.43-3.91A31.46,31.46,0,0,0,123,76.05a31.46,31.46,0,0,0-16.37,4.14c-4,2-7.73,3.91-15.43,3.91Z"/><path class="cls-2" d="M91.19,95.46a31.56,31.56,0,0,0,16.37-4.13c4-2,7.73-3.91,15.43-3.91s11.46,1.9,15.43,3.91a34.51,34.51,0,0,0,32.74,0c4-2,7.73-3.91,15.44-3.91v-2a31.53,31.53,0,0,0-16.37,4.13c-4,2-7.73,3.91-15.44,3.91s-11.45-1.9-15.43-3.91A31.56,31.56,0,0,0,123,85.41a31.56,31.56,0,0,0-16.37,4.13c-4,2-7.73,3.91-15.43,3.91Z"/><path class="cls-2" d="M91.19,104.82a31.56,31.56,0,0,0,16.37-4.13c4-2,7.73-3.91,15.43-3.91s11.46,1.9,15.43,3.91a34.51,34.51,0,0,0,32.74,0c4-2,7.73-3.91,15.44-3.91v-2a31.53,31.53,0,0,0-16.37,4.13c-4,2-7.73,3.91-15.44,3.91s-11.45-1.9-15.43-3.91A31.56,31.56,0,0,0,123,94.77a31.56,31.56,0,0,0-16.37,4.13c-4,2-7.73,3.91-15.43,3.91Z"/><path class="cls-2" d="M77,14.92a31.53,31.53,0,0,0-16.37-4.13,31.56,31.56,0,0,0-16.37,4.13c-1.27.64-2.53,1.27-3.89,1.83a5.35,5.35,0,0,1-.49.78,19.72,19.72,0,0,1-2.06,2.21,37.87,37.87,0,0,0,7.38-3c4-2,7.73-3.91,15.43-3.91S72.05,14.7,76,16.71A31.53,31.53,0,0,0,92.4,20.84v-2C84.69,18.83,80.94,16.93,77,14.92Z"/><path class="cls-2" d="M77,24.28a31.43,31.43,0,0,0-16.37-4.14,31.46,31.46,0,0,0-16.37,4.14c-4,2-7.73,3.91-15.43,3.91-.73,0-1.42,0-2.08-.06L25.09,30c1.14.11,2.36.17,3.7.17a31.46,31.46,0,0,0,16.37-4.14c4-2,7.73-3.91,15.43-3.91S72.05,24.05,76,26.06A31.43,31.43,0,0,0,92.4,30.2v-2C84.69,28.19,80.94,26.29,77,24.28Z"/><path class="cls-2" d="M77,33.63A31.53,31.53,0,0,0,60.59,29.5a31.56,31.56,0,0,0-16.37,4.13c-4,2-7.73,3.91-15.43,3.91a30.67,30.67,0,0,1-9-1.18L18.38,38a32.28,32.28,0,0,0,10.41,1.51,31.56,31.56,0,0,0,16.37-4.13c4-2,7.73-3.91,15.43-3.91S72.05,33.41,76,35.42A31.53,31.53,0,0,0,92.4,39.55v-2C84.69,37.54,80.94,35.64,77,33.63Z"/><path class="cls-2" d="M77,43a31.53,31.53,0,0,0-16.37-4.13A31.56,31.56,0,0,0,44.22,43c-4,2-7.73,3.91-15.43,3.91a28.72,28.72,0,0,1-14.62-3.5L13,45.05a31.11,31.11,0,0,0,15.83,3.86,31.56,31.56,0,0,0,16.37-4.13,29.31,29.31,0,0,1,15.43-3.91A29.35,29.35,0,0,1,76,44.78,31.53,31.53,0,0,0,92.4,48.91v-2C84.69,46.9,80.94,45,77,43Z"/><path class="cls-2" d="M77,52.34a31.53,31.53,0,0,0-16.37-4.13,31.56,31.56,0,0,0-16.37,4.13c-4,2-7.73,3.91-15.43,3.91s-11.46-1.9-15.43-3.91c-.73-.36-1.46-.73-2.22-1.08a5.42,5.42,0,0,1-.29,1.19l-.27.77,1.84.91a31.56,31.56,0,0,0,16.37,4.13,31.56,31.56,0,0,0,16.37-4.13c4-2,7.73-3.91,15.43-3.91S72.05,52.12,76,54.13A31.53,31.53,0,0,0,92.4,58.26v-2C84.69,56.25,80.94,54.35,77,52.34Z"/><path class="cls-2" d="M152,18.7a29.47,29.47,0,0,1-12.18-3.78,31.56,31.56,0,0,0-16.37-4.13,31.56,31.56,0,0,0-16.37,4.13c-4,2-7.73,3.91-15.43,3.91v2A31.56,31.56,0,0,0,108,16.71c4-2,7.73-3.91,15.43-3.91s11.46,1.9,15.44,3.91a31.35,31.35,0,0,0,13.79,4.05A4.45,4.45,0,0,1,152,18.7Z"/><path class="cls-2" d="M161.77,27.62a34.23,34.23,0,0,1-6.49.57c-7.71,0-11.46-1.9-15.44-3.91a31.46,31.46,0,0,0-16.37-4.14,31.46,31.46,0,0,0-16.37,4.14c-4,2-7.73,3.91-15.43,3.91v2A31.46,31.46,0,0,0,108,26.06c4-2,7.73-3.91,15.43-3.91s11.46,1.9,15.44,3.91a31.43,31.43,0,0,0,16.37,4.14,34.09,34.09,0,0,0,8.69-1C163.25,28.65,162.52,28.13,161.77,27.62Z"/><path class="cls-2" d="M169.39,34.33l0,0a28.47,28.47,0,0,1-14.09,3.24c-7.71,0-11.46-1.9-15.44-3.91a31.56,31.56,0,0,0-16.37-4.13,31.56,31.56,0,0,0-16.37,4.13c-4,2-7.73,3.91-15.43,3.91v2A31.56,31.56,0,0,0,108,35.42c4-2,7.73-3.91,15.43-3.91s11.46,1.9,15.44,3.91a31.53,31.53,0,0,0,16.37,4.13A30.68,30.68,0,0,0,170.56,36C170.18,35.41,169.8,34.86,169.39,34.33Z"/><path class="cls-2" d="M172.91,41.9c-.75.36-1.48.72-2.2,1.09-4,2-7.73,3.91-15.43,3.91S143.82,45,139.84,43a31.56,31.56,0,0,0-16.37-4.13A31.56,31.56,0,0,0,107.1,43c-4,2-7.73,3.91-15.43,3.91v2A31.56,31.56,0,0,0,108,44.78a29.31,29.31,0,0,1,15.43-3.91,29.35,29.35,0,0,1,15.44,3.91,34.49,34.49,0,0,0,32.73,0L173.2,44A4.21,4.21,0,0,1,172.91,41.9Z"/><path class="cls-2" d="M178,49.34a38.59,38.59,0,0,0-7.25,3c-4,2-7.73,3.91-15.43,3.91s-11.46-1.9-15.44-3.91a31.56,31.56,0,0,0-16.37-4.13,31.56,31.56,0,0,0-16.37,4.13c-4,2-7.73,3.91-15.43,3.91v2A31.56,31.56,0,0,0,108,54.13c4-2,7.73-3.91,15.43-3.91s11.46,1.9,15.44,3.91a34.49,34.49,0,0,0,32.73,0,34.64,34.64,0,0,1,7.31-3Z"/><path class="cls-2" d="M77.77,109.92a31.53,31.53,0,0,0-16.37-4.13A31.52,31.52,0,0,0,45,109.92c-4,2-7.74,3.91-15.44,3.91s-11.46-1.9-15.43-3.91a31.28,31.28,0,0,0-13-4l-.09,2a29.17,29.17,0,0,1,12.18,3.78,31.56,31.56,0,0,0,16.37,4.13A31.56,31.56,0,0,0,46,111.71c4-2,7.73-3.91,15.43-3.91s11.46,1.9,15.44,3.91a31.56,31.56,0,0,0,16.37,4.13v-2C85.5,113.83,81.75,111.93,77.77,109.92Z"/><path class="cls-2" d="M77.77,119.28a31.43,31.43,0,0,0-16.37-4.14A31.41,31.41,0,0,0,45,119.28c-4,2-7.74,3.91-15.44,3.91s-11.46-1.9-15.43-3.91a31.28,31.28,0,0,0-13.32-4q0,1,0,2a29.39,29.39,0,0,1,12.41,3.8A31.55,31.55,0,0,0,29.6,125.2,31.55,31.55,0,0,0,46,121.06c4-2,7.73-3.91,15.43-3.91a29.18,29.18,0,0,1,15.18,3.78l2.43-1Z"/><path class="cls-2" d="M61.4,124.5A31.52,31.52,0,0,0,45,128.63c-4,2-7.74,3.91-15.44,3.91s-11.46-1.9-15.43-3.91a31.43,31.43,0,0,0-13.37-4c0,.68,0,1.35,0,2a29.3,29.3,0,0,1,12.42,3.8,31.56,31.56,0,0,0,16.37,4.13A31.56,31.56,0,0,0,46,130.42c4-2,7.73-3.91,15.43-3.91.9,0,1.73,0,2.53.08L67.47,125A37.16,37.16,0,0,0,61.4,124.5Z"/><path class="cls-2" d="M29.6,141.9c-7.7,0-11.46-1.9-15.43-3.91A31.31,31.31,0,0,0,.94,134c0,.67,0,1.35.05,2a29.18,29.18,0,0,1,12.24,3.79A31.45,31.45,0,0,0,29,143.9l4.16-2.16C32.06,141.84,30.89,141.9,29.6,141.9Z"/><path class="cls-2" d="M14.17,147.34a31.52,31.52,0,0,0-13-4c0,.67.05,1.35.07,2a29.37,29.37,0,0,1,12,3.76c1,.5,2,1,3.07,1.49l2.3-1.22C17,148.78,15.61,148.07,14.17,147.34Z"/><path class="cls-2" d="M92.48,115.84a31.56,31.56,0,0,0,16.37-4.13c4-2,7.73-3.91,15.43-3.91s11.46,1.9,15.44,3.91a34.51,34.51,0,0,0,32.74,0c4-2,7.73-3.91,15.43-3.91v-2a31.56,31.56,0,0,0-16.37,4.13c-4,2-7.73,3.91-15.43,3.91s-11.46-1.9-15.44-3.91a31.53,31.53,0,0,0-16.37-4.13,31.59,31.59,0,0,0-16.37,4.13c-4,2-7.73,3.91-15.43,3.91Z"/><path class="cls-2" d="M171.52,119.28c-4,2-7.73,3.91-15.43,3.91s-11.46-1.9-15.44-3.91a31.43,31.43,0,0,0-16.37-4.14,31.48,31.48,0,0,0-16.37,4.14l-1.74.86c1,.2,2,.44,3.06.73a29,29,0,0,1,15-3.72c7.71,0,11.46,1.9,15.44,3.91a34.43,34.43,0,0,0,32.74,0c4-2,7.73-3.91,15.43-3.91v-2A31.46,31.46,0,0,0,171.52,119.28Z"/><path class="cls-2" d="M120.9,126.16c.4.13.78.28,1.17.42.71,0,1.43-.07,2.21-.07,7.71,0,11.46,1.9,15.44,3.91a34.51,34.51,0,0,0,32.74,0c4-2,7.73-3.91,15.43-3.91v-2a31.56,31.56,0,0,0-16.37,4.13c-4,2-7.73,3.91-15.43,3.91s-11.46-1.9-15.44-3.91a31.53,31.53,0,0,0-16.37-4.13c-1.48,0-2.83.07-4.07.19.05.1.13.18.17.28A3.51,3.51,0,0,1,120.9,126.16Z"/><path class="cls-2" d="M158.57,143.83a31.31,31.31,0,0,0,13.89-4.05,29.31,29.31,0,0,1,15.43-3.91v-2A31.55,31.55,0,0,0,171.52,138c-4,2-7.73,3.91-15.43,3.91-.56,0-1.09,0-1.61,0Z"/><path class="cls-2" d="M171.2,149.76l1.26-.63c4-2,7.73-3.91,15.43-3.91v-2a31.56,31.56,0,0,0-16.37,4.13c-.9.46-1.78.9-2.71,1.33Z"/><path class="cls-2" d="M119.63,53.53a17.24,17.24,0,1,0,17.24,17.24A17.26,17.26,0,0,0,119.63,53.53Zm0,31.28a14,14,0,1,1,14-14A14.06,14.06,0,0,1,119.63,84.81Z"/><path class="cls-2" d="M133.66,70.77a14,14,0,1,1-14-14A14,14,0,0,1,133.66,70.77Z"/><path class="cls-2" d="M187.9,157.59l-1.07-.5-38.89-18.34-30.81-14.52a49.49,49.49,0,0,0-20.3-4.69L85.27,136.48A9.86,9.86,0,0,0,91,151.59L96.55,153a12.39,12.39,0,0,1,3.87,22.35L85,188.31a9.85,9.85,0,0,0,1.49,16.1l4.94,2.8a12.39,12.39,0,0,1-2.09,22.5l-3.6,1.46-4.16,1.69a5.13,5.13,0,0,0-2.79-1.63l3.2-1.3,6.3-2.55a9.84,9.84,0,0,0,1.88-18l-4.93-2.79a12.39,12.39,0,0,1-1.88-20.27s16.45-13.8,16.59-13.85a9.84,9.84,0,0,0-4-17.09l-5.51-1.36a12.4,12.4,0,0,1-7.26-19L93.71,119.6a49.71,49.71,0,0,0-18.52,4.63l-30.8,14.52L3.2,158.17l-1.53.72c.15-1,.31-2,.49-3l1-.49,70.91-33.42a51.7,51.7,0,0,1,44.11,0l32.93,15.52,35.68,16.82,1,.49C187.88,155.7,187.88,156.65,187.9,157.59Z"/><path class="cls-2" d="M174.61,186.53c1.63,1.2.66,2.17-.54.54-1.2,1.63-2.17.66-.54-.54-1.63-1.2-.66-2.17.54-.54C175.27,184.36,176.24,185.33,174.61,186.53Z"/><circle class="cls-2" cx="112.77" cy="231.36" r="0.54"/><circle class="cls-2" cx="180.83" cy="224.61" r="0.54"/><path class="cls-2" d="M172.9,198.38c1.62,1.19.65,2.16-.54.54-1.2,1.62-2.17.65-.54-.54-1.63-1.2-.66-2.17.54-.54C173.55,196.21,174.52,197.18,172.9,198.38Z"/><circle class="cls-2" cx="161.69" cy="192.93" r="0.54"/><circle class="cls-2" cx="181.95" cy="215.44" r="0.54"/><circle class="cls-2" cx="181.79" cy="193.12" r="0.54"/><circle class="cls-2" cx="169.81" cy="178.12" r="0.54"/><circle class="cls-2" cx="180.45" cy="205.3" r="0.54"/><path class="cls-2" d="M150,223.16c1.63,1.19.66,2.16-.54.54-1.2,1.62-2.17.65-.54-.54-1.63-1.2-.66-2.17.54-.55C150.7,221,151.67,222,150,223.16Z"/><path class="cls-2" d="M159.8,215.65c1.63,1.19.66,2.16-.54.54-1.2,1.62-2.17.65-.54-.54-1.63-1.2-.66-2.17.54-.54C160.46,213.48,161.43,214.45,159.8,215.65Z"/><circle class="cls-2" cx="124.89" cy="229.91" r="0.54"/><path class="cls-2" d="M139.7,227.49c1.62,1.2.65,2.17-.54.55-1.2,1.62-2.17.65-.55-.55-1.62-1.19-.65-2.16.55-.54C140.35,225.33,141.32,226.3,139.7,227.49Z"/><circle class="cls-2" cx="164.93" cy="206.54" r="0.54"/><path class="cls-2" d="M152.84,212.48c1.62,1.19.65,2.16-.55.54-1.19,1.62-2.16.65-.54-.54-1.62-1.2-.65-2.17.54-.54C153.49,210.31,154.46,211.28,152.84,212.48Z"/><circle class="cls-2" cx="171.44" cy="212.85" r="0.54"/><circle class="cls-2" cx="169.94" cy="221.86" r="0.54"/><path class="cls-2" d="M131.23,222c1.62,1.2.65,2.17-.54.54-1.2,1.63-2.17.66-.54-.54-1.63-1.2-.66-2.17.54-.54C131.88,219.86,132.85,220.83,131.23,222Z"/><path class="cls-2" d="M176.2,169.55c1.63,1.19.66,2.16-.54.54-1.2,1.62-2.17.65-.54-.54-1.63-1.2-.66-2.17.54-.55C176.86,167.38,177.83,168.35,176.2,169.55Z"/><circle class="cls-2" cx="141.03" cy="214.15" r="0.54"/><path class="cls-2" d="M155.09,203.05c1.62,1.2.65,2.17-.54.54-1.2,1.63-2.17.66-.54-.54-1.63-1.2-.66-2.17.54-.54C155.74,200.88,156.71,201.85,155.09,203.05Z"/><path class="cls-2" d="M160.34,224.12c1.63,1.19.66,2.16-.54.54-1.19,1.62-2.16.65-.54-.54-1.62-1.2-.65-2.17.54-.55C161,222,162,222.92,160.34,224.12Z"/><path class="cls-2" d="M180,179.35c1.63,1.2.66,2.17-.54.55-1.2,1.62-2.17.65-.54-.55-1.63-1.19-.66-2.16.54-.54C180.69,177.19,181.66,178.16,180,179.35Z"/><circle class="cls-2" cx="103.87" cy="230.83" r="0.54"/><path class="cls-2" d="M154.92,161.49c1.63,1.2.66,2.17-.54.55-1.2,1.62-2.17.65-.54-.55-1.63-1.19-.66-2.16.54-.54C155.58,159.33,156.55,160.3,154.92,161.49Z"/><circle class="cls-2" cx="112.39" cy="221.75" r="0.54"/><circle class="cls-2" cx="181.95" cy="161.75" r="0.54"/><circle class="cls-2" cx="141.56" cy="203.65" r="0.54"/><circle class="cls-2" cx="158.3" cy="178.65" r="0.54"/><circle class="cls-2" cx="158.86" cy="150.49" r="0.54"/><circle class="cls-2" cx="148.71" cy="197.81" r="0.54"/><path class="cls-2" d="M105.09,214.71c1.62,1.2.65,2.17-.54.54-1.2,1.63-2.17.66-.55-.54-1.62-1.2-.65-2.17.55-.54C105.74,212.54,106.71,213.51,105.09,214.71Z"/><path class="cls-2" d="M101.12,224c1.63,1.2.66,2.17-.54.54-1.19,1.63-2.16.66-.54-.54-1.62-1.2-.65-2.17.54-.54C101.78,221.81,102.75,222.78,101.12,224Z"/><circle class="cls-2" cx="129.84" cy="211.61" r="0.54"/><circle class="cls-2" cx="152.63" cy="186.57" r="0.54"/><path class="cls-2" d="M123.37,218.07c1.62,1.19.65,2.16-.55.54-1.19,1.62-2.16.65-.54-.54-1.62-1.2-.65-2.17.54-.55C124,215.9,125,216.87,123.37,218.07Z"/><path class="cls-2" d="M169.56,154.74c1.63,1.19.66,2.16-.54.54-1.19,1.62-2.16.65-.54-.54-1.62-1.2-.65-2.17.54-.55C170.22,152.57,171.19,153.54,169.56,154.74Z"/><path class="cls-2" d="M120.81,208.8c1.63,1.19.66,2.16-.54.54-1.2,1.62-2.17.65-.54-.54-1.63-1.2-.66-2.17.54-.55C121.47,206.63,122.44,207.6,120.81,208.8Z"/><path class="cls-2" d="M163.8,166.26c1.62,1.19.65,2.16-.54.54-1.2,1.62-2.17.65-.54-.54-1.63-1.2-.66-2.17.54-.55C164.45,164.09,165.42,165.06,163.8,166.26Z"/><text class="cls-3" transform="translate(117.88 226.01) rotate(22.85)">8</text></g></g></svg>