<svg xmlns="http://www.w3.org/2000/svg" viewBox="0 0 1877.75 1840.35"><defs><style>.cls-1{fill:#ca9e67;}</style></defs><g id="Calque_2" data-name="Calque 2"><g id="Capa_1" data-name="Capa 1"><path class="cls-1" d="M606,1149.37A203,203,0,0,1,519.34,1197c-7.76,2-4.47,14.07,3.31,12a216.21,216.21,0,0,0,92.2-50.84C620.73,1152.71,611.9,1143.91,606,1149.37Z"/><path class="cls-1" d="M1262.49,1158.19a216.11,216.11,0,0,0,92.19,50.84c7.77,2,11.09-10,3.32-12a202.88,202.88,0,0,1-86.69-47.64C1265.44,1143.91,1256.6,1152.71,1262.49,1158.19Z"/><path class="cls-1" d="M432,1064a517.88,517.88,0,0,1-122.44,48.82c-21.82,5.6-45.77,10.75-68.18,5.42-9.17-2.18-19.6-7.18-22-17.23-2.44-10.2,6.14-18.49,14.27-22.91,7.06-3.83.77-14.61-6.29-10.77-14.71,8-25.78,24.52-18.45,41.32,7.66,17.54,27.78,22.72,45.19,23.87,21.33,1.4,42.69-3.37,63.17-8.82a520.45,520.45,0,0,0,58.11-19.17,541.78,541.78,0,0,0,62.92-29.76C445.33,1070.89,439,1060.11,432,1064Z"/><path class="cls-1" d="M578.56,1073.42A563.08,563.08,0,0,1,446,1151.75c-7.3,3-4.09,15.12,3.31,12a584.14,584.14,0,0,0,138.06-81.54C593.66,1077.25,584.78,1068.47,578.56,1073.42Z"/><path class="cls-1" d="M529.79,870.6a556.67,556.67,0,0,1-171.52,97.66c-7.51,2.66-4.28,14.71,3.32,12a573.73,573.73,0,0,0,177-100.87C544.78,874.26,535.92,865.48,529.79,870.6Z"/><path class="cls-1" d="M379.83,849.89a707.53,707.53,0,0,1-239.39,71.79q-35.41,4-71.1,4.43c-8,.1-8,12.58,0,12.47a721.14,721.14,0,0,0,250.24-48.26q34-13.16,66.54-29.66C393.28,857,387,846.27,379.83,849.89Z"/><path class="cls-1" d="M1877.71,943.26c-.92-20.56-18-35.34-36.17-41.86-10.86-3.9-22.47-5.21-33.86-6.57s-22.85-2.74-34.24-4.3c-45.41-6.21-90.63-14.37-135-26.06-44-11.62-87.25-26.76-128-47.14a509.7,509.7,0,0,1-58.09-33.91c-19.53-13.25-37.54-28.54-56.86-42.07-36.79-25.77-84.44-43.76-126.78-19.72-38.53,21.88-56.69,64.07-80.12,99.42-47.89-12.34-106.94,3.56-164.09,41.58V809.87a6,6,0,0,0-.51-2.93c-2-6.86-9.28-10.52-15.71-13-11.49-4.49-24.12-6.38-36.41-7.66.43-12,7-23.75,15-33.16a135.19,135.19,0,0,1,44.89-34.55c17.4-8.26,37.2-13,51.1-27.21,14.59-14.9,18-36.18,15-56.12-3.06-17.14-10.88-32.74-19.74-47.55-3.75-6.27-12.75-2-11.4,4.8a43,43,0,0,1-10.48,37.3c-3.15,3.36-9.33,8.65-14.5,7.08-8-2.43-1.63-13.51.94-17.73,12.78-21.07,19.1-44.5,16.73-69.23-2.29-23.78-11.6-46.82-27.82-64.53-16.39-17.87-39.33-28.91-63.2-32.3-26.94-3.83-55,1.72-77.59,17.2-3.44,2.36-4.63,8.7,0,10.77,10.44,4.65,21.57,10.15,28.44,19.66,6.2,8.58,8.7,20.55,1.46,29.27-5.84,7-16.33,10.41-24.72,6.15a21.89,21.89,0,0,1-11-24.63c1.3-4.94-3.09-8.44-7.67-7.67-31.45,5.29-50.57,38.42-46.79,68.65,2.07,16.58,9.65,31.78,20.24,44.57,5.56,6.7,12.29,11.9,18.53,17.89,6,5.75,10.52,13,3.81,20.21-6.39,6.87-18.13,10-27.07,7.35-8.62-2.49-14.4-11.16-11.25-19.92,1.7-4.72-3.38-8.65-7.67-7.67-14.89,3.42-26.64,14.56-32.26,28.59-6.22,15.51-3.52,33.31,4.37,47.72,8.16,14.92,22.18,26.12,37.45,33.15,16.47,7.58,34.89,9.54,51.26,17.21,7.66,3.6,13.27,8.22,15.53,16.65a31.76,31.76,0,0,1,1.06,8.12c-10.77,1.13-21.58,2.9-31.8,6.26-7.23,2.37-17.42,6.17-19.58,14.49a11.44,11.44,0,0,0-.36,3.37v52.19c-57.16-38-116.22-53.92-164.1-41.58-18.29-27.31-32.38-57.73-56.15-81-14.88-14.57-33.27-25.92-54.15-29-22.74-3.34-45.54,2.35-66.07,12.06-21.59,10.22-40.4,25.29-59.23,39.76a536.64,536.64,0,0,1-56.68,38.47c-39.62,23.08-82.19,40.61-125.95,54.09-43.44,13.38-88,22.87-132.85,30.08-22.59,3.63-45.27,6.62-68,9.31-21.41,2.54-45,6-59.7,23.59-13.31,15.94-13.33,36.75.23,52.57,14.61,17,38.17,20.64,59.23,23a371.36,371.36,0,0,0,40,2.36c-14.55,16.36-23.17,38.45-13.34,59.77,10.84,23.51,37.06,29.48,60.94,30.54a57.46,57.46,0,0,0-4,18.91c-2,45.35,50.46,55.26,85.47,56.75a338.18,338.18,0,0,0,72.12-5c-6.11,8.23-9.08,18.16-4.9,28.78,8.7,22.11,35.87,23.49,56.07,23.31a271.7,271.7,0,0,0,79-13c-5.25,8.14-8.13,17.42-5.1,27.34,4.89,16.07,21.1,24.42,36.87,25.68,18.25,1.46,37.92-4,55.15-9.49,2.6-.84,5.2-1.72,7.78-2.64,6.29,34.67,60.3,20.95,82.94,13.84,25.58-8,49.46-20.3,72.45-34,62.21,81.32,137.27,129.24,214.29,162.73a102,102,0,0,0,80.67.4c75.14-32,140.62-81.95,200.75-163,22.93,13.65,46.75,25.89,72.25,33.87,22.64,7.09,76.66,20.84,83-13.85l.85.31c27.48,9.75,79,25.53,96.72-8.41,6.06-11.62,3.22-23-3.05-32.79a277.76,277.76,0,0,0,68.8,12.65c20.72,1.08,48.76,2.46,62.66-16.19,9.11-12.24,6.25-25.08-1.42-35.51a356.06,356.06,0,0,0,54.14,5.17c21.74.36,44.71-.24,65.28-8,17.17-6.48,33.15-16.6,37.31-35.71a55.44,55.44,0,0,0-2.88-32.17c23.9-1.06,50.17-7,61-30.55,9.83-21.32,1.21-43.4-13.34-59.77l3.55,0c23.17-.35,49.1-1.11,71.06-9.23C1860.88,980.35,1878.66,964.49,1877.71,943.26ZM872.17,595.94c5.68,5.68-3.14,14.5-8.82,8.82a60.29,60.29,0,0,1,.4-86.6c5.75-5.62,14.57,3.2,8.82,8.82A48.45,48.45,0,0,0,872.17,595.94ZM821,707.28c2.07,2.69.38,7-2.24,8.54-3.17,1.85-6.48.42-8.53-2.24-14.1-18.3-12.47-44,2.25-61.33,2.19-2.57,6.58-2.23,8.82,0,2.51,2.52,2.17,6.26,0,8.83C809.91,674.48,810.48,693.64,821,707.28ZM107.48,1051.22c-10.17-20.68,4.58-42,20.15-55.13q12.38-.5,24.7-1.71a82.45,82.45,0,0,0-18,21.71c-3.86,6.8-6.48,14.48-5.08,22.35A20.37,20.37,0,0,0,142.1,1054c3.13,1.24,6.84-1.36,7.67-4.35,1-3.55-1.21-6.43-4.36-7.67-2.91-1.16-4.16-5.53-4.07-8.56.16-5.46,3.36-10.64,6.27-15.08a71.39,71.39,0,0,1,23-21.88,5.75,5.75,0,0,0,3-4.7q20.41-3,40.49-7.68,17.28-4,34.17-9.18a38.33,38.33,0,0,0-2.89,4.93c-5,10.22-5.36,22.62,2,31.8,6.06,7.58,15.11,10.93,24.43,12-14.6,3.73-29.22,7.37-43.65,11.62-23.75,7-50.09,18.88-64.41,39.12C143.13,1074.3,117.59,1071.75,107.48,1051.22Zm520.05,183.7a208.52,208.52,0,0,1-42.07,11.23c-11.34,1.71-36.59,4.73-37.94-12.44l-.13-.91A283.58,283.58,0,0,0,578,1217.91a343.73,343.73,0,0,0,51.27-35.69c6.18-5.14-2.68-13.92-8.82-8.82-30.31,25.17-65,45.77-103,56.73-17.36,5-41.95,12.51-58.84,2.82-7.49-4.3-13-11.91-11.26-20.86,1.77-9.17,9.52-16.46,16.12-22.43a6.34,6.34,0,0,0,1.41-1.79,358,358,0,0,0,37.29-17.68c23.9-13,46.26-28.62,67.58-45.51,6.29-5-2.58-13.75-8.81-8.82-32.24,25.53-67.6,48-106.15,62.65a285.72,285.72,0,0,1-61.31,16.12,240.91,240.91,0,0,1-31.64,2.35c-10.62.09-22.65.45-32.57-4-8.95-4-15.26-12.51-11.82-22.45,3-8.59,10.38-14,17.95-18.31a457.51,457.51,0,0,0,44.55-13.11c51-17.78,96.83-47,142.05-75.93,6.74-4.31.49-15.11-6.3-10.77-37.19,23.84-74.64,47.84-115.31,65.42a406.89,406.89,0,0,1-66.2,22.09,6.17,6.17,0,0,0-3.72.77l-.31.18a367.16,367.16,0,0,1-59.79,8.7c-20.51,1.22-43,1.82-63.11-3.16-15.84-3.93-35.47-11.17-40.38-28.48-3.46-12.19-1.49-22.76,3.76-31.79a6,6,0,0,0,3-4.5c12.6-17,36.83-28,55.64-33.69,33.67-10.2,68.5-16.65,101.63-28.67a6.77,6.77,0,0,0,1.63-.85c52.38-9.49,102.38-30.06,148.47-56.4a762.4,762.4,0,0,0,78.71-52.35c6.34-4.76.13-15.6-6.29-10.77-65.71,49.29-142,93.66-224.16,108l-1,.17a319.06,319.06,0,0,1-46.21,4.55c-11.46.27-28.77-2.48-27.88-17.62.8-13.72,14-22,24.37-28.71l1.13-.9c70.8-25.94,136.72-64.71,199.86-105.66q15.39-10,30.66-20.13c6.66-4.41.42-15.22-6.29-10.77C426.24,879.27,346.24,929.79,257.21,959c-42.31,13.89-86.37,23-130.93,24.64a6.06,6.06,0,0,0-1.41.05c-2.15.07-4.31.13-6.46.16-22.84.39-46.64-.44-69-5.48C31.6,974.37,7,961,12.83,938.73c5.67-21.79,31-28.05,50.27-30.62,21.39-2.85,42.81-5.22,64.15-8.43,42.85-6.45,85.47-14.83,127.22-26.53,41.13-11.53,81.45-26.33,119.64-45.53a509,509,0,0,0,55.39-32.25c18.95-12.72,36.45-27.35,55-40.66,35.27-25.35,81.18-45.77,121.9-19.87,33,21,49.37,58.17,70,90.11A112.32,112.32,0,0,0,656,835.11a286.21,286.21,0,0,0-20.5-34.65c-9.92-14.33-20.93-29-34.54-40.06-13.09-10.64-28.79-16.65-45.82-14.86-17.43,1.84-33.49,9.65-47.73,19.57-16.88,11.76-32,25.89-50.29,35.6-7.09,3.77-.8,14.54,6.29,10.77,18.9-10.05,34.44-24.84,52.05-36.81,16.59-11.28,37.69-21.06,58.09-15.37,19.55,5.45,33.75,23.81,45.36,39.35a284.34,284.34,0,0,1,26.84,43.79c-21.88,17.61-36.49,43-44,73.48a1006.51,1006.51,0,0,1-201.41,123.19q-32.78,15.09-66.59,27.73c-7.45,2.8-4.22,14.86,3.32,12A1018.11,1018.11,0,0,0,564,959.49q17.37-12.18,34.21-25.09a234.22,234.22,0,0,0-2.34,32.34A1140,1140,0,0,1,484.69,1036c-7,3.85-.76,14.62,6.3,10.77a1140.19,1140.19,0,0,0,105.2-65.12q.46,9.48,1.59,19.26l-54.84,36c-6.68,4.39-.44,15.19,6.29,10.77l50.41-33.12a381.62,381.62,0,0,0,15.45,62.13c-7.66,6.46-15.55,12.52-23.81,18.28-2.67,1.87-4.17,5.55-2.24,8.54,1.71,2.65,5.67,4.23,8.53,2.23q11.28-7.86,21.94-16.57,6.66,18,15.19,36l-5.23,4.65a6.28,6.28,0,0,0,0,8.82,6.39,6.39,0,0,0,8.82,0l2.08-1.85a503.31,503.31,0,0,0,25.51,44.61,235.21,235.21,0,0,1-60.41,37.27c-3.11,1.31-5.34,4.12-4.36,7.67.8,2.92,4.55,5.67,7.67,4.36a255,255,0,0,0,64-38.83l.26.38q5.13,7.59,10.4,14.82C665.51,1217.85,647,1227.6,627.53,1234.92ZM962.67,465.17c29.36,7.23,53.94,30.31,62.4,59.45,11,37.93-5.25,76.07-20.41,110.28-3.25,7.33-14,1-10.77-6.3,13.5-30.47,28.57-64.78,19.69-98.71-6.8-26-28.32-46.32-54.22-52.7C951.55,475.27,954.88,463.25,962.67,465.17ZM894,728.6c-10.17-18.2-4.94-40.22,11.76-52.42,4.18-3,9,1.18,9.39,5.39.62,7.26,1.26,18.11,8.87,21.84,6.75,3.31,13.27-3.41,15.07-9.38,4.63-15.4-7.27-31.87-9.69-46.79-4.47-27.58,5.89-56.65,27.34-74.69,5.09-4.28,14,1.33,9.8,7.56-14.66,21.65.49,47.4,9.68,67.88,9,20.08,15.53,44.61,1.95,64.33-4.53,6.58-15.33.34-10.77-6.29,14.85-21.57-.21-47.38-9.42-67.85-4.9-10.89-9.07-23-9.74-35a68.14,68.14,0,0,0-7,22.47,65.86,65.86,0,0,0,1.46,24.58c2.44,9.42,6.92,18.24,8.7,27.84,2.92,15.78-2.41,35.49-20.69,38.39-8.11,1.29-15.59-2.48-20.49-8.85a32.21,32.21,0,0,1-5.62-12.2A27.74,27.74,0,0,0,901.12,711c.84,10.49,8.41,18.84,15.56,25.87,14.66,14.4,32,30,26.79,52.82-1.78,7.83-13.8,4.5-12-3.32,2.92-12.89-6.3-23.87-14.86-32.31C908.5,746.14,899.61,738.65,894,728.6Zm-27.73,80.62c2.75-2.25,6.5-3.53,9.81-4.62a146.9,146.9,0,0,1,26.47-5.86c-.38,1.22-.82,2.42-1.29,3.61-1.33,3.34,1.5,6.57,4.36,7.67,20.51,7.88,45.19,7.59,65.94,1.27,4.06-1.23,5.53-5.51,3.73-9.16a33.49,33.49,0,0,1-1.37-3.18,167.72,167.72,0,0,1,20.17,3.62,61.72,61.72,0,0,1,13.65,4.63,23.13,23.13,0,0,1,3.4,2.09l.6.6,0,0c-.89.58-1.67,1.32-2.6,1.88A44.57,44.57,0,0,1,998.53,816c-11.61,3.4-23.75,5-35.78,5.86-26.43,2-54.44,1.72-80.26-4.86a65.27,65.27,0,0,1-11.91-4,41.89,41.89,0,0,1-4.82-3.39Zm-1,15h0c11.78,5.4,25,7.4,37.76,8.93A308.31,308.31,0,0,0,955,834.82c16.52-.83,33.78-2.45,49.59-7.65a72.78,72.78,0,0,0,7.46-2.85v47a441.74,441.74,0,0,0-73.37,67.83,442.18,442.18,0,0,0-73.38-67.83ZM839.66,993.55a247.31,247.31,0,0,1,217.54,8.89c7.06,3.84.76,14.61-6.29,10.77-63-34.23-139.25-37.74-205-8.89C838.67,1007.52,832.33,996.77,839.66,993.55Zm263.21,125.08c2.57,2.56,2.15,6.22,0,8.82a198.46,198.46,0,0,1-21.43,21.48c-34.5,30.6-76.78,53.85-122.94,59.85-73.32,9.54-138.68-30-187.61-81.33l-.56-.67a5,5,0,0,1-.41-6.89,188.9,188.9,0,0,1,20.19-22.77c32-31.48,72.82-55.62,117.72-61.88C983.49,1024.69,1051.37,1067.12,1102.87,1118.63Zm-337.33-36.45c35.47-43.26,89.51-76.56,146-81.12,8-.65,8,11.83,0,12.47-53.18,4.3-103.86,36.89-137.13,77.47C769.27,1097.21,760.5,1088.33,765.54,1082.18Zm0,77.28c-5.43-5.9,3.37-14.73,8.82-8.82,36.68,39.75,87.54,65.28,141.47,70.3,7.94.74,8,13.22,0,12.48A234.83,234.83,0,0,1,765.54,1159.46Zm272.13,84.11a247.32,247.32,0,0,1-217.54-8.9c-7.06-3.83-.76-14.6,6.3-10.76,63,34.22,139.25,37.74,205,8.89C1038.67,1229.6,1045,1240.35,1037.67,1243.57Zm74.12-88.63c-35.47,43.26-89.51,76.56-145.95,81.12-8,.64-7.94-11.83,0-12.48,53.18-4.29,103.86-36.88,137.13-77.46C1108.06,1139.91,1116.84,1148.78,1111.79,1154.94Zm-8.82-68.46c-36.68-39.75-87.54-65.28-141.46-70.3-7.94-.74-8-13.22,0-12.48a234.83,234.83,0,0,1,150.28,74C1117.23,1083.56,1108.42,1092.39,1103,1086.48Zm31-236c-8,1-7.85-11.46,0-12.48,47.8-6.16,93.2,22.12,110.4,66.7,2.9,7.51-9.17,10.73-12,3.32C1217,868.29,1175.93,845.12,1134,850.53ZM1235.17,950.9c-1.5-7.86,10.52-11.2,12-3.32,12.5,65.57-.38,134.67-36.19,191.07-4.29,6.77-15.08.5-10.77-6.29C1234.19,1078.86,1247,1013.2,1235.17,950.9Zm534.68,100.32c-10,20.52-35.61,23.07-56.14,23.21a62.63,62.63,0,0,0-4.28-5.59c-13.44-15.66-33.12-24.57-52.28-31-16.66-5.63-33.73-9.92-50.79-14.21a38,38,0,0,0,17.89-6.53c10.64-7.64,13.87-20.94,9.46-33a39,39,0,0,0-4.81-9.14,512.54,512.54,0,0,0,74.84,16.93,5.76,5.76,0,0,0,3,4.68,71.29,71.29,0,0,1,23,21.88c2.85,4.34,5.87,9.28,6.25,14.59.23,3.2-1,7.83-4,9s-5.32,4.17-4.36,7.67c.82,3,4.53,5.6,7.68,4.35a20.28,20.28,0,0,0,12.72-15.19c1.51-8-1.07-15.78-5-22.74A81.87,81.87,0,0,0,1725,994.4q12.32,1.2,24.68,1.69C1765.31,1009.21,1780,1030.5,1769.85,1051.22Zm86-86.34c-15.64,15.45-42,16.56-62.67,18.06a381.38,381.38,0,0,1-41.12.74h-.44a456.26,456.26,0,0,1-98.38-14.9c-90.84-23.69-172.84-71.29-251-122q-14.42-9.36-28.73-18.88c-6.71-4.45-13,6.35-6.3,10.77,72.94,48.34,148.09,95.64,230.54,125.81l1.11.88c9.26,6,20.06,12.66,23.45,23.84,3.9,12.86-6,20.84-17.89,22.23s-24.6-.49-36.35-1.9a359.08,359.08,0,0,1-37.69-6.7c-48.66-11.21-94.61-31.65-137.41-57.15A783.47,783.47,0,0,1,1324,899c-6.43-4.82-12.65,6-6.3,10.77,44.94,33.71,92.89,63.62,145.12,84.69a420.83,420.83,0,0,0,81,23.87l1,.19a7.53,7.53,0,0,0,1.65.85c30.15,10.94,61.77,17.54,92.64,26.09,22.26,6.17,50.83,16.16,64.6,36.06a6,6,0,0,0,2.81,4.6,45,45,0,0,1,5.28,19.55c1.83,42.65-58.1,44.71-87.89,44.54a350.68,350.68,0,0,1-77.11-9.46,6.14,6.14,0,0,0-3.24-.77,435.55,435.55,0,0,1-50.3-15.49c-47-17.6-89.56-45-131.62-72-6.78-4.34-13,6.45-6.3,10.77,40.53,26,81.37,51.93,126.18,70a424.11,424.11,0,0,0,60.88,19.36c13,7.84,27.63,24.64,11.12,37.26-8.08,6.18-19,6.76-28.8,7.06a239.11,239.11,0,0,1-32.22-1.19c-42-4.35-82.34-19.64-118.78-40.6a468.81,468.81,0,0,1-57.31-39.22c-6.23-4.93-15.11,3.84-8.82,8.82,32.12,25.44,66.9,47.81,104.89,63.21a6.36,6.36,0,0,0,1.39,1.77c6.66,6,14.27,13.24,16.12,22.43,1.79,8.9-3.8,16.62-11.25,20.86-17,9.66-41.44,2.19-58.84-2.82-38-11-72.73-31.56-103-56.73-6.13-5.1-15,3.68-8.82,8.82,24.82,20.6,52.11,38.22,81.9,50.57l-.14.92c-1.31,16.71-25.42,14.2-36.6,12.63a205.64,205.64,0,0,1-43.4-11.42c-19.49-7.3-37.94-17-55.83-27.67q5.19-7.27,10.33-14.87l.25-.38a255,255,0,0,0,64,38.83c3.11,1.31,6.86-1.41,7.67-4.36,1-3.6-1.24-6.36-4.35-7.67a235.26,235.26,0,0,1-60.42-37.27,500.83,500.83,0,0,0,25.51-44.61l2.08,1.85a6.59,6.59,0,0,0,4.41,1.82,6.37,6.37,0,0,0,4.41-1.82c2.17-2.37,2.6-6.51,0-8.82l-5.22-4.65q8.52-18.06,15.19-36,10.64,8.7,21.93,16.57c2.68,1.88,7,.58,8.53-2.23a6.4,6.4,0,0,0-2.23-8.54c-8.27-5.76-16.16-11.82-23.82-18.28a381.62,381.62,0,0,0,15.45-62.13l50.41,33.12c6.73,4.42,13-6.38,6.3-10.77l-54.85-36q1.13-9.76,1.59-19.26a1140.35,1140.35,0,0,0,105.21,65.12c7,3.85,13.34-6.91,6.29-10.77a1138.61,1138.61,0,0,1-111.16-69.3,236.21,236.21,0,0,0-2.35-32.37,1015.29,1015.29,0,0,0,194.53,116.89q32.79,15,66.57,27.61c7.52,2.82,10.77-9.23,3.31-12a1005.63,1005.63,0,0,1-221.2-116.23q-23.89-16.65-46.79-34.68c-7.49-30.48-22.1-55.88-44-73.49a285.91,285.91,0,0,1,26.84-43.79c11.61-15.54,25.82-33.9,45.36-39.35,20.4-5.69,41.5,4.09,58.1,15.37,17.6,12,33.14,26.76,52,36.81,7.08,3.77,13.39-7,6.29-10.77-31.27-16.63-55-47.5-91.33-54.22-16.76-3.1-33.37.06-47.34,10s-25.08,23.89-35.21,37.68a285.32,285.32,0,0,0-25,41,112.58,112.58,0,0,0-20.59-10.24c15.53-24.09,28.47-50,48.11-71.14,13.83-14.85,30.89-26.91,51.26-30.31,22.06-3.69,45.06,3.2,64.47,13.41,20.52,10.8,38.58,25.54,56.93,39.55a513.44,513.44,0,0,0,54,36.27c36.89,21.39,76.41,38.12,116.92,51.3,41.16,13.39,83.44,23.12,126,30.59,21.2,3.72,42.5,6.87,63.84,9.65,21.1,2.74,46,2.35,64.83,13.38,8.18,4.8,15.49,12.53,17.58,22S1862.46,958.3,1855.8,964.88Z"/><path class="cls-1" d="M1439,1074.78a532.91,532.91,0,0,0,113.37,46.84c20.32,5.73,41.36,11,62.6,11.15,17.81.12,39-2.92,50.2-18.43,12.56-17.44,1.7-37.79-15.24-47-7-3.83-13.35,6.93-6.29,10.77,8.12,4.42,16.71,12.7,14.27,22.91-2.39,10-12.82,15.06-22,17.23-22.43,5.31-46.35.19-68.19-5.42A518.05,518.05,0,0,1,1445.32,1064C1438.3,1060.12,1432,1070.89,1439,1074.78Z"/><path class="cls-1" d="M1290,1082.24a583.87,583.87,0,0,0,138,81.54c7.4,3.09,10.62-9,3.32-12a562.88,562.88,0,0,1-132.55-78.33C1292.55,1068.47,1283.67,1077.24,1290,1082.24Z"/><path class="cls-1" d="M1338.72,879.42a573.84,573.84,0,0,0,177,100.87c7.59,2.68,10.85-9.37,3.32-12a556.79,556.79,0,0,1-171.52-97.66C1341.42,865.48,1332.55,874.26,1338.72,879.42Z"/><path class="cls-1" d="M1808,926.11a710.89,710.89,0,0,1-244.81-47,697.22,697.22,0,0,1-65.67-29.21c-7.15-3.61-13.47,7.14-6.3,10.77a724.59,724.59,0,0,0,243.43,73.23,713.8,713.8,0,0,0,73.35,4.69C1816,938.69,1816,926.21,1808,926.11Z"/><path class="cls-1" d="M936.88,1177a81.54,81.54,0,0,1-74.15-115.39,195.59,195.59,0,0,0-27.5,15,236.34,236.34,0,0,0-40.57,33.69c-3.81,4-7.5,8-11,12.24l-.1.13c29.09,29.74,63.38,55.69,103.62,67.88,50.88,15.43,103.61,4.44,148.3-22.85,19.67-12,39-26.84,54.48-44.24-21.82-21.32-46.13-40.91-73.21-55.11,2.77,7.59,1.64,16.79,1.64,27.16A81.5,81.5,0,0,1,936.88,1177Z"/><path class="cls-1" d="M913.63,1107h8.2l-5.8,5.8a6.24,6.24,0,1,0,8.82,8.82l5.8-5.8v25c0,8,12.47,8,12.47,0v-25c1.93,1.93,3.86,3.87,5.8,5.8a6.24,6.24,0,1,0,8.82-8.82l-5.8-5.8h8.2c8,0,8-12.47,0-12.47h-8.2l5.8-5.8a6.24,6.24,0,0,0-8.82-8.82l-5.8,5.8v-25.05c0-8-12.47-8-12.47,0v25.05l-5.8-5.8a6.24,6.24,0,0,0-8.82,8.82l5.8,5.8h-8.2C905.6,1094.49,905.59,1107,913.63,1107Z"/><polygon class="cls-1" points="666.46 601.17 657.2 582.24 647.5 601.61 628.9 610.55 648.36 619.14 657.2 638.86 667.3 619.09 685.51 610.55 666.46 601.17"/><polygon class="cls-1" points="1314.93 614.21 1305.68 595.28 1295.98 614.65 1277.37 623.59 1296.84 632.18 1305.68 651.9 1315.77 632.13 1333.99 623.59 1314.93 614.21"/><polygon class="cls-1" points="712.69 1335 703.44 1316.07 693.74 1335.44 675.13 1344.38 694.6 1352.97 703.44 1372.69 713.53 1352.93 731.75 1344.38 712.69 1335"/><polygon class="cls-1" points="1220.52 1323.36 1211.27 1304.44 1201.57 1323.81 1182.96 1332.75 1202.43 1341.33 1211.27 1361.06 1221.36 1341.29 1239.58 1332.75 1220.52 1323.36"/><polygon class="cls-1" points="1141.53 474.69 1136.15 463.69 1130.51 474.95 1119.7 480.14 1131.01 485.13 1136.15 496.6 1142.02 485.11 1152.61 480.14 1141.53 474.69"/><polygon class="cls-1" points="986.98 1428.17 981.6 1417.17 975.96 1428.43 965.15 1433.62 976.46 1438.61 981.6 1450.08 987.47 1438.59 998.05 1433.62 986.98 1428.17"/><polygon class="cls-1" points="807.62 466.98 802.24 455.98 796.6 467.24 785.79 472.43 797.1 477.42 802.24 488.88 808.11 477.39 818.7 472.43 807.62 466.98"/><polygon class="cls-1" points="916.87 1572.37 929.76 1572.37 938.88 1581.49 948 1572.37 960.89 1572.37 960.89 1559.48 970.01 1550.36 960.89 1541.24 960.89 1528.35 948 1528.35 938.88 1519.23 929.76 1528.35 916.87 1528.35 916.87 1541.24 907.75 1550.36 916.87 1559.48 916.87 1572.37"/><path class="cls-1" d="M929.23,1512.38l-.84-1.62a7.39,7.39,0,0,0-6.39-4h-.27a7.5,7.5,0,0,0-7.43,7.43v2.49h10.61Z"/><path class="cls-1" d="M820.14,1494.84a6.21,6.21,0,0,0-1.78-.2,7.54,7.54,0,0,0-7.32,6.2,9.33,9.33,0,0,0-.11,1.24,7.34,7.34,0,0,0,5.7,7.26,5.72,5.72,0,0,0,1.78.27,7.62,7.62,0,0,0,7.38-6.26,8.26,8.26,0,0,0,.11-1.22A7.38,7.38,0,0,0,820.14,1494.84Z"/><path class="cls-1" d="M786.73,1486.84a6.69,6.69,0,0,0-2.15-.33,7.48,7.48,0,0,0-7.21,5.63,8.71,8.71,0,0,0-.21,1.9,7.5,7.5,0,0,0,5.47,7.19l3.2.89v-.73a7.57,7.57,0,0,0,6.08-5.57,8.65,8.65,0,0,0,.21-1.87A7.3,7.3,0,0,0,786.73,1486.84Z"/><path class="cls-1" d="M851.44,341a7.09,7.09,0,0,0-1.1.07,7.47,7.47,0,0,0-6.38,7.36,7.39,7.39,0,0,0,.08,1.2,7.49,7.49,0,0,0,7.4,6.34c.21,0,.42,0,.75-.05l2.49,0v-.68a7.48,7.48,0,0,0,4.24-6.71,5.8,5.8,0,0,0-.07-1.09A7.4,7.4,0,0,0,851.44,341Z"/><path class="cls-1" d="M887.81,1504.79l-.7,0a7.52,7.52,0,0,0-7.48,7v.54a7.43,7.43,0,0,0,6.84,7.33l.64.06a7.62,7.62,0,0,0,7.48-6.84v-.69A7.55,7.55,0,0,0,887.81,1504.79Z"/><path class="cls-1" d="M885.91,336.89h-.58a7.45,7.45,0,0,0-6.9,7.37,4.26,4.26,0,0,0,.08.91,7.47,7.47,0,0,0,7.4,6.63h.69a7.47,7.47,0,0,0,6.8-7.43v-.74A7.46,7.46,0,0,0,885.91,336.89Z"/><path class="cls-1" d="M853.82,1500.83a7.3,7.3,0,0,0-8.57,6.16,6.27,6.27,0,0,0-.09,1.22,7.45,7.45,0,0,0,6.31,7.35,5.76,5.76,0,0,0,1.17.14,7.59,7.59,0,0,0,7.4-6.39l.09-1v-.15A7.43,7.43,0,0,0,853.82,1500.83Z"/><path class="cls-1" d="M783.54,355.3a6.52,6.52,0,0,0-2,.29,7.47,7.47,0,0,0-5.52,7.14,7.27,7.27,0,0,0,.28,2.06,7.47,7.47,0,0,0,7.2,5.47,6.34,6.34,0,0,0,2-.28,7.43,7.43,0,0,0,5.48-7.15,8.73,8.73,0,0,0-.23-2A7.46,7.46,0,0,0,783.54,355.3Z"/><path class="cls-1" d="M817.22,347.12a9.32,9.32,0,0,0-1.54.16,7.53,7.53,0,0,0-5.9,7.37,12,12,0,0,0,.15,1.52,7.52,7.52,0,0,0,7.34,5.91,10.67,10.67,0,0,0,1.57-.15,7.52,7.52,0,0,0,5.91-7.33,7.65,7.65,0,0,0-.16-1.5A7.45,7.45,0,0,0,817.22,347.12Z"/><path class="cls-1" d="M659.7,1435.38a7.67,7.67,0,0,0-10.27,2.91,7.42,7.42,0,0,0-.89,3.52,7.43,7.43,0,0,0,7.48,7.53,7.42,7.42,0,0,0,6.48-3.8,6.92,6.92,0,0,0,1-3.63A7.44,7.44,0,0,0,659.7,1435.38Z"/><path class="cls-1" d="M686,391.67a7.23,7.23,0,0,0-3.23.75,7.5,7.5,0,0,0-4.2,6.73,8.19,8.19,0,0,0,.71,3.27,7.57,7.57,0,0,0,6.77,4.22,7.36,7.36,0,0,0,3.22-.74,7.5,7.5,0,0,0,4.26-6.75,8.18,8.18,0,0,0-.73-3.21A7.44,7.44,0,0,0,686,391.67Z"/><path class="cls-1" d="M753.72,1476.74a8.21,8.21,0,0,0-2.26-.36,7.55,7.55,0,0,0-7.2,5.25,8.43,8.43,0,0,0-.33,2.24,7.48,7.48,0,0,0,5.23,7.14,8.31,8.31,0,0,0,2.25.34,7.44,7.44,0,0,0,7.07-5,6.83,6.83,0,0,0,.41-2.5A7.51,7.51,0,0,0,753.72,1476.74Z"/><path class="cls-1" d="M651.5,408.53a7.5,7.5,0,0,0,3.72,14,7.09,7.09,0,0,0,3.59-.95A7.48,7.48,0,0,0,662.7,415a7,7,0,0,0-1-3.59A7.56,7.56,0,0,0,651.5,408.53Z"/><path class="cls-1" d="M690.22,1451a7.64,7.64,0,0,0-10,3.51,7.29,7.29,0,0,0-.75,3.26,7.5,7.5,0,0,0,4.22,6.72,7.23,7.23,0,0,0,3.26.76,7.48,7.48,0,0,0,6.72-4.22,7.32,7.32,0,0,0,.77-3.31A7.46,7.46,0,0,0,690.22,1451Z"/><path class="cls-1" d="M750.27,365.48a8.18,8.18,0,0,0-2.39.39,7.48,7.48,0,0,0-5,7.09,6.33,6.33,0,0,0,.38,2.38,7.46,7.46,0,0,0,7.1,5.1,9.08,9.08,0,0,0,2.41-.38,7.5,7.5,0,0,0,5.08-7.1,7,7,0,0,0-.43-2.38A7.45,7.45,0,0,0,750.27,365.48Z"/><path class="cls-1" d="M715,378.18a7.48,7.48,0,0,0-4.71,7,7,7,0,0,0,.57,2.69A7.5,7.5,0,0,0,720.6,392a7.5,7.5,0,0,0,4.62-7,7,7,0,0,0-.54-2.74A7.51,7.51,0,0,0,715,378.18Z"/><path class="cls-1" d="M721.64,1464.86l-.06,0a7.67,7.67,0,0,0-9.8,4.26,8.43,8.43,0,0,0-.48,2.65,7.44,7.44,0,0,0,4.67,6.94,7.36,7.36,0,0,0,2.81.6,7.49,7.49,0,0,0,6.94-4.67,7.27,7.27,0,0,0,.55-2.87A7.47,7.47,0,0,0,721.64,1464.86Z"/><path class="cls-1" d="M1025.71,1515.6c.22,0,.43,0,1.09-.08a7.5,7.5,0,0,0,6.39-7.41c0-.2,0-.41-.07-1.09a7.41,7.41,0,0,0-7.41-6.39,7.14,7.14,0,0,0-1.11.07,7.48,7.48,0,0,0-6.38,7.36,6.84,6.84,0,0,0,.07,1.1A7.53,7.53,0,0,0,1025.71,1515.6Z"/><path class="cls-1" d="M1126.88,1491.2a7.16,7.16,0,0,0,2.41-.43,7.56,7.56,0,0,0,5.08-7,6.61,6.61,0,0,0-.43-2.39,7.44,7.44,0,0,0-7.06-5.1,7.08,7.08,0,0,0-2.41.39,7.48,7.48,0,0,0-5.07,7.1,6.94,6.94,0,0,0,.39,2.4A7.49,7.49,0,0,0,1126.88,1491.2Z"/><path class="cls-1" d="M1191.14,1465.06a6.85,6.85,0,0,0,3.21-.74,7.39,7.39,0,0,0,4.28-6.74,8,8,0,0,0-.69-3.21,7.66,7.66,0,0,0-10-3.53,7.5,7.5,0,0,0-4.25,6.74,7.37,7.37,0,0,0,.73,3.21A7.52,7.52,0,0,0,1191.14,1465.06Z"/><path class="cls-1" d="M989.34,351.64l.7,0a7.44,7.44,0,0,0,7.41-6.79l.07-.65a7.52,7.52,0,0,0-6.85-7.52H990a7.49,7.49,0,0,0-7.48,6.8v.58A7.51,7.51,0,0,0,989.34,351.64Z"/><path class="cls-1" d="M1155.55,391.37a7.51,7.51,0,0,0,9.76-4.08,9.13,9.13,0,0,0,.59-2.81,7.5,7.5,0,0,0-4.68-6.94,7.53,7.53,0,0,0-9.75,4.09,7.06,7.06,0,0,0-.59,2.75A7.52,7.52,0,0,0,1155.55,391.37Z"/><path class="cls-1" d="M1159.42,1479.08a6.25,6.25,0,0,0,2.81-.58,7.51,7.51,0,0,0,4.13-9.75,7.57,7.57,0,0,0-9.22-4.29l-.58.19a7.51,7.51,0,0,0-4.63,7,7.11,7.11,0,0,0,.58,2.76A7.44,7.44,0,0,0,1159.42,1479.08Z"/><path class="cls-1" d="M1247.11,438.26a7.24,7.24,0,0,0,4,1.2,7.57,7.57,0,0,0,7.53-7.6,7.5,7.5,0,0,0-13.82-3.92,7.48,7.48,0,0,0-1.19,4.11A7.59,7.59,0,0,0,1247.11,438.26Z"/><path class="cls-1" d="M1222,1449.19a7.76,7.76,0,0,0,3.66-.94,7.51,7.51,0,1,0-11.15-6.49,8,8,0,0,0,.9,3.59A7.48,7.48,0,0,0,1222,1449.19Z"/><path class="cls-1" d="M1217.5,420.8a7.13,7.13,0,0,0,3.68,1,7.49,7.49,0,0,0,3.61-14,7.6,7.6,0,0,0-10.13,2.89,7.32,7.32,0,0,0-1,3.62A7.44,7.44,0,0,0,1217.5,420.8Z"/><path class="cls-1" d="M1187,405.18a7.3,7.3,0,0,0,3.26.76,7.47,7.47,0,0,0,6.72-4.23,7.44,7.44,0,0,0-2.09-9.13v-.31l-1.51-.65a7.7,7.7,0,0,0-10,3.7,8.09,8.09,0,0,0-.65,3.13A7.38,7.38,0,0,0,1187,405.18Z"/><path class="cls-1" d="M1023.31,355.55a6.08,6.08,0,0,0,1.25.1,7.42,7.42,0,0,0,7.33-6.26,5.64,5.64,0,0,0,.1-1.22,7.49,7.49,0,0,0-6.26-7.39,4.93,4.93,0,0,0-1.12-.1,7.55,7.55,0,0,0-7.55,6.9l0,.63A7.35,7.35,0,0,0,1023.31,355.55Z"/><path class="cls-1" d="M1057.33,361.61a9.57,9.57,0,0,0,1.4.12,7.58,7.58,0,0,0,7.36-6.13,9.73,9.73,0,0,0,.13-1.35,7.54,7.54,0,0,0-5.89-7.31,6.21,6.21,0,0,0-1.65-.17,7.55,7.55,0,0,0-7.32,6.19,9.63,9.63,0,0,0-.11,1.24A7.59,7.59,0,0,0,1057.33,361.61Z"/><path class="cls-1" d="M630.11,1417.88a7.63,7.63,0,0,0-10.31,2.27,7.41,7.41,0,0,0,2.32,10.35,7.54,7.54,0,0,0,4,1.13,7.63,7.63,0,0,0,6.38-3.51,7.82,7.82,0,0,0,1.1-4A7.45,7.45,0,0,0,630.11,1417.88Z"/><path class="cls-1" d="M991.18,1519.69l.64-.06a7.46,7.46,0,0,0,6.85-7.47v-.64a7.47,7.47,0,0,0-7.43-6.8h-.69a7.44,7.44,0,0,0-6.79,7.37v.76A7.47,7.47,0,0,0,991.18,1519.69Z"/><path class="cls-1" d="M1123.28,379.44a7.16,7.16,0,0,0,2.46.45,7.41,7.41,0,0,0,7-5,6.54,6.54,0,0,0,.44-2.54,7.42,7.42,0,0,0-5.07-7,6.89,6.89,0,0,0-2.41-.39,7.38,7.38,0,0,0-7,5,6.8,6.8,0,0,0-.47,2.52A7.57,7.57,0,0,0,1123.28,379.44Z"/><path class="cls-1" d="M1093.66,1501.33a8.65,8.65,0,0,0,2-.25,7.62,7.62,0,0,0,5.48-7.18,6.43,6.43,0,0,0-.28-2,7.46,7.46,0,0,0-7.2-5.55,8.34,8.34,0,0,0-1.94.24,7.46,7.46,0,0,0-5.55,7.2,6.43,6.43,0,0,0,.29,2A7.47,7.47,0,0,0,1093.66,1501.33Z"/><path class="cls-1" d="M1251.86,1431.53a7.48,7.48,0,0,0,7.48-7.48,7.89,7.89,0,0,0-1.13-4,7.73,7.73,0,0,0-10.32-2.32,7.5,7.5,0,0,0,4,13.83Z"/><path class="cls-1" d="M1090.61,369.54a7.3,7.3,0,0,0,1.9.28,7.44,7.44,0,0,0,7.15-5.4,6.06,6.06,0,0,0,.33-2,7.53,7.53,0,0,0-5.54-7.3l-.1,0a7.52,7.52,0,0,0-9.12,5.4,9.41,9.41,0,0,0-.2,1.92A7.47,7.47,0,0,0,1090.61,369.54Z"/><path class="cls-1" d="M1059.88,1509.46a10.55,10.55,0,0,0,1.57-.15,7.53,7.53,0,0,0,5.92-7.33,9.48,9.48,0,0,0-.16-1.53,7.47,7.47,0,0,0-8.82-5.81h0a7.46,7.46,0,0,0-6,7.38,10.22,10.22,0,0,0,.15,1.52A7.44,7.44,0,0,0,1059.88,1509.46Z"/><path class="cls-1" d="M621.36,426.43a7.64,7.64,0,0,0-3.51,6.3,7.58,7.58,0,0,0,7.49,7.53,7.28,7.28,0,0,0,4-1.19,7.52,7.52,0,0,0,3.45-6.54,7.14,7.14,0,0,0-1.14-3.78A7.58,7.58,0,0,0,621.36,426.43Z"/><path class="cls-1" d="M420.33,654.32h0a7.58,7.58,0,0,0-10,3.18,6.88,6.88,0,0,0-.88,3.42,7.45,7.45,0,0,0,7.49,7.55,7.56,7.56,0,0,0,6.7-4.13,7.83,7.83,0,0,0,.78-3.3A7.51,7.51,0,0,0,420.33,654.32Z"/><path class="cls-1" d="M405,685.55a7.07,7.07,0,0,0-3-.63,7.47,7.47,0,0,0-3,14.3,7.18,7.18,0,0,0,3,.67,7.52,7.52,0,0,0,6.85-4.43,7.31,7.31,0,0,0,.63-3.1A7.49,7.49,0,0,0,405,685.55Z"/><path class="cls-1" d="M923.26,343a41.85,41.85,0,0,1-6.26-3.35l-2.94-1.89-.83,3.4a5.26,5.26,0,0,0-.12,1.38,7.5,7.5,0,0,0,7.53,7.24h.2a7.3,7.3,0,0,0,4.8-2l3-2.77-3.81-1.39C924.29,343.4,923.81,343.22,923.26,343Z"/><path class="cls-1" d="M391.51,717.6h0a7.65,7.65,0,0,0-9.51,4.31,6.59,6.59,0,0,0-.58,2.73,7.55,7.55,0,0,0,.42,2.42q5.84-3.9,11.83-8.19A7.64,7.64,0,0,0,391.51,717.6Z"/><path class="cls-1" d="M537.78,1355.92h0a7.48,7.48,0,0,0,.5,10.51,7.28,7.28,0,0,0,5.06,2,7.67,7.67,0,0,0,5.55-2.43,7.55,7.55,0,0,0,1.93-5,7.46,7.46,0,0,0-13-5Z"/><path class="cls-1" d="M537.66,490.54a7.64,7.64,0,0,0-2.38,5.5,7.51,7.51,0,0,0,7.49,7.48,7.85,7.85,0,0,0,5.12-2,7.62,7.62,0,0,0,2.36-5.54,7.33,7.33,0,0,0-2-5.06A7.63,7.63,0,0,0,537.66,490.54Z"/><path class="cls-1" d="M513.19,1331.41a7.58,7.58,0,0,0-2.3,5.28,7.49,7.49,0,1,0,15,0,7.24,7.24,0,0,0-2.13-5.1A7.55,7.55,0,0,0,513.19,1331.41Z"/><path class="cls-1" d="M564.36,467.5a7.53,7.53,0,0,0-2.83,5.79,7.69,7.69,0,0,0,1.73,4.79,7.5,7.5,0,0,0,5.75,2.74,7.58,7.58,0,0,0,4.74-1.69,7.55,7.55,0,0,0,1.07-10.58A7.67,7.67,0,0,0,564.36,467.5Z"/><path class="cls-1" d="M512.47,515.08a7.48,7.48,0,0,0-2.08,5.26,7.35,7.35,0,0,0,2.28,5.3,7.55,7.55,0,0,0,5.21,2.08,7.36,7.36,0,0,0,5.3-2.23,7.47,7.47,0,1,0-10.71-10.41Z"/><path class="cls-1" d="M601.65,1398.68a7.68,7.68,0,0,0-10.48,1.69l0,0a7.93,7.93,0,0,0-1.39,4.54,7.48,7.48,0,0,0,13.57,4.14,7.51,7.51,0,0,0,1.4-4.43A7.31,7.31,0,0,0,601.65,1398.68Z"/><path class="cls-1" d="M563.82,1379a7.51,7.51,0,0,0-1.65,4.74,7.31,7.31,0,0,0,2.69,5.65,7.11,7.11,0,0,0,4.8,1.78,7.53,7.53,0,0,0,7.48-7.53,7.5,7.5,0,0,0-2.74-5.76A7.74,7.74,0,0,0,563.82,1379Z"/><path class="cls-1" d="M592.27,446.11a7.47,7.47,0,0,0,4.33,13.56,8,8,0,0,0,4.47-1.42,7.73,7.73,0,0,0,3-6,7.51,7.51,0,0,0-1.4-4.43C600.37,444.57,595.16,443.9,592.27,446.11Z"/><path class="cls-1" d="M456.5,595A7.7,7.7,0,0,0,446,597a7.56,7.56,0,0,0-1.25,4.15,7.47,7.47,0,0,0,13.7,4.12,7.45,7.45,0,0,0-2-10.3Z"/><path class="cls-1" d="M437.51,624.1l0,0a7.53,7.53,0,0,0-10.17,2.6,7.34,7.34,0,0,0-1.08,4,7.53,7.53,0,0,0,3.72,6.34,7.71,7.71,0,0,0,3.77,1,7.45,7.45,0,0,0,6.44-3.67,7.63,7.63,0,0,0,1-3.87A7.42,7.42,0,0,0,437.51,624.1Z"/><path class="cls-1" d="M477.1,567a7.81,7.81,0,0,0-10.49,1.39,7.32,7.32,0,0,0-1.57,4.52,7.49,7.49,0,0,0,3,6,7.47,7.47,0,0,0,10.53-1.49,7.72,7.72,0,0,0,1.48-4.56A7.44,7.44,0,0,0,477.1,567Z"/><path class="cls-1" d="M488.73,541a7.47,7.47,0,0,0,.84,10.55,7.55,7.55,0,0,0,10.51-.75,7.48,7.48,0,0,0-.8-10.6A7.69,7.69,0,0,0,488.73,541Z"/><path class="cls-1" d="M1275.59,457.45l.7.47h.07a7.22,7.22,0,0,0,3.64.95,7.43,7.43,0,0,0,6.06-3.13,7.69,7.69,0,0,0,1.42-4.53,7.46,7.46,0,0,0-3.15-5.95l-3.93-2.77v1.43a7.43,7.43,0,0,0-7.88,7.57A7.44,7.44,0,0,0,1275.59,457.45Z"/><path class="cls-1" d="M961.55,1516.69l2.59-.1L964,1514a7.51,7.51,0,0,0-7.74-7.24,7.33,7.33,0,0,0-6.65,4.61l-.61,1.53,3.79,3.78Z"/><path class="cls-1" d="M954.49,343c-.9.38-1.79.71-2.74,1L947,345.66l4.18,2.78a7.79,7.79,0,0,0,4,1.27h.1a7.59,7.59,0,0,0,7.46-6.54l.74-5.24L959,340.7A31.65,31.65,0,0,1,954.49,343Z"/><path class="cls-1" d="M1468.23,693.83a7.41,7.41,0,0,0,6.84,4.52,7.11,7.11,0,0,0,3-.66,7.47,7.47,0,0,0,4.45-7,6.59,6.59,0,0,0-.62-2.81,7.7,7.7,0,0,0-9.85-3.82,7.55,7.55,0,0,0-4.49,6.78A7.39,7.39,0,0,0,1468.23,693.83Z"/><path class="cls-1" d="M1495.2,720.27a7.39,7.39,0,0,0-9.61-4.31,7.28,7.28,0,0,0-3,2.19c3.21,2.34,6.39,4.63,9.53,6.76.84.57,1.72,1.11,2.57,1.68a7.46,7.46,0,0,0,1-3.65A7.92,7.92,0,0,0,1495.2,720.27Z"/><path class="cls-1" d="M1334,502.57a7.43,7.43,0,0,0,7.49-7.48,7.53,7.53,0,0,0-2.48-5.55,7.68,7.68,0,0,0-10.56.54,7.48,7.48,0,0,0,.49,10.52A7.35,7.35,0,0,0,1334,502.57Z"/><path class="cls-1" d="M1404.37,579.26a7.52,7.52,0,1,0-5.93-2.89A7.61,7.61,0,0,0,1404.37,579.26Z"/><path class="cls-1" d="M1382.42,552.32a7.49,7.49,0,0,0,7.48-7.7,7.45,7.45,0,0,0-12.31-5.45,7.46,7.46,0,0,0-2.65,5.92,7.8,7.8,0,0,0,1.81,4.67A7.48,7.48,0,0,0,1382.42,552.32Z"/><path class="cls-1" d="M1307.63,479.93a7.45,7.45,0,0,0,7.49-7.54,7.47,7.47,0,0,0-2.74-5.75,7.75,7.75,0,0,0-10.59,1.11,7.6,7.6,0,0,0-1.64,4.74,7.49,7.49,0,0,0,2.75,5.76A7.39,7.39,0,0,0,1307.63,479.93Z"/><path class="cls-1" d="M1460.1,667.06a8.25,8.25,0,0,0,3.47-.83,7.53,7.53,0,0,0,4-6.65,8.08,8.08,0,0,0-.84-3.47,7.49,7.49,0,0,0-14.13,3.47,7.91,7.91,0,0,0,.84,3.46A7.5,7.5,0,0,0,1460.1,667.06Z"/><path class="cls-1" d="M1308.24,1391a7.11,7.11,0,0,0,4.69-1.68,7.44,7.44,0,0,0,2.79-5.75,7.55,7.55,0,0,0-1.64-4.75,7.74,7.74,0,0,0-10.58-1.11h0a7.48,7.48,0,0,0-2.75,5.76,7.46,7.46,0,0,0,7.49,7.53Z"/><path class="cls-1" d="M1443.24,636.73a7.83,7.83,0,0,0,3.9-1.07,7.62,7.62,0,0,0,3.58-6.61,7.46,7.46,0,0,0-1-3.62,7.64,7.64,0,0,0-10.28-2.63,7.48,7.48,0,0,0-3.68,6.4,7.58,7.58,0,0,0,7.48,7.53Z"/><path class="cls-1" d="M1280.65,1412.12a7.49,7.49,0,0,0,6-11.9,7.67,7.67,0,0,0-10.33-1.74l0,0a7.46,7.46,0,0,0-1.75,10.46A7.42,7.42,0,0,0,1280.65,1412.12Z"/><path class="cls-1" d="M1334.53,1368.32a7.43,7.43,0,0,0,5.1-2,7.49,7.49,0,0,0-10.11-11h0a7.44,7.44,0,0,0-2.47,5.59,7.43,7.43,0,0,0,7.49,7.43Z"/><path class="cls-1" d="M1424.68,607.4a7.27,7.27,0,0,0,4.19-1.28,7.6,7.6,0,0,0,3.29-6.21,7.19,7.19,0,0,0-1.3-4.11,7.74,7.74,0,0,0-10.34-2.07,7.52,7.52,0,0,0-2,10.42A7.49,7.49,0,0,0,1424.68,607.4Z"/><path class="cls-1" d="M1358.93,526.72a7.44,7.44,0,0,0,7.48-7.58,7.24,7.24,0,0,0-2.13-5.1,7.61,7.61,0,0,0-10.62-.1,7.85,7.85,0,0,0-2.22,5.25,7.24,7.24,0,0,0,2.18,5.3A7.45,7.45,0,0,0,1358.93,526.72Z"/><path class="cls-1" d="M1359.42,1344.12a7.45,7.45,0,0,0,7.54-7.62,7.47,7.47,0,0,0-2.28-5.16,7.6,7.6,0,0,0-10.56.09,7.5,7.5,0,0,0,.1,10.57A7.29,7.29,0,0,0,1359.42,1344.12Z"/><path class="cls-1" d="M985.81,1543.89l-5.42.41,6.11,6.11-2.88,3,6.51-.53c145.85-11.84,283.85-75.25,388.61-178.55a629.24,629.24,0,0,0,51.26-57.19,128.2,128.2,0,0,1-15.6,2.67C1309.91,1446.07,1156.72,1531,985.81,1543.89Z"/><path class="cls-1" d="M887.61,1552.91l6.47.48-2.84-3,6.12-6.11-5.42-.41c-172.32-13-325.52-97.92-429.66-224.39a121.39,121.39,0,0,1-14.82-2.66A629.46,629.46,0,0,0,492.68,1368C598.28,1475.12,738.54,1540.79,887.61,1552.91Z"/><path class="cls-1" d="M1375.84,479.27c-106.57-103.76-246.57-166.41-394.21-176.4l-3.43-.37.81,3.31,2.4.19H979c0,1.18,0,2.36-.14,3.53l-.21,2.53,2.52.17c256.68,17.42,473.71,196.26,547.82,435,3.85,2.08,7.77,4.1,11.71,6.08A628.38,628.38,0,0,0,1375.84,479.27Z"/><path class="cls-1" d="M896.61,312.24l2.51-.17-.2-2.52c-.08-1.17-.13-2.34-.13-3.7l.78-3.21-3.4.23c-265.63,17.95-486.84,203-559.11,450.25,3.92-2,7.79-4,11.58-6C422.36,508,638.17,329.8,896.61,312.24Z"/><path class="cls-1" d="M109.56,1345.18l4.56,8.94,174.13-88.73a107.05,107.05,0,0,1-10.36-6Z"/><path class="cls-1" d="M252.84,786.85c65.58-318.67,348.28-559,686.06-559S1559.5,468.28,1625,787.05c3.55,1.1,7.2,2.17,10.83,3.24-1.1-5.53-2.27-11.14-3.57-16.92l-2.24-9.64c-3.62-15.48-7.9-31-13.08-47.53l-3-9.34c-1.86-5.79-4-11.86-6.36-18.55q-3.3-9-6.77-18c-.28-.7-.56-1.45-.89-2.34-2.16-5.35-4.31-10.66-6.55-15.94-1.26-3-2.56-6-3.87-9-2.6-5.91-5.3-11.82-8.06-17.63q-3.66-7.65-7.44-15.19l194.24-98.94-4.57-8.93L1569.44,601.3c-2.69-5.16-5.42-10.28-8.24-15.39l-4.89-8.68c-4.47-7.9-9.36-16.09-14.45-24.23a11.72,11.72,0,0,0-.87-1.36c-3.5-5.61-7.14-11.22-10.8-16.66-1.82-2.76-3.67-5.53-5.57-8.22-6.87-10.08-14.21-20.21-21.84-30.11l-2.09-2.69c-8-10.29-16.2-20.33-24.45-29.79-2.12-2.57-4.33-5-6.55-7.51s-4.4-4.9-6.64-7.34c-7.15-7.9-14.58-15.69-22.09-23.15-3.87-3.87-7.85-7.7-11.81-11.52l-1-.9q-3.42-3.25-6.94-6.49c-4.55-4.26-9.21-8.42-13.84-12.5-2.78-2.52-5.55-4.94-8.35-7.24q-7.5-6.37-15.15-12.6l-.74-.56c-4.29-3.49-8.57-6.87-12.92-10.21l131.27-174.23-8-6L1362.22,358.1a723.76,723.76,0,0,0-80.33-51.84c-2.85-1.55-5.7-3.1-8.6-4.65s-5.54-2.91-8.32-4.35l-1.14,2.22.41-2.6c-2.39-1.24-4.78-2.49-7.16-3.67-3.45-1.76-7-3.51-10.47-5.22-8.77-4.21-17.74-8.28-26.64-12.11q-9.09-3.92-18.27-7.61c-9.51-3.82-18.91-7.34-28-10.47-3.14-1.1-6.31-2.2-9.46-3.25-6.3-2.1-12.61-4.16-19-6.11-21.79-6.64-44-12.24-65.9-16.64L1120.93,18l-9.84-1.89-41.61,213.74c-15.29-2.83-31-5.2-46.62-7.05-8.57-1-16.94-1.88-24.92-2.51l-8.33-.65c-2.91-.2-5.86-.4-8.76-.55l-16.47-.8c-15.35-.54-30.82-.6-46-.15-6.6.2-13.17.45-19.7.85-12.79.68-26.16,1.8-39.7,3.36l-.67.07c-3,.33-6.14.66-9.17,1.08-6.1.8-12.2,1.65-18.19,2.54-.85.11-1.76.27-2.66.43-2.81.45-5.62.89-8.44,1.39-6.4,1.1-12.86,2.25-19.2,3.5-3.41.65-6.88,1.35-10.29,2.11L784,234.89,735,22.7l-9.82,2.18,49,212.26c-2.84.67-5.64,1.35-8.44,2.09-9.45,2.35-18.9,4.93-28.09,7.66-12.93,3.84-25.73,8-38,12.46-3.18,1.1-6.28,2.26-9.44,3.46s-6.21,2.36-9.56,3.67c-3,1.17-6,2.33-9.26,3.67l-.73.28c-2.75,1.15-5.45,2.3-8.12,3.44-6.23,2.59-12.53,5.36-18.69,8.21-2.86,1.31-5.67,2.62-8.45,4-3,1.4-6,2.85-8.88,4.29-1.63.76-3.25,1.57-4.8,2.37-1.86.93-3.67,1.85-5.9,3-5.22,2.63-10.49,5.42-15.64,8.27l-1.86,1c-2.27,1.25-4.52,2.49-6.79,3.78A711.7,711.7,0,0,0,496,373.25L358.66,203.73,350.81,210l137.32,169.6c-5.12,4.19-9.67,8.05-13.84,11.73s-8.57,7.47-12.77,11.32c-2.11,1.91-4.22,3.82-6.26,5.76s-4.16,3.9-6.21,5.86l-12.19,11.89q-3.11,3-6,6.08c-3.82,3.93-7.6,7.94-11.37,12l-.37.39c-3.72,3.91-7.48,8.05-11.48,12.63-3.8,4.26-7.51,8.56-11.15,12.84-2.41,2.77-4.72,5.59-7,8.43-3.11,3.77-6.22,7.63-9.21,11.47-1.76,2.21-3.52,4.47-5.2,6.7-1.24,1.59-2.45,3.2-3.65,4.8l-1.75,2.32c-1.08,1.42-2.16,2.83-3.2,4.28l-1.78,2.46c-1,1.34-1.95,2.68-2.89,4-2,2.67-3.87,5.38-5.69,8-.82,1.12-1.64,2.3-2.45,3.51l-.83,1.24c-2.17,3.18-4.34,6.37-6.42,9.49-.53.75-1,1.5-1.44,2.21-3.05,4.61-6,9.22-8.91,13.88-5.77,9.2-11.46,18.82-16.92,28.58q-4.51,8-8.74,16c-.27.48-.54,1-.78,1.51-1.36,2.58-2.67,5.16-4,7.74l-.55,1.09c-1.3,2.47-2.52,5-3.73,7.44l-.73,1.49c-1.13,2.26-2.24,4.52-3.31,6.78L99.74,531.39l-4.26,9.11L293,632.6l-2.77,6c-1.3,3-2.6,5.91-3.85,8.83-1,2.34-2,4.72-3,7.07l-.66,1.56c-1.2,2.91-2.4,5.81-3.54,8.68s-2.37,5.89-3.47,8.79c-7.05,18.34-13.27,36.65-18.48,54.45l-.85,3c-.54,1.82-1.07,3.64-1.54,5.43-1.45,5.1-2.85,10.31-4.22,15.51l-1.86,7.61c-.7,2.83-1.39,5.66-2,8.53-1.6,6.91-3.17,14.21-4.74,22.11,2.57-.76,5.15-1.5,7.68-2.28C250.74,787.53,251.77,787.18,252.84,786.85Z"/><path class="cls-1" d="M938.9,1628.65c-258.71,0-485.1-141-606.38-350.19-4.37-.58-8.62-1.25-12.62-2.1,5.85,10.39,12,20.83,18.55,31.13,1.21,1.91,2.41,3.82,3.66,5.71a708.67,708.67,0,0,0,46.7,64c1.91,2.37,3.9,4.74,5.86,7.08l.45.53c7.4,8.9,15.46,18,23.94,27.05,1.72,1.85,3.44,3.67,5.17,5.48l12.6,12.94c10.05,10.09,20.69,20.1,31.61,29.71,1.92,1.77,3.89,3.49,5.84,5.13,9.45,8.24,18.41,15.63,27.38,22.59,1.82,1.42,3.66,2.83,5.48,4.23l.42.32L376.23,1666.51l8,6,131.29-174.2c8.86,6.64,17.77,13,26.54,18.81,2.33,1.59,4.67,3.18,7,4.7,1.65,1.11,3.31,2.21,5,3.31,2.47,1.61,4.94,3.17,7.37,4.66,8.65,5.48,17.38,10.73,26.7,16,2.55,1.46,5,2.86,7.61,4.26,2.9,1.6,5.75,3.15,8.64,4.7s5.72,3.06,8.53,4.49q4.47,2.42,8.95,4.57c5.65,2.86,11.36,5.61,17,8.28.22.11.48.22.78.34q9,4.2,18.07,8.11c3,1.3,6.07,2.61,9.13,3.86l9.14,3.75c8.35,3.37,17.19,6.7,26.77,10a4.24,4.24,0,0,0,1.18.42c3.15,1.1,6.31,2.2,9.46,3.25s6.31,2.1,9.48,3.11l9.56,3c6.4,1.9,12.8,3.75,19.27,5.56s13,3.4,19.46,5c9.49,2.32,18.41,4.31,27.21,6.07l-41.62,213.8,9.89,1.88,41.57-213.73c15.34,2.84,31,5.21,46.66,7.05,8.76,1.06,16.88,1.88,24.87,2.51l8.35.64c2,.17,4.09.3,6.16.42l19.1.94c15.29.55,30.79.59,46,.15,6.61-.2,13.17-.45,19.71-.85,12.72-.67,26.07-1.8,39.65-3.36,3.27-.34,6.49-.74,9.82-1.15,21.76-2.71,43.67-6.54,65.17-11.37l49,212.2,9.8-2.28-49-212.17c2.53-.59,5.05-1.21,7.59-1.85,9.42-2.33,19.17-5,28.95-7.91l9.8-3c3.08-1,6.18-2,9.32-3s6.37-2.1,9.49-3.2,6.34-2.16,9.42-3.3c8.62-3,17.76-6.52,28-10.68,6.1-2.5,12.21-5.1,18.28-7.76l9-4c6-2.75,12-5.61,17.85-8.5,1.9-.91,3.77-1.85,5.65-2.8l1.83-.91c6.36-3.21,12.62-6.51,18.88-9.92,5.75-3.15,11.47-6.41,17.18-9.71s11.31-6.66,16.86-10.11a684.75,684.75,0,0,0,56.61-39c4.56-3.41,9.07-6.94,13.55-10.51l137.32,169.55,7.74-6.36-137.3-169.53c1.91-1.58,3.81-3.16,5.68-4.73,7.26-6.05,14.78-12.64,22.35-19.58,2.4-2.2,4.8-4.45,7.2-6.7s4.82-4.52,7.15-6.81,4.77-4.61,7.06-6.91c4.66-4.61,9.21-9.26,13.7-14,2.38-2.42,4.69-4.89,6.93-7.37s4.34-4.73,6.67-7.32,4.4-4.91,6.52-7.33c2.92-3.22,5.74-6.49,8.5-9.81,3.51-4.2,7-8.39,10.45-12.64,5.9-7.26,11.92-15,18.38-23.78,5.62-7.54,11.24-15.46,16.5-23.31a13.07,13.07,0,0,0,1.07-1.53c8.93-13.11,17.67-27.06,26-41.45,1.35-2.31,2.65-4.65,4-7-4.12.89-8.34,1.64-12.71,2.21C1423.66,1487.84,1197.42,1628.65,938.9,1628.65Z"/><path class="cls-1" d="M1613.05,1248.15l165,76.94,4.26-9.11-162-75.51A103.38,103.38,0,0,1,1613.05,1248.15Z"/><rect class="cls-1" x="933.86" y="160.02" width="10.04" height="41.92"/><rect class="cls-1" x="933.86" y="1649.41" width="10.04" height="140.39"/><rect class="cls-1" x="933.86" width="10.04" height="91.15"/><rect class="cls-1" x="546.93" y="89.33" width="10.04" height="91.15" transform="translate(-3.28 255.63) rotate(-26)"/><rect class="cls-1" x="1280.77" y="1569.32" width="10.04" height="140.39" transform="translate(-588.6 729.61) rotate(-26)"/><rect class="cls-1" x="606.28" y="235.64" width="10.04" height="41.92" transform="translate(-50.62 293.9) rotate(-26)"/><rect class="cls-1" x="345.02" y="447.21" width="10.04" height="41.92" transform="translate(-234.39 455.77) rotate(-52)"/><rect class="cls-1" x="1557.47" y="1345.26" width="10.04" height="140.39" transform="translate(-514.87 1775.27) rotate(-52)"/><rect class="cls-1" x="238.32" y="339.24" width="10.04" height="91.15" transform="translate(-209.71 339.65) rotate(-52)"/><rect class="cls-1" x="70.49" y="699.14" width="10.04" height="91.16" transform="translate(-668.63 663.76) rotate(-78)"/><rect class="cls-1" x="202.93" y="751.91" width="10.04" height="41.92" transform="translate(-591.3 814.91) rotate(-77.95)"/><path class="cls-1" d="M78.87,1137.49,37,1147.92l2.42,9.74,49-12.22c-.39-1.15-.8-2.29-1.15-3.46C84.33,1140.56,81.56,1139.05,78.87,1137.49Z"/><rect class="cls-1" x="1636.55" y="731.76" width="140.38" height="10.03" transform="translate(-127.55 434.8) rotate(-14)"/><rect class="cls-1" x="345.49" y="1403.54" width="41.92" height="10.04" transform="translate(-819.72 565.17) rotate(-40)"/><rect class="cls-1" x="1474.91" y="414.53" width="140.39" height="10.04" transform="translate(91.82 1091.35) rotate(-40)"/><rect class="cls-1" x="217.15" y="1490.57" width="91.15" height="10.04" transform="translate(-899.67 518.53) rotate(-39.99)"/><rect class="cls-1" x="534.3" y="1729.56" width="91.15" height="10.04" transform="translate(-1240.64 1559.21) rotate(-66.01)"/><rect class="cls-1" x="613.99" y="1605.87" width="41.91" height="10.04" transform="translate(-1094.94 1536.12) rotate(-66.01)"/><rect class="cls-1" x="1190.57" y="200.26" width="140.39" height="10.04" transform="translate(560.63 1273.67) rotate(-66.01)"/><path class="cls-1" d="M461.3,468a4.81,4.81,0,0,0-3.11,8.23,4.65,4.65,0,0,0,3.35,1.38,4.94,4.94,0,0,0,3.56-1.53,5.14,5.14,0,0,0,1.28-3.56,4.88,4.88,0,0,0-1.52-3.21A5.07,5.07,0,0,0,461.3,468Z"/><path class="cls-1" d="M439,490.31c-5.43,6.21-10.16,11.78-14.26,16.83l-.83.77v.19c-5.8,7.14-11.51,14.44-17,21.72a4.85,4.85,0,0,0,1,6.73,4.71,4.71,0,0,0,2.89,1,5,5,0,0,0,3.83-1.89l.31-.41c5.61-7.51,11.29-14.76,16.89-21.56,5-6,9.67-11.6,14.45-17a4.88,4.88,0,0,0,1.15-3.54,4.78,4.78,0,0,0-1.65-3.24A4.91,4.91,0,0,0,439,490.31Z"/><path class="cls-1" d="M393.59,548.19a4.87,4.87,0,0,0-.79,2.63,4.88,4.88,0,0,0,4.84,4.89,4.8,4.8,0,0,0,4.79-4.79,4.79,4.79,0,0,0-2.06-4A4.93,4.93,0,0,0,393.59,548.19Z"/><path class="cls-1" d="M594.06,360c-6.42,3.92-12.84,8-19.08,12-8,5.25-15.8,10.63-23.21,16a4.77,4.77,0,0,0-2,3.12,4.46,4.46,0,0,0,.73,3.46,4.68,4.68,0,0,0,4,2.2,4.77,4.77,0,0,0,2.81-.92c7.42-5.34,15.13-10.64,22.9-15.75,6-3.9,12.31-7.9,18.82-11.87a4.73,4.73,0,0,0,2.2-3,4.79,4.79,0,0,0-.6-3.68A4.9,4.9,0,0,0,594.06,360Z"/><path class="cls-1" d="M688.09,314.05a4.68,4.68,0,0,0-3.6,0c-7.89,3.3-14.65,6.25-20.67,9-8.92,4.05-17.46,8.16-25.33,12.2a4.65,4.65,0,0,0-2.43,2.7,4.87,4.87,0,0,0,.22,3.76,4.81,4.81,0,0,0,4.32,2.67,5,5,0,0,0,2.18-.52c8.62-4.39,17.05-8.45,25.05-12.07,6.51-3,13.37-5.94,20.45-8.88a5,5,0,0,0,2.51-2.55,4.73,4.73,0,0,0,0-3.76A4.93,4.93,0,0,0,688.09,314.05Z"/><path class="cls-1" d="M624.21,346.68l.61-.66h-1.43a5.13,5.13,0,0,0-1.24-.56,4.76,4.76,0,0,0-3.66.37l-9,5.18h6.6a4.88,4.88,0,0,0,.43,1.27l0,0a4.82,4.82,0,0,0,9.09-2.26,5,5,0,0,0-1.43-3.38Z"/><path class="cls-1" d="M714.82,304.16l-.33-.17a4.84,4.84,0,0,0-3.73-.16l-13.88,5.32h10.85a4.31,4.31,0,0,0,.21.8,4.78,4.78,0,0,0,4.51,3.19,5.05,5.05,0,0,0,1.14-.1l.62-.17a4.82,4.82,0,0,0,3.08-4.52,4.62,4.62,0,0,0-.29-1.62,5,5,0,0,0-.67-1.24l1.65-1.33Z"/><path class="cls-1" d="M537.09,400.54a4.51,4.51,0,0,0-3.35.88,4.8,4.8,0,0,0-2,4.16,5.4,5.4,0,0,0,1,2.73,4.93,4.93,0,0,0,3.78,1.82,4.8,4.8,0,0,0,3-1.06,4.79,4.79,0,0,0,.82-6.68A4.77,4.77,0,0,0,537.09,400.54Z"/><path class="cls-1" d="M511.58,419.2c-5.06,4.25-10.62,9.09-17,14.82-6.69,6-13.61,12.52-20.6,19.35a5.15,5.15,0,0,0-1.48,3.41,4.87,4.87,0,0,0,4.84,4.83,5.12,5.12,0,0,0,3.4-1.36c6.59-6.49,13.41-12.91,20.27-19.08,5.75-5.14,11.43-10.06,16.86-14.62a4.84,4.84,0,0,0,.5-6.85A5,5,0,0,0,511.58,419.2Z"/><path class="cls-1" d="M305.24,756.34a4.78,4.78,0,0,0-2.87-2.18,4.85,4.85,0,0,0-6,3.41c-1.28,4.78-2.56,10-3.84,15.34,3.72-1.46,7.38-3,11-4.48.73-2.92,1.46-5.74,2.18-8.43A4.94,4.94,0,0,0,305.24,756.34Z"/><path class="cls-1" d="M310.32,727.26a4.73,4.73,0,0,0-3.72.32,4.39,4.39,0,0,0-2.2,2.5,3.9,3.9,0,0,0-.41,1.74,5,5,0,0,0,3.78,4.72,5.3,5.3,0,0,0,1.06.12,4.83,4.83,0,0,0,4.66-3.49,5.46,5.46,0,0,0,.18-1.35A4.84,4.84,0,0,0,310.32,727.26Z"/><path class="cls-1" d="M348.37,633.53a4.91,4.91,0,0,0-6.28,2l-.18.38a4.29,4.29,0,0,0-.45,2,4.81,4.81,0,0,0,2.67,4.32,4.71,4.71,0,0,0,2.12.52,4.89,4.89,0,0,0,4.4-2.83,5,5,0,0,0,.44-2A4.88,4.88,0,0,0,348.37,633.53Z"/><path class="cls-1" d="M336.37,658.94a4.9,4.9,0,0,0-6.38,2.49c-3.47,8-6.19,14.55-8.53,20.47l-.28.65c-3.35,8.35-6.65,17.2-9.79,26.24a4.77,4.77,0,0,0,.12,3.65,4.9,4.9,0,0,0,2.68,2.54,4.53,4.53,0,0,0,1.11.27l.53-2.44,0,2.5a4.89,4.89,0,0,0,4.58-3.24v0c2.85-8.16,6.07-16.81,9.58-25.71l.28-.6c2.47-6.34,5.34-13.2,8.56-20.45a4.65,4.65,0,0,0,.06-3.55A4.76,4.76,0,0,0,336.37,658.94Z"/><path class="cls-1" d="M1549.15,681.93a4.14,4.14,0,0,0,1.86-.39,5,5,0,0,0,3-4.4,4,4,0,0,0-.38-1.86,4.77,4.77,0,0,0-2.58-2.62,4.87,4.87,0,0,0-3.73,0,5,5,0,0,0-3,4.45,5.41,5.41,0,0,0,.39,1.85A4.86,4.86,0,0,0,1549.15,681.93Z"/><path class="cls-1" d="M1552.85,699.65c3.22,8.75,6.3,17.6,9.15,26.31,2.19,6.81,4.38,14,6.49,21.23a4.8,4.8,0,0,0,4.62,3.59,5.41,5.41,0,0,0,1.32-.19,4.83,4.83,0,0,0,3.31-6c-2.15-7.46-4.35-14.71-6.55-21.62l-.18-.58-.07-.06c-2.77-8.5-5.82-17.24-9.07-26a4.88,4.88,0,0,0-2.59-2.73,4.58,4.58,0,0,0-3.53-.16,4.78,4.78,0,0,0-2.81,2.6A4.61,4.61,0,0,0,1552.85,699.65Z"/><path class="cls-1" d="M1523.88,633.47c3.46,6.81,6.72,13.54,9.72,20.09a4.86,4.86,0,0,0,4.33,2.73,4.52,4.52,0,0,0,2-.46,4.81,4.81,0,0,0,2.42-6.38c-3.15-6.76-6.46-13.56-9.82-20.34-4.19-8.24-8.66-16.61-13.26-24.86a4.87,4.87,0,0,0-6.53-1.89,4.85,4.85,0,0,0-2.24,2.69l-1.69.15,2,3.71C1515.9,618,1520.16,626,1523.88,633.47Z"/><path class="cls-1" d="M1445.18,510a4.7,4.7,0,0,0,3.09-1.07,4.82,4.82,0,0,0,1.76-3.72,4.84,4.84,0,0,0-7.92-3.73,4.51,4.51,0,0,0-1.72,3.73,4.8,4.8,0,0,0,4.79,4.79Z"/><path class="cls-1" d="M1414.84,464.41c-6.89-7-13.68-13.71-20.18-19.82a4.8,4.8,0,0,0-6.7.14,4.45,4.45,0,0,0-1.4,3.42,4.55,4.55,0,0,0,1.53,3.45c6.78,6.44,13.46,13,19.84,19.54,5.37,5.53,10.5,11,15.34,16.29a5,5,0,0,0,3.51,1.48,4.82,4.82,0,0,0,3.54-8.07C1425.57,475.62,1420.36,470.1,1414.84,464.41Z"/><path class="cls-1" d="M1472.14,547.92v0c4.21,5.83,8.56,12.24,12.64,18.31a4.81,4.81,0,0,0,4,2.13,4.41,4.41,0,0,0,2.67-.81,4.82,4.82,0,0,0,1.35-6.66c-4-6-8-11.9-12.82-18.63-5.36-7.48-11.06-15.07-16.9-22.54a4.78,4.78,0,0,0-6.67-1,4.73,4.73,0,0,0-.92,6.82C1461.55,533.36,1467.15,540.86,1472.14,547.92Z"/><path class="cls-1" d="M781.1,282.48c-6.55,1.59-13.83,3.51-21.63,5.69l-.55.15c-8.54,2.36-17.54,5.1-26.63,8.1a4.8,4.8,0,0,0-2.95,2.45,5,5,0,0,0-.23,3.7,4.85,4.85,0,0,0,4.59,3.24,3.92,3.92,0,0,0,1.48-.23c8.06-2.65,17-5.36,26.65-8.05,6.89-2,14.14-3.88,21.57-5.67a4.93,4.93,0,0,0,3-2.27,4.86,4.86,0,0,0-5.33-7.11Z"/><path class="cls-1" d="M1503.8,592a5.41,5.41,0,0,0,2.55-.69,4.85,4.85,0,0,0,2.25-4.1,5.37,5.37,0,0,0-.68-2.56,4.84,4.84,0,0,0-9,2.56,4.38,4.38,0,0,0,.67,2.43A4.71,4.71,0,0,0,1503.8,592Z"/><path class="cls-1" d="M881.37,266.1c-7.15.6-14.51,1.35-22.5,2.31-10.24,1.26-19.38,2.55-27.93,3.95a4.83,4.83,0,0,0,.74,9.6l.8-.08c10.2-1.65,19.22-2.91,27.6-3.88,6.57-.83,13.8-1.57,22.09-2.28a4.61,4.61,0,0,0,3.26-1.68,4.76,4.76,0,0,0,1.16-3.66A4.85,4.85,0,0,0,881.37,266.1Z"/><path class="cls-1" d="M808.74,276.41a4.8,4.8,0,0,0-4,4.7l.09.9a4.82,4.82,0,0,0,4.75,3.94l.92-.09a4.79,4.79,0,0,0,3.87-4.7,4,4,0,0,0-.1-1A4.79,4.79,0,0,0,808.74,276.41Z"/><path class="cls-1" d="M742.5,1563.34c7.26,2.2,14.57,4.35,21.73,6.3,9,2.41,18.18,4.7,27.35,6.8a4.46,4.46,0,0,0,1.14.12,4.84,4.84,0,0,0,4.74-3.79,4.94,4.94,0,0,0-3.66-5.72h0c-8.41-1.91-17.26-4.1-27-6.71-6.87-1.89-14.07-4-21.33-6.2a4.82,4.82,0,0,0-6,3.08,4.65,4.65,0,0,0,.31,3.77A4.86,4.86,0,0,0,742.5,1563.34Z"/><path class="cls-1" d="M715.56,1554.33a4.44,4.44,0,0,0,1.67.33,4.89,4.89,0,0,0,4.85-4.84,4.84,4.84,0,0,0-9.36-1.66,4.51,4.51,0,0,0-.27,1.71A4.63,4.63,0,0,0,715.56,1554.33Z"/><path class="cls-1" d="M914.6,268.89a4.8,4.8,0,0,0-4.84-4.59l-.62,0a4.83,4.83,0,0,0,.82,9.61h0A4.87,4.87,0,0,0,914.6,268.89Z"/><path class="cls-1" d="M918.28,1584h-7l-.69,1.37a5,5,0,0,0-.52,2.32,4.82,4.82,0,0,0,9.63-.15,4.26,4.26,0,0,0-.72-2.43Z"/><path class="cls-1" d="M841.66,1585.77c7.25,1,14.75,2,22.43,2.9,9,1,18.4,1.83,28.41,2.56a4.9,4.9,0,0,0,4.83-4.49,4.8,4.8,0,0,0-4.42-5.18h0c-9.15-.63-18.48-1.46-27.73-2.49-6.85-.76-14.08-1.71-22.18-2.89a5,5,0,0,0-5.43,4.27,5.17,5.17,0,0,0,1,3.46A5.1,5.1,0,0,0,841.66,1585.77Z"/><path class="cls-1" d="M813.82,1581.06l.85.09a4.71,4.71,0,0,0,4.67-3.61,3.94,3.94,0,0,0,.17-1.27,4.78,4.78,0,0,0-3.94-4.7h-.05a5,5,0,0,0-5.59,3.79l0,1A4.78,4.78,0,0,0,813.82,1581.06Z"/><path class="cls-1" d="M384.65,570.2a4.8,4.8,0,0,0-6.68,1.43c-4.26,6.69-8.24,13.18-11.82,19.29-4.75,8.09-9.41,16.39-13.85,24.65a4.74,4.74,0,0,0,1.92,6.53,4.72,4.72,0,0,0,2.31.61,4.82,4.82,0,0,0,4.25-2.57c4.39-8.22,9-16.34,13.56-24.15l.35-.59v0c3.76-6.29,7.58-12.53,11.32-18.47a5,5,0,0,0,.72-3.79A4.74,4.74,0,0,0,384.65,570.2Z"/><path class="cls-1" d="M983,265.1c-7-.47-14.35-.83-22.61-1.1L939,263.47l14.52,5.22a34.85,34.85,0,0,1,7,3.52c.5.33,1,.63,1.47,1l.68.49.8,0c7.8.29,13.64.6,19.25,1a4.79,4.79,0,0,0,3.69-7.9A4.64,4.64,0,0,0,983,265.1Z"/><path class="cls-1" d="M497.86,1425.42c7.5,6.65,14.75,12.8,21.46,18.21a4.66,4.66,0,0,0,3.09,1.17,4.82,4.82,0,0,0,3.71-1.78,4.73,4.73,0,0,0,1.08-3.48,4.82,4.82,0,0,0-1.71-3.3c-7.48-6.13-14.62-12.21-21.23-18-5.26-4.66-10.8-9.73-16.36-15a5.11,5.11,0,0,0-3.47-1.43,4.6,4.6,0,0,0-3.34,1.43,4.54,4.54,0,0,0-1.38,3.46,4.62,4.62,0,0,0,1.47,3.41C487.66,1416.21,493,1421.08,497.86,1425.42Z"/><path class="cls-1" d="M464.59,1391.67a4.8,4.8,0,0,0,4.84-4.79,5.14,5.14,0,0,0-1.38-3.41,4.91,4.91,0,0,0-3.45-1.41h0a4.74,4.74,0,0,0-3.36,1.36,5,5,0,0,0-1.29,2.16h-3.48l4.66,4.66A4.86,4.86,0,0,0,464.59,1391.67Z"/><path class="cls-1" d="M1011.05,267.5a5,5,0,0,0-5.25,4.73,4.71,4.71,0,0,0,4.33,4.88h.46a4.81,4.81,0,0,0,4.82-4.29l0-.5A4.91,4.91,0,0,0,1011.05,267.5Z"/><path class="cls-1" d="M1083.56,279.42c-7.35-1.6-14.76-3.1-22.12-4.5-8.74-1.63-18.13-3.16-27.87-4.55a4.82,4.82,0,0,0-5.5,4.12,4.87,4.87,0,0,0,4.09,5.4h0c9.78,1.4,19,2.92,27.44,4.52,7.61,1.4,15,2.91,22.24,4.53l.66.05a4.79,4.79,0,0,0,4.67-3.75,4.72,4.72,0,0,0-.57-3.61A4.89,4.89,0,0,0,1083.56,279.42Z"/><path class="cls-1" d="M1043.52,1584.55h.55l.2,0c8.9-1.46,16-2.72,21.8-3.91l.3,0,.37-.12c8.86-1.69,18.08-3.68,27.4-5.91a4.83,4.83,0,1,0-2.26-9.39h0c-8.81,2.12-18,4.11-27.18,5.91-7,1.34-14.32,2.64-21.91,3.88a4.8,4.8,0,0,0,.73,9.55Z"/><path class="cls-1" d="M1110.12,1565.58a4.83,4.83,0,0,0,4.64,3.55,5.48,5.48,0,0,0,1.29-.19,4.76,4.76,0,0,0,3.5-4.7,4.92,4.92,0,0,0-.15-1.3,4.69,4.69,0,0,0-.94-1.73l1.3-1.16H1117a4.79,4.79,0,0,0-3.59-.4L1094,1565h16A3.89,3.89,0,0,0,1110.12,1565.58Z"/><path class="cls-1" d="M1111,286.13a5,5,0,0,0-5.93,3.71l-.11,1a4.85,4.85,0,0,0,3.41,4.6,3.73,3.73,0,0,0,1.42.24,4.78,4.78,0,0,0,4.67-3.6,4.44,4.44,0,0,0,.12-1.07A4.8,4.8,0,0,0,1111,286.13Z"/><path class="cls-1" d="M1015.73,1588.39h.41l.15,0a4.87,4.87,0,0,0,4.28-4.82l-.05-1.25-.21-.22a4.79,4.79,0,0,0-5.13-3.3h0a4.73,4.73,0,0,0-4.23,4.82l0,.56A4.84,4.84,0,0,0,1015.73,1588.39Z"/><path class="cls-1" d="M944.09,1592.74l6.11-.06c5.06,0,10.22-.2,15.38-.4,8.89-.33,18.38-.91,28.18-1.7a5,5,0,0,0,3.37-1.73,4.93,4.93,0,0,0,1.08-3.45,4.67,4.67,0,0,0-5.14-4.44H993c-6,.5-12.11.9-18.13,1.19l-2.37.12V1584H952.83Z"/><path class="cls-1" d="M1180.94,309.12c-6.59-2.59-13.73-5.25-21.25-7.91-9-3.13-18-6.1-27-8.82a4.85,4.85,0,0,0-6,3.15,4.7,4.7,0,0,0,.33,3.74,5,5,0,0,0,2.81,2.31l0,0c8.81,2.68,17.74,5.61,26.53,8.69,8.64,3.08,15.09,5.49,20.92,7.81a4.92,4.92,0,0,0,1.77.32,5,5,0,0,0,4.53-3.11,4.83,4.83,0,0,0-2.76-6.2Z"/><path class="cls-1" d="M397.45,1305.28l-.11.08a4.75,4.75,0,0,0-1.95,3.94,5,5,0,0,0,.9,2.8,4.91,4.91,0,0,0,3.89,2,4.65,4.65,0,0,0,2.77-.89,4.79,4.79,0,0,0,2.07-4,4.49,4.49,0,0,0-.9-2.72A4.86,4.86,0,0,0,397.45,1305.28Z"/><path class="cls-1" d="M1371.17,429.78A4.84,4.84,0,0,0,1370,433a4.77,4.77,0,0,0,4.84,4.74,4.91,4.91,0,0,0,3.71-1.71,4.58,4.58,0,0,0,1.08-3.13,4.75,4.75,0,0,0-1.64-3.61A4.89,4.89,0,0,0,1371.17,429.78Z"/><path class="cls-1" d="M449.28,1375.31a5,5,0,0,0,3.31-1.33,4.65,4.65,0,0,0,1.46-3.19,4.49,4.49,0,0,0-1.23-3.54c-6.51-7.23-12.63-14.32-18.18-21.07h0c-4.36-5.23-8.91-10.9-13.94-17.37A4.86,4.86,0,0,0,414,1328a4.8,4.8,0,0,0-.88,6.76c4.42,5.74,9.18,11.67,14.12,17.63,5.42,6.54,11.46,13.52,18.48,21.33A4.88,4.88,0,0,0,449.28,1375.31Z"/><path class="cls-1" d="M387.56,1295.58a4.56,4.56,0,0,0,2.58-.78,4.81,4.81,0,0,0,2-2.65l2-.16-2.55-3.87c-2-3-3.9-6-5.83-9q-5.47.45-10.95.72c2.8,4.48,5.7,9,8.76,13.67A4.83,4.83,0,0,0,387.56,1295.58Z"/><path class="cls-1" d="M1272.61,353.39q-9.9-5.72-19.77-11.07c-8.38-4.46-16.86-8.77-25.2-12.82a4.89,4.89,0,0,0-3.72-.18,4.78,4.78,0,0,0-2.75,2.45,4.84,4.84,0,0,0,2.2,6.38l.07,0c8.16,3.93,16.52,8.2,24.86,12.68,6.26,3.32,12.81,7,19.48,10.88a4.69,4.69,0,0,0,2.39.63,5,5,0,0,0,4.23-2.44,4.5,4.5,0,0,0,.43-3.55A4.63,4.63,0,0,0,1272.61,353.39Z"/><path class="cls-1" d="M1207.59,320.29l-.54-.3a4.86,4.86,0,0,0-3.78,0,4.31,4.31,0,0,0-2.37,2.18,4,4,0,0,0-.57,2.09,4.68,4.68,0,0,0,2.88,4.56,4.48,4.48,0,0,0,1.91.41,4.89,4.89,0,0,0,4.38-2.75,4.81,4.81,0,0,0-1.91-6.17Z"/><path class="cls-1" d="M1338.9,397.56l-.38-.35c-8.35-6.29-15.86-11.7-22.85-16.47a4.74,4.74,0,0,0-3.61-.84,4.78,4.78,0,0,0-1.94,8.66v0c8.11,5.62,15.72,11.12,22.63,16.36,5.45,4.07,11.21,8.54,17.52,13.61a4.65,4.65,0,0,0,3.07,1.16A4.77,4.77,0,0,0,1357,418a4.52,4.52,0,0,0,1.12-3.57,4.76,4.76,0,0,0-1.76-3.27C1351.06,406.83,1345.26,402.31,1338.9,397.56Z"/><path class="cls-1" d="M1141.65,1561.05a3.83,3.83,0,0,0,1.46-.22c7.43-2.38,14.63-4.84,21.39-7.31,9.19-3.32,18.07-6.74,26.3-10.13a4.7,4.7,0,0,0,2.66-2.55,4.48,4.48,0,0,0,.07-3.67,4.74,4.74,0,0,0-2.51-2.64,4.91,4.91,0,0,0-3.78-.1l0,0-.22.15c-9.13,3.7-17.81,7-25.79,9.94-7,2.48-14.13,4.92-21.07,7.19a4.77,4.77,0,0,0-3.17,6A4.8,4.8,0,0,0,1141.65,1561.05Z"/><path class="cls-1" d="M1296.83,368.17l-.68-.45h-.21a4.8,4.8,0,0,0-5.84,1.93,4.89,4.89,0,0,0-.65,1.57h-6.32l8.35,5a4.58,4.58,0,0,0,2.69.81,4.69,4.69,0,0,0,2.3-.59l1.16.06-.46-.54a5.57,5.57,0,0,0,1.06-1.15,4.34,4.34,0,0,0,.73-2.62A4.8,4.8,0,0,0,1296.83,368.17Z"/><path class="cls-1" d="M1298,1486.61a5,5,0,0,0,2.9-.95,4.79,4.79,0,0,0,1.94-3.84,5.06,5.06,0,0,0-.77-2.62,4.88,4.88,0,0,0-6.63-1.49l-.11.07a4.91,4.91,0,0,0-1.33,6.71A4.8,4.8,0,0,0,1298,1486.61Z"/><path class="cls-1" d="M1585,772.25l-.08-.37a4.81,4.81,0,0,0-5.78-3.52,4.63,4.63,0,0,0-2.33,1.4q4.11,1.68,8.29,3.32h0A3.54,3.54,0,0,0,1585,772.25Z"/><path class="cls-1" d="M578.36,1486.57l.85.74h.24c7.69,5,15.58,9.82,23.5,14.49a4.81,4.81,0,0,0,6.48-1.67,4.5,4.5,0,0,0,.55-3.8,4.57,4.57,0,0,0-1.75-2.57l-.44-.32c-8.07-4.73-16.06-9.65-23.76-14.61-6.28-4.06-12.5-8.24-18.52-12.46a4.85,4.85,0,0,0-5.5,8Q570.15,1481.33,578.36,1486.57Z"/><path class="cls-1" d="M622.81,1513a5.33,5.33,0,0,0,2.13.45,4.73,4.73,0,0,0,4.16-2.45,4.79,4.79,0,0,0-1.87-6.58,4.82,4.82,0,0,0-7.13,4.24A5,5,0,0,0,622.81,1513Z"/><path class="cls-1" d="M1398.59,1406.29a5.08,5.08,0,0,0,3.38-1.36c5.25-5.1,10.6-10.49,15.93-16,6.73-7,13.16-14,19.11-20.76a4.7,4.7,0,0,0,1.23-3.56,4.62,4.62,0,0,0-1.63-3.26,4.85,4.85,0,0,0-6.75.4c-7,7.84-13.17,14.54-18.9,20.49-5.35,5.55-10.63,10.87-15.69,15.78a4.76,4.76,0,0,0-.2,6.76A4.69,4.69,0,0,0,1398.59,1406.29Z"/><path class="cls-1" d="M1321.11,1470.85a4.81,4.81,0,0,0,2.84-.91c6-4.26,12.09-8.76,18.13-13.38,7.38-5.64,14.81-11.57,22.05-17.59a4.75,4.75,0,0,0,1.77-3.34,5,5,0,0,0-1.13-3.51,4.89,4.89,0,0,0-6.75-.64l0,0c-7.22,6-14.53,11.89-21.71,17.39-5.52,4.22-11.54,8.67-17.79,13.14a4.52,4.52,0,0,0-2.07,3.21,4.78,4.78,0,0,0,4.71,5.59Z"/><path class="cls-1" d="M647.79,1525.82c6.21,3,12.61,6,19.05,8.92l1.49.7c9,4,17.79,7.7,26.07,11a4.94,4.94,0,0,0,1.78.33,4.87,4.87,0,0,0,4.45-3,4.77,4.77,0,0,0,0-3.81,4.94,4.94,0,0,0-2.61-2.5h0c-9.24-3.67-17.88-7.31-25.71-10.84-6.48-2.87-13.28-6-20.15-9.36a4.78,4.78,0,0,0-6.47,2.11,4.65,4.65,0,0,0-.28,3.69A4.79,4.79,0,0,0,647.79,1525.82Z"/><path class="cls-1" d="M540.07,1458.67a4.93,4.93,0,0,0,3.85-1.9,4.73,4.73,0,0,0,.94-2.71A4.68,4.68,0,0,0,543,1450l-4.39-3.19v2.48a4.83,4.83,0,0,0-3.34,4.56,4.79,4.79,0,0,0,4.83,4.83Z"/><path class="cls-1" d="M1378.08,1425.4a4.77,4.77,0,0,0,2.79-.93l.42-.31a4.68,4.68,0,0,0,1.58-3.55,4.81,4.81,0,0,0-1.23-3.26,4.74,4.74,0,0,0-3.36-1.56,4.52,4.52,0,0,0-3.39,1.19,4.72,4.72,0,0,0-1.65,3.58,4.54,4.54,0,0,0,1.24,3.21A4.79,4.79,0,0,0,1378.08,1425.4Z"/><path class="cls-1" d="M1234.84,1522.83a4,4,0,0,0,2.18-.51c7.33-3.7,13.72-7,19.51-10.22l.62-.3c7.71-4.22,15.89-8.92,24.47-14.06a5,5,0,0,0,2.05-3,4.7,4.7,0,0,0-.52-3.55,4.76,4.76,0,0,0-2.94-2.2,5,5,0,0,0-3.73.51l0,0c-7.06,4.29-15,8.82-24.1,13.86-5.81,3.17-12.24,6.54-19.75,10.33a4.83,4.83,0,0,0-2.33,2.74,4.71,4.71,0,0,0,.26,3.65A4.81,4.81,0,0,0,1234.84,1522.83Z"/><path class="cls-1" d="M1465.39,1330.65a5,5,0,0,0,3.89-1.88c4.74-6.29,9.22-12.44,13.32-18.28,5.26-7.5,10.57-15.4,15.75-23.45a4.8,4.8,0,0,0-5-7.32,4.77,4.77,0,0,0-3,2.08c-5.2,8-10.4,15.74-15.46,22.92l-.09.17,0,0-.27.48c0-.09.11-.24.17-.35l-.24.33c-4,5.69-8.34,11.61-12.94,17.68a5,5,0,0,0-.86,3.58,5.08,5.08,0,0,0,1.87,3.13A4.83,4.83,0,0,0,1465.39,1330.65Z"/><path class="cls-1" d="M1209.6,1534.91a5.89,5.89,0,0,0,2.07-.47,4.63,4.63,0,0,0,2.69-3.92,4.21,4.21,0,0,0-.37-2.39,4.82,4.82,0,0,0-6.33-2.5l-.07,0a5,5,0,0,0-2.83,4.36,4.56,4.56,0,0,0,.44,2A4.89,4.89,0,0,0,1209.6,1534.91Z"/><path class="cls-1" d="M1448,1352.66a5,5,0,0,0,3.75-1.76,4.87,4.87,0,0,0-.7-6.74,4.84,4.84,0,0,0-6.81.67h0a5,5,0,0,0-1.08,3,4.77,4.77,0,0,0,4.84,4.79Z"/><path class="cls-1" d="M964.24,293.08A28.46,28.46,0,0,0,910.42,306a28.45,28.45,0,0,0,8.33,20.13,28.43,28.43,0,0,0,40.25,0,28.49,28.49,0,0,0,5.24-33.06Zm-25.36,37.37A24.46,24.46,0,0,1,915.78,298a28.12,28.12,0,0,0,46.2,0,24.47,24.47,0,0,1-23.1,32.46Z"/></g></g></svg>