<svg xmlns="http://www.w3.org/2000/svg" viewBox="0 0 894.77 891.31"><defs><style>.cls-1{fill:#191c1c;}.cls-2,.cls-3{fill:#c89e67;}.cls-3{font-size:5.28px;font-family:MyriadPro-Regular, Myriad Pro;}</style></defs><g id="Calque_2" data-name="Calque 2"><g id="Capa_1" data-name="Capa 1"><circle class="cls-1" cx="445.65" cy="445.65" r="445.65"/><polygon class="cls-2" points="476.27 736.69 480.48 732.48 476.27 728.27 476.27 722.32 470.32 722.32 466.11 718.11 461.9 722.32 455.94 722.32 455.94 728.27 451.73 732.48 455.94 736.69 455.94 742.65 461.9 742.65 466.11 746.86 470.32 742.65 476.27 742.65 476.27 736.69"/><path class="cls-2" d="M639.62,621a179.46,179.46,0,0,1-82.2-9.25,177.78,177.78,0,0,1-90-73,2,2,0,0,0-.95-.82c.91-1.57.86-3.73,1-5.49.33-5.54-.35-11.63-4.45-15.66a5.05,5.05,0,0,0,1.59-5.58c-1.48-4.92-5.7-9.29-9.76-12.33a55.65,55.65,0,0,1,7.2-21.75,70.75,70.75,0,0,1,5.48-8.22c1.79-2.32,4.27-4.42,5-7.36a8.54,8.54,0,0,0-2.38-8.16c-2-1.88-5-2.46-7.41-3.72a29.22,29.22,0,0,1-10.59-9.25c-5.14-7.53-6.48-16.88-6.24-25.81a103,103,0,0,1,4.38-25.7q1.42-5,3.23-9.8c.36-.95.72-1.89,1.1-2.83l.21-.51,0,0,0-.07v0A177.51,177.51,0,0,1,583.13,271.41a180.61,180.61,0,0,1,56.49-2.07c1.71.21,2.7-2.36,1.43-3.44a235.11,235.11,0,1,0-22.62,375.51,241,241,0,0,0,22.62-17C642.31,623.35,641.34,620.77,639.62,621ZM463.38,532.82c-.05.76.14,2.59-.54,3.12s-2.78.52-3.65.65a62.58,62.58,0,0,1-7.86.6,65.19,65.19,0,0,1-25-4.51,91.13,91.13,0,0,0,28.12-10.29c1.76-1,3.5-2.06,5.19-3.18C463.47,522.66,463.69,528,463.38,532.82Zm-6.06-26.06a25.89,25.89,0,0,1,2.12,3.08c.43.73,1.57,2.26,1.41,3.14s-1.75,1.74-2.52,2.26c-1.05.72-2.12,1.41-3.2,2.08q-3.11,1.9-6.36,3.56a86.06,86.06,0,0,1-23.73,8c7.45-10.47,16.71-20.11,28-26.29A26.73,26.73,0,0,1,457.32,506.76Zm39.33,169.38c-118.39-6.77-206.46-110.88-206.46-231,0-116.21,88.23-220.1,196.64-231.07q9.17-.09,18.32.54a230.85,230.85,0,0,1,110.32,37.15l.21.14a222.3,222.3,0,0,0-53.6-17.82c-2.54-.5-3.62,3.39-1.07,3.89A219.22,219.22,0,0,1,618.93,258a232.89,232.89,0,0,0-74.69-11c-2.59,0-2.6,4.07,0,4a229.67,229.67,0,0,1,80.2,13.09,181.29,181.29,0,0,0-173,109.35l-.06.14c-.39.88-.76,1.77-1.13,2.66-.07.18-.15.36-.22.55L450,377a116.22,116.22,0,0,0-7.86,33.22c-.77,9.31-.06,19,3.92,27.6a32.25,32.25,0,0,0,8.35,11.05,34.69,34.69,0,0,0,6.31,4.28c1.19.63,2.42,1.18,3.67,1.69s2.79.93,3.65,2.25c2.1,3.23-.85,5.83-2.74,8.19a78.08,78.08,0,0,0-6.43,9.3,60.3,60.3,0,0,0-8.08,24.67c-13.1,7.23-23.56,18.94-31.73,31.29a1.65,1.65,0,0,0-.26.81,1.76,1.76,0,0,0,.69,2.66,69.35,69.35,0,0,0,36.8,7,35.3,35.3,0,0,0,7.39-1,2,2,0,0,0,.31.81,183.52,183.52,0,0,0,53,54.88,180.32,180.32,0,0,0,72.46,28.43,183.83,183.83,0,0,0,18.72,1.95,217.79,217.79,0,0,1-63.84-5.76c-2.52-.62-3.59,3.27-1.07,3.88a221.87,221.87,0,0,0,72.88,5.29,245.58,245.58,0,0,1-57.32,8.38q-11.31.3-22.61-.45c-2.59-.17-2.58,3.87,0,4A250.07,250.07,0,0,0,614,634.2a248.81,248.81,0,0,1-59.19,18.47c-7.45,1.34-15,2.31-22.51,3-2.56.21-2.59,4.25,0,4a253.57,253.57,0,0,0,78.25-19.53c2.56-1.09,5.1-2.24,7.62-3.42a230,230,0,0,1-121.53,39.43Z"/><path class="cls-2" d="M643.25,523H613.37l21.13-21.13c1.84-1.84-1-4.69-2.85-2.85l-21.13,21.13V465.07c0-2.59-4-2.6-4,0v55.07L585.36,499c-1.84-1.84-4.69,1-2.85,2.85L603.64,523H573.76c-2.6,0-2.6,4,0,4h29.88l-21.13,21.13c-1.84,1.84,1,4.69,2.85,2.85l21.13-21.13v55.06c0,2.6,4,2.6,4,0V529.87L631.65,551c1.84,1.84,4.69-1,2.85-2.85L613.37,527h29.88C645.85,527,645.85,523,643.25,523Z"/><path class="cls-2" d="M676.46,380.11H665.33l7.87-7.86c1.84-1.84-1-4.7-2.85-2.86l-7.87,7.87V354.55c0-2.6-4-2.6-4,0v22.71l-7.87-7.87c-1.83-1.83-4.69,1-2.85,2.86l7.87,7.86H644.47c-2.59,0-2.6,4,0,4H655.6L647.73,392c-1.84,1.84,1,4.69,2.85,2.85l7.87-7.87v22.72c0,2.59,4,2.6,4,0V387l7.87,7.86c1.83,1.84,4.69-1,2.85-2.85l-7.87-7.87h11.13C679.05,384.14,679.06,380.11,676.46,380.11Z"/><path class="cls-2" d="M534.21,507.35H523.08l7.87-7.86c1.83-1.84-1-4.69-2.85-2.85l-7.87,7.86V481.79c0-2.6-4-2.6-4,0V504.5l-7.87-7.86c-1.84-1.84-4.69,1-2.85,2.85l7.87,7.86H502.22c-2.59,0-2.6,4,0,4h11.13l-7.87,7.86c-1.84,1.84,1,4.69,2.85,2.85l7.87-7.86V537c0,2.59,4,2.6,4,0V514.24l7.87,7.86c1.83,1.84,4.69-1,2.85-2.85l-7.87-7.86h11.13C536.8,511.39,536.8,507.35,534.21,507.35Z"/><path class="cls-2" d="M604.87,320.3H593.74l7.87-7.87c1.84-1.84-1-4.69-2.85-2.85l-7.87,7.87V294.73c0-2.59-4-2.6-4,0v22.72L579,309.58c-1.83-1.84-4.69,1-2.85,2.85L584,320.3H572.88c-2.59,0-2.59,4,0,4H584l-7.87,7.87c-1.83,1.83,1,4.69,2.85,2.85l7.87-7.87v22.71c0,2.6,4,2.6,4,0V327.18l7.87,7.87c1.84,1.83,4.69-1,2.85-2.85l-7.87-7.87h11.13C607.46,324.33,607.47,320.3,604.87,320.3Z"/><path class="cls-2" d="M588.88,413.76h-7l5-5c1.84-1.84-1-4.69-2.85-2.85l-5,5V395.23c0-2.6-4-2.6-4,0v15.68l-5-5c-1.84-1.84-4.69,1-2.85,2.85l5,5h-7c-2.6,0-2.6,4,0,4h7l-5,5c-1.84,1.84,1,4.69,2.85,2.85l5-5v15.68c0,2.59,4,2.6,4,0V420.65l5,5c1.84,1.84,4.69-1,2.85-2.85l-5-5h7C591.47,417.79,591.48,413.76,588.88,413.76Z"/><path class="cls-2" d="M504.24,395.33v-11.6l3.31,3.31a2,2,0,1,0,2.85-2.85l-3.31-3.31h4.68c2.59,0,2.6-4,0-4h-4.68l3.31-3.31a2,2,0,1,0-2.85-2.85l-3.31,3.3V362.4c0-2.6-4-2.6-4,0V374l-3.31-3.3a2,2,0,0,0-2.86,2.85l3.31,3.31h-4.68c-2.59,0-2.59,4,0,4h4.68L494,384.19A2,2,0,0,0,496.9,387l3.31-3.31v11.6C500.21,397.92,504.24,397.93,504.24,395.33Z"/><path class="cls-2" d="M354.38,415.41l-.51,1.35a1.59,1.59,0,0,0,0,.81,1.51,1.51,0,0,0,.24.75,2.2,2.2,0,0,0,1.2.92l.54.07a2,2,0,0,0,1-.27l.41-.32a2,2,0,0,0,.52-.89l.27-.7c1.26.53,2.54,1,3.81,1.38-.21,1.06-.41,2.12-.62,3.18a2.17,2.17,0,0,0,.21,1.56,2,2,0,0,0,2.75.72,2,2,0,0,0,.93-1.21l.63-3.22q1.56.33,3.15.57c.28,1.64.55,3.29.83,4.93a2,2,0,0,0,.92,1.21,2.07,2.07,0,0,0,1.56.2,2,2,0,0,0,1.2-.93,2.3,2.3,0,0,0,.21-1.55c-.2-1.15-.39-2.3-.58-3.45,1.49.08,3,.09,4.49,0l0,.16q.93,3.7,1.85,7.41a2,2,0,0,0,3.89-1.07q-.85-3.42-1.7-6.82c1.32-.16,2.65-.38,4-.65a65.05,65.05,0,0,0,4.55,11.5,2,2,0,0,0,2.76.72,2.06,2.06,0,0,0,.72-2.75,54.37,54.37,0,0,1-2.37-5.28q-1-2.55-1.75-5.17,1.65-.48,3.24-1.08a43,43,0,0,0,7.85,13.11,2,2,0,0,0,2.85,0,2.07,2.07,0,0,0,0-2.85,32.28,32.28,0,0,1-2.06-2.58c-.71-1-1.36-2-2-3a35.26,35.26,0,0,1-3-6.23h0c.78-.38,1.56-.78,2.31-1.2l0,.07a36.92,36.92,0,0,0,13.7,14.93,2,2,0,0,0,2-3.48,32.85,32.85,0,0,1-12.26-13.48l-.09-.17.06,0c1-.68,2-1.41,2.94-2.18a45.22,45.22,0,0,0,18.71,14.2,2,2,0,0,0,2.48-1.41,2.06,2.06,0,0,0-1.4-2.48,40.12,40.12,0,0,1-16.64-12.78l-.21-.25c.3-.32.58-.65.85-1,1.6-2-1.24-4.88-2.85-2.85-4.41,5.54-11.63,9.2-18.3,11.05-12.11,3.36-26.07,1.7-36.17-6.11a32.38,32.38,0,0,1-4.07-3.78c-.34-.37-.66-.75-1-1.14l-.13-.18c-1.47-2.12-5-.11-3.48,2A32,32,0,0,0,354.38,415.41Z"/><path class="cls-2" d="M508.58,280.9a175.38,175.38,0,0,1,75.2-18c2.59,0,2.6-4.07,0-4a180,180,0,0,0-77.23,18.6C504.22,278.57,506.26,282.05,508.58,280.9Z"/><path class="cls-2" d="M446,475.6a2.07,2.07,0,0,0,2.76-.72c.23-.36.47-.7.71-1.05l.38-.5h0l.14-.18c.52-.66,1.08-1.29,1.66-1.9s1.17-1.16,1.79-1.7c.3-.26.61-.51.92-.76h0l.07,0,.06,0,.13-.1.56-.4a2.18,2.18,0,0,0,.92-1.21,2,2,0,0,0-.2-1.55,2,2,0,0,0-2.76-.73,30.29,30.29,0,0,0-7.86,8.14A2,2,0,0,0,446,475.6Z"/><path class="cls-2" d="M454.44,468.74l-.05,0c.12,0,.28-.21.12-.09l-.06,0Z"/><path class="cls-2" d="M460.58,638c-2.27-1.25-4.31,2.23-2,3.48a147.63,147.63,0,0,0,58.1,17.61c2.59.23,2.57-3.81,0-4A142.85,142.85,0,0,1,460.58,638Z"/><path class="cls-2" d="M535.17,275A173.85,173.85,0,0,0,459,334.46a167.4,167.4,0,0,0-14.44,23.92c-1.15,2.32,2.33,4.37,3.48,2A169.55,169.55,0,0,1,512,291a163.86,163.86,0,0,1,24.27-12.09C538.63,278,537.59,274.05,535.17,275Z"/><path class="cls-2" d="M437.05,314c-1.74,1.92,1.1,4.78,2.85,2.85a193.73,193.73,0,0,1,96.54-58c2.52-.63,1.45-4.52-1.07-3.89a199.41,199.41,0,0,0-79.88,41.18A194.47,194.47,0,0,0,437.05,314Z"/><path class="cls-2" d="M467.8,253.47a181.08,181.08,0,0,0-22.07,11.59c-2.21,1.36-.18,4.85,2,3.49a179.77,179.77,0,0,1,105-26.48c2.59.15,2.59-3.89,0-4A185.5,185.5,0,0,0,467.8,253.47Z"/><path class="cls-2" d="M417.29,262.87A150.49,150.49,0,0,1,550,232.33c2.52.62,3.6-3.27,1.07-3.89A154.54,154.54,0,0,0,414.44,260C412.45,261.68,415.31,264.52,417.29,262.87Z"/><path class="cls-2" d="M399.69,293.6a140.92,140.92,0,0,1,51.79-40.79,137.75,137.75,0,0,1,18-6.75c2.48-.74,1.43-4.63-1.07-3.88a144.28,144.28,0,0,0-58.54,34.16,139,139,0,0,0-13,14.41C395.25,292.76,398.09,295.64,399.69,293.6Z"/><path class="cls-2" d="M408,324.61a188.16,188.16,0,0,1,72.61-58.84A184.06,184.06,0,0,1,506,256.35c2.49-.72,1.43-4.62-1.07-3.89a191.06,191.06,0,0,0-100.34,70.11C403,324.66,406.51,326.67,408,324.61Z"/><path class="cls-2" d="M469.28,305.82a167.9,167.9,0,0,1,18-13c2.19-1.38.17-4.87-2-3.48A176,176,0,0,0,430,344.61a173,173,0,0,0-10.75,19.93c-1.07,2.35,2.4,4.4,3.48,2A172.57,172.57,0,0,1,469.28,305.82Z"/><path class="cls-2" d="M394.21,264.32a211,211,0,0,1,23.16-15.85c2.23-1.33.21-4.81-2-3.49a217.28,217.28,0,0,0-71.79,69.3A213.56,213.56,0,0,0,329.9,339c-1.09,2.33,2.39,4.38,3.49,2A213.65,213.65,0,0,1,394.21,264.32Z"/><path class="cls-2" d="M398.29,272.18a209.88,209.88,0,0,0-32.53,36.57c-1.49,2.13,2,4.15,3.48,2A206.17,206.17,0,0,1,401.14,275C403.09,273.3,400.23,270.46,398.29,272.18Z"/><path class="cls-2" d="M361.79,322.12c2.59,0,2.6-4,0-4S359.19,322.12,361.79,322.12Z"/><path class="cls-2" d="M531.83,664a180,180,0,0,1-98-17.2,178,178,0,0,1-24.52-14.54c-2.12-1.5-4.14,2-2,3.48a183.91,183.91,0,0,0,95.41,33.06,177.52,177.52,0,0,0,29.16-.77C534.39,667.75,534.41,663.72,531.83,664Z"/><path class="cls-2" d="M425.66,606.67a191.18,191.18,0,0,0,103.75,42.08c2.58.23,2.57-3.8,0-4a188.07,188.07,0,0,1-81-26.83,184.62,184.62,0,0,1-19.94-14.07C426.51,602.2,423.64,605,425.66,606.67Z"/><path class="cls-2" d="M454.87,604.86c-2.12-1.51-4.13,2-2,3.48a150,150,0,0,0,71.25,26.93c2.58.27,2.56-3.77,0-4A145.78,145.78,0,0,1,454.87,604.86Z"/><path class="cls-2" d="M508.37,610.77a210.31,210.31,0,0,0,21.1,10.9c2.35,1,4.4-2.43,2-3.49-25.41-11.32-48.17-27.89-68.67-46.54C457,566.37,451.42,560.9,446,555.3c-1.82-1.86-4.67,1-2.86,2.85C462.64,578.15,484.21,596.55,508.37,610.77Z"/><path class="cls-2" d="M428.19,570.83a324.73,324.73,0,0,0,58.3,43.25c2.25,1.31,4.28-2.18,2-3.48A320.62,320.62,0,0,1,431,568C429.14,566.21,426.29,569.06,428.19,570.83Z"/><path class="cls-2" d="M383.43,585.19a178.43,178.43,0,0,0,50.73,46.15,174.86,174.86,0,0,0,17.28,9.15c2.34,1.08,4.39-2.4,2-3.48a174.62,174.62,0,0,1-54.13-39,172.78,172.78,0,0,1-12.43-14.86C385.37,581.09,381.87,583.1,383.43,585.19Z"/><path class="cls-2" d="M400.27,625.22a189,189,0,0,1-53.2-57.8c-1.32-2.23-4.81-.21-3.48,2a193.6,193.6,0,0,0,54.64,59.25C400.35,630.2,402.37,626.71,400.27,625.22Z"/><path class="cls-2" d="M396,562.66a178.21,178.21,0,0,0,22.85,33c1.71,2,4.55-.91,2.85-2.86a173.44,173.44,0,0,1-22.22-32.16C398.28,558.34,394.8,560.37,396,562.66Z"/><path class="cls-2" d="M392.4,550.64c-2.59,0-2.6,4,0,4S395,550.64,392.4,550.64Z"/><path class="cls-2" d="M458.31,712.35h-.12a3.47,3.47,0,0,0-3.44,3.43v1.15h4.91l2-2-.39-.75A3.42,3.42,0,0,0,458.31,712.35Z"/><path class="cls-2" d="M410.45,706.75a3.48,3.48,0,0,0-3.38,2.86,4.1,4.1,0,0,0-.06.57,3.38,3.38,0,0,0,2.64,3.35,2.43,2.43,0,0,0,.82.13,3.48,3.48,0,0,0,3.46-3.45,3.41,3.41,0,0,0-2.66-3.37A2.94,2.94,0,0,0,410.45,706.75Z"/><path class="cls-2" d="M394.85,703a3.45,3.45,0,0,0-3.33,2.61,3.63,3.63,0,0,0-.1.87,3.46,3.46,0,0,0,2.53,3.32l1.47.41v-.34a3.5,3.5,0,0,0,2.81-2.57,3.67,3.67,0,0,0,.1-.86,3.36,3.36,0,0,0-2.49-3.28A2.9,2.9,0,0,0,394.85,703Z"/><path class="cls-2" d="M425.72,174a2.47,2.47,0,0,0-.5,0,3.44,3.44,0,0,0-3,3.4,2.74,2.74,0,0,0,0,.55,3.45,3.45,0,0,0,3.41,2.93l.35,0,1.15,0v-.31a3.45,3.45,0,0,0,2-3.1,3.68,3.68,0,0,0,0-.51A3.42,3.42,0,0,0,425.72,174Z"/><path class="cls-2" d="M442.2,711.43a3.48,3.48,0,0,0-3.46,3.25v.25a3.44,3.44,0,0,0,3.16,3.38l.3,0a3.51,3.51,0,0,0,3.45-3.16v-.32a3.49,3.49,0,0,0-3.13-3.43Z"/><path class="cls-2" d="M441.65,172.06h-.28a3.43,3.43,0,0,0-3.18,3.4,1.76,1.76,0,0,0,0,.42,3.44,3.44,0,0,0,3.42,3.06H442a3.45,3.45,0,0,0,3.14-3.43v-.34A3.45,3.45,0,0,0,441.65,172.06Z"/><path class="cls-2" d="M422.87,712.45a2.75,2.75,0,0,0-.05.57,3.45,3.45,0,0,0,2.92,3.39,2.42,2.42,0,0,0,.54.06,3.51,3.51,0,0,0,3.42-3l0-.48V713a3.43,3.43,0,0,0-2.91-3.37A3.37,3.37,0,0,0,422.87,712.45Z"/><path class="cls-2" d="M394.37,180.57a3.11,3.11,0,0,0-.93.13,3.44,3.44,0,0,0-2.55,3.3,3.3,3.3,0,0,0,.13.95,3.45,3.45,0,0,0,3.32,2.53,3.06,3.06,0,0,0,.93-.13,3.44,3.44,0,0,0,2.53-3.3,4.27,4.27,0,0,0-.11-.92A3.44,3.44,0,0,0,394.37,180.57Z"/><path class="cls-2" d="M409.92,176.79a4.3,4.3,0,0,0-.71.07,3.48,3.48,0,0,0-2.72,3.41,4.29,4.29,0,0,0,.07.7,3.46,3.46,0,0,0,3.38,2.73,4.51,4.51,0,0,0,.73-.07,3.48,3.48,0,0,0,2.73-3.39,4,4,0,0,0-.07-.69A3.44,3.44,0,0,0,409.92,176.79Z"/><path class="cls-2" d="M332.43,680.72a3.45,3.45,0,0,0,3,5.11,3.43,3.43,0,0,0,3-1.76,3.28,3.28,0,0,0,.46-1.67,3.43,3.43,0,0,0-1.76-3A3.54,3.54,0,0,0,332.43,680.72Z"/><path class="cls-2" d="M349.32,197.36a3.3,3.3,0,0,0-1.49.35,3.47,3.47,0,0,0-1.94,3.11,3.91,3.91,0,0,0,.32,1.51,3.47,3.47,0,0,0,6.59-1.51,3.68,3.68,0,0,0-.34-1.48A3.43,3.43,0,0,0,349.32,197.36Z"/><path class="cls-2" d="M379.55,698.32a3.49,3.49,0,0,0-3.33,2.42,4.13,4.13,0,0,0-.15,1,3.47,3.47,0,0,0,2.42,3.3,3.71,3.71,0,0,0,1,.16,3.44,3.44,0,0,0,3.26-2.3,3.17,3.17,0,0,0,.19-1.16,3.46,3.46,0,0,0-2.39-3.29A3.92,3.92,0,0,0,379.55,698.32Z"/><path class="cls-2" d="M333.38,205.15a3.5,3.5,0,0,0-1.73,3,3.45,3.45,0,0,0,3.45,3.44,3.15,3.15,0,0,0,1.66-.45,3.44,3.44,0,0,0,1.8-3,3.24,3.24,0,0,0-.44-1.66A3.5,3.5,0,0,0,333.38,205.15Z"/><path class="cls-2" d="M346.65,688.22a3.4,3.4,0,0,0-.35,1.5,3.47,3.47,0,0,0,1.95,3.11,3.42,3.42,0,0,0,1.51.35,3.46,3.46,0,0,0,3.1-1.95,3.31,3.31,0,0,0,.35-1.53,3.43,3.43,0,0,0-1.94-3.1A3.53,3.53,0,0,0,346.65,688.22Z"/><path class="cls-2" d="M379,185.27a3.83,3.83,0,0,0-1.1.18,3.45,3.45,0,0,0-2.34,3.27,2.87,2.87,0,0,0,.18,1.1,3.45,3.45,0,0,0,3.28,2.36,4,4,0,0,0,1.11-.18,3.48,3.48,0,0,0,2.35-3.28,3.19,3.19,0,0,0-.2-1.1A3.44,3.44,0,0,0,379,185.27Z"/><path class="cls-2" d="M362.69,191.13a3.46,3.46,0,0,0-2.17,3.24,3.25,3.25,0,0,0,.26,1.24,3.42,3.42,0,0,0,3.19,2.17,3.62,3.62,0,0,0,1.33-.25,3.49,3.49,0,0,0,2.13-3.23,3.2,3.2,0,0,0-.25-1.27A3.48,3.48,0,0,0,362.69,191.13Z"/><path class="cls-2" d="M365.75,693a3.55,3.55,0,0,0-4.53,2,3.92,3.92,0,0,0-.22,1.22,3.44,3.44,0,0,0,2.16,3.21,3.4,3.4,0,0,0,1.3.27,3.45,3.45,0,0,0,3.2-2.15,3.32,3.32,0,0,0,.25-1.33,3.46,3.46,0,0,0-2.13-3.18Z"/><path class="cls-2" d="M506.2,709.51a2.47,2.47,0,0,0-.5,0,3.46,3.46,0,0,0,.5,6.88l.51,0a3.46,3.46,0,0,0,3-3.42c0-.09,0-.19,0-.51A3.43,3.43,0,0,0,506.2,709.51Z"/><path class="cls-2" d="M551.82,698.43a3.45,3.45,0,0,0-2.34,3.27,3.2,3.2,0,0,0,.17,1.11,3.46,3.46,0,0,0,3.28,2.35A3.29,3.29,0,0,0,554,705a3.5,3.5,0,0,0,2.35-3.26,3.17,3.17,0,0,0-.2-1.1,3.43,3.43,0,0,0-3.26-2.35A3.23,3.23,0,0,0,551.82,698.43Z"/><path class="cls-2" d="M581.11,686.52a3.47,3.47,0,0,0-2,3.11,3.35,3.35,0,0,0,.34,1.48,3.47,3.47,0,0,0,3.12,2,3.2,3.2,0,0,0,1.48-.34,3.42,3.42,0,0,0,2-3.12,3.75,3.75,0,0,0-.31-1.48A3.55,3.55,0,0,0,581.11,686.52Z"/><path class="cls-2" d="M490,172h-.29a3.46,3.46,0,0,0-3.45,3.14v.27a3.47,3.47,0,0,0,3.13,3.5h.32a3.43,3.43,0,0,0,3.43-3.13l0-.3A3.47,3.47,0,0,0,490,172Z"/><path class="cls-2" d="M568.79,190.84a3.34,3.34,0,0,0-1.32-.25,3.41,3.41,0,0,0-3.18,2.14A3.18,3.18,0,0,0,564,194a3.45,3.45,0,0,0,3.48,3.48,3.44,3.44,0,0,0,3.19-2.14A4.26,4.26,0,0,0,571,194,3.46,3.46,0,0,0,568.79,190.84Z"/><path class="cls-2" d="M566.91,692.81l-.27.09a3.46,3.46,0,0,0-2.14,3.23,3.32,3.32,0,0,0,.26,1.27,3.45,3.45,0,0,0,3.2,2.16,2.92,2.92,0,0,0,1.29-.26,3.41,3.41,0,0,0,2.16-3.22,3.26,3.26,0,0,0-.25-1.29A3.48,3.48,0,0,0,566.91,692.81Z"/><path class="cls-2" d="M612.13,213a3.54,3.54,0,0,0-4.73,1.08,3.44,3.44,0,0,0,1.05,4.77,3.37,3.37,0,0,0,1.85.56,3.49,3.49,0,0,0,3.48-3.52A3.51,3.51,0,0,0,612.13,213Z"/><path class="cls-2" d="M595.15,679.29a3.47,3.47,0,0,0-1.73,3,3.65,3.65,0,0,0,.41,1.65,3.44,3.44,0,0,0,3,1.78,3.58,3.58,0,0,0,1.69-.44,3.47,3.47,0,0,0,1.74-3,3.44,3.44,0,0,0-5.15-3Z"/><path class="cls-2" d="M598.15,204.79a3.52,3.52,0,0,0-4.68,1.34,3.35,3.35,0,0,0-.45,1.67,3.45,3.45,0,0,0,1.76,3,3.33,3.33,0,0,0,1.7.46,3.46,3.46,0,0,0,1.67-6.49Z"/><path class="cls-2" d="M583.64,197.34a3.55,3.55,0,0,0-4.6,1.71,3.66,3.66,0,0,0-.3,1.45,3.47,3.47,0,0,0,3.45,3.45,3.47,3.47,0,0,0,3.46-3.48,3.38,3.38,0,0,0-1.31-2.68v-.15Z"/><path class="cls-2" d="M506.22,173.86a2.71,2.71,0,0,0-.52,0,3.48,3.48,0,0,0-3.49,3.18v.29a3.39,3.39,0,0,0,2.9,3.39,2.61,2.61,0,0,0,.58,0,3.43,3.43,0,0,0,3.38-2.89,2.75,2.75,0,0,0,.05-.57A3.46,3.46,0,0,0,506.22,173.86Z"/><path class="cls-2" d="M522.19,176.7a3.15,3.15,0,0,0-.75-.07,3.49,3.49,0,0,0-3.39,2.86,4,4,0,0,0,0,.57,3.5,3.5,0,0,0,2.81,3.42,4.76,4.76,0,0,0,.65.06,3.51,3.51,0,0,0,3.4-2.84,4.56,4.56,0,0,0,0-.62A3.49,3.49,0,0,0,522.19,176.7Z"/><path class="cls-2" d="M318.75,672.34a3.4,3.4,0,0,0-.56,1.88,3.44,3.44,0,0,0,1.63,2.91A3.48,3.48,0,0,0,324.6,676a3.6,3.6,0,0,0,.5-1.83,3.4,3.4,0,0,0-1.6-2.89A3.52,3.52,0,0,0,318.75,672.34Z"/><path class="cls-2" d="M490.28,711.4H490a3.43,3.43,0,0,0-3.14,3.4v.35a3.46,3.46,0,0,0,3.43,3.16l.3,0a3.45,3.45,0,0,0,3.16-3.45v-.3A3.45,3.45,0,0,0,490.28,711.4Z"/><path class="cls-2" d="M553.52,185.19a3.33,3.33,0,0,0-1.12-.18,3.4,3.4,0,0,0-3.23,2.29,3,3,0,0,0-.22,1.17,3.52,3.52,0,0,0,3.45,3.46,3.44,3.44,0,0,0,3.26-2.31,3.08,3.08,0,0,0,.2-1.17A3.43,3.43,0,0,0,553.52,185.19Z"/><path class="cls-2" d="M537.59,702.92a3.8,3.8,0,0,0-.9.11,3.45,3.45,0,0,0-2.56,3.33,3.09,3.09,0,0,0,.13.92,3.46,3.46,0,0,0,3.33,2.56,3.69,3.69,0,0,0,.92-.12A3.51,3.51,0,0,0,541,706.4a2.88,2.88,0,0,0-.13-.91A3.44,3.44,0,0,0,537.59,702.92Z"/><path class="cls-2" d="M608.82,671.21a3.45,3.45,0,1,0,5.28,2.94,3.67,3.67,0,0,0-.52-1.87A3.58,3.58,0,0,0,608.82,671.21Z"/><path class="cls-2" d="M538,180.47h0A3.46,3.46,0,0,0,533.7,183a3.74,3.74,0,0,0-.1.89,3.44,3.44,0,0,0,2.58,3.3,3.33,3.33,0,0,0,.88.13,3.44,3.44,0,0,0,3.3-2.49,2.94,2.94,0,0,0,.15-.94A3.47,3.47,0,0,0,538,180.47Z"/><path class="cls-2" d="M521.3,706.75h0a3.45,3.45,0,0,0-2.76,3.41,5.82,5.82,0,0,0,.07.7,3.44,3.44,0,0,0,3.39,2.73,4.4,4.4,0,0,0,.72-.07,3.48,3.48,0,0,0,2.73-3.38,4.49,4.49,0,0,0-.07-.71A3.44,3.44,0,0,0,521.3,706.75Z"/><path class="cls-2" d="M192.42,428.81l-.08.6a3.47,3.47,0,0,0,3.1,3.44l.38,0a3.46,3.46,0,1,0,0-6.92A3.42,3.42,0,0,0,192.42,428.81Z"/><path class="cls-2" d="M192.33,447.1l.27.47,4.7.81.42-.4a3.45,3.45,0,1,0-5.82-2.54A3.37,3.37,0,0,0,192.33,447.1Z"/><path class="cls-2" d="M193.76,413v.43a3.39,3.39,0,0,0,2.89,3.38,2.15,2.15,0,0,0,.57.06,3.49,3.49,0,0,0,3.43-3.21v-.27a3.35,3.35,0,0,0-2.9-3.38,2.22,2.22,0,0,0-.58-.06A3.43,3.43,0,0,0,193.76,413Z"/><path class="cls-2" d="M319.47,213.42a3.49,3.49,0,0,0-1.62,2.9,3.46,3.46,0,0,0,5.32,2.94,3.51,3.51,0,0,0,1.59-3,3.25,3.25,0,0,0-.53-1.74A3.49,3.49,0,0,0,319.47,213.42Z"/><path class="cls-2" d="M226.63,318.66h0a3.5,3.5,0,0,0-4.61,1.47,3.15,3.15,0,0,0-.4,1.58,3.32,3.32,0,0,0,1.85,3.09,3.21,3.21,0,0,0,1.6.39,3.5,3.5,0,0,0,3.1-1.9,3.63,3.63,0,0,0,.36-1.53A3.49,3.49,0,0,0,226.63,318.66Z"/><path class="cls-2" d="M217,551.37a3.45,3.45,0,0,0,1.41,6.61,3.23,3.23,0,0,0,1.4-.3,3.44,3.44,0,0,0,1.76-4.53A3.53,3.53,0,0,0,217,551.37Z"/><path class="cls-2" d="M212.32,543.16a3.18,3.18,0,0,0,1.21-.23,3.5,3.5,0,0,0,2.25-3.25,2.87,2.87,0,0,0-.24-1.19,3.43,3.43,0,0,0-3.22-2.27,3.53,3.53,0,0,0-1.2.24,3.41,3.41,0,0,0-2.26,3.24,3.47,3.47,0,0,0,3.46,3.46Z"/><path class="cls-2" d="M219.55,333.08a3.5,3.5,0,0,0-4.86,3.2,3.42,3.42,0,0,0,2.06,3.12,3.31,3.31,0,0,0,1.4.31,3.46,3.46,0,0,0,3.16-2,3.27,3.27,0,0,0,.3-1.43A3.48,3.48,0,0,0,219.55,333.08Z"/><path class="cls-2" d="M196.11,397a3.63,3.63,0,0,0,0,.57,3.35,3.35,0,0,0,2.67,3.36,2.5,2.5,0,0,0,.78.1,3.47,3.47,0,0,0,3.4-2.86,3.84,3.84,0,0,0,.06-.62,3.47,3.47,0,0,0-6.88-.55Z"/><path class="cls-2" d="M199.39,381.23c0,.21,0,.41,0,.6a3.43,3.43,0,0,0,2.62,3.4,3.29,3.29,0,0,0,.83.08,3.44,3.44,0,0,0,3.36-2.63,3.32,3.32,0,0,0,.1-.81,3.46,3.46,0,0,0-6.87-.64Z"/><path class="cls-2" d="M197.25,480.93a1.67,1.67,0,0,0,.41,0,3.5,3.5,0,0,0,3.07-3.41c0-.1,0-.2,0-.45a3.52,3.52,0,0,0-3.45-3.05l-.41,0a3.45,3.45,0,0,0-3,3.43v.41A3.45,3.45,0,0,0,197.25,480.93Zm0-1.16Z"/><path class="cls-2" d="M454.26,174a2.21,2.21,0,0,0-.06.63,3.47,3.47,0,0,0,3.48,3.35h.09a3.41,3.41,0,0,0,2.22-.94l1.36-1.28-1.75-.64c-.23-.08-.46-.16-.71-.27a20.36,20.36,0,0,1-2.89-1.55l-1.36-.87Z"/><path class="cls-2" d="M199.62,496.78a4.74,4.74,0,0,0,.63,0,3.48,3.48,0,0,0,2.83-3.42,3.34,3.34,0,0,0,0-.6,3.48,3.48,0,0,0-3.42-2.85,3.42,3.42,0,0,0-.62.06,3.47,3.47,0,0,0-2.83,3.39,4.07,4.07,0,0,0,.06.61A3.46,3.46,0,0,0,199.62,496.78Z"/><path class="cls-2" d="M196.13,464.93a3.46,3.46,0,0,0-.5-6.9h0a3.53,3.53,0,0,0-3.23,3.65,3.47,3.47,0,0,0,3.46,3.28Zm-.15-1.15Z"/><path class="cls-2" d="M202.92,512.49a3.18,3.18,0,0,0,.82-.1A3.51,3.51,0,0,0,206.4,509l0-.29a3.12,3.12,0,0,0-.07-.51,3.46,3.46,0,0,0-4.2-2.55,3.54,3.54,0,0,0-2.64,3.4,3,3,0,0,0,.1.77A3.44,3.44,0,0,0,202.92,512.49Z"/><path class="cls-2" d="M207,362.93a3.43,3.43,0,0,0-3.32,2.44,3.64,3.64,0,0,0-.14,1,3.43,3.43,0,0,0,3.5,3.43,3.46,3.46,0,0,0,3.27-2.43,3.31,3.31,0,0,0,.14-1,3.41,3.41,0,0,0-2.45-3.29h0A3.27,3.27,0,0,0,207,362.93Z"/><path class="cls-2" d="M207.16,528a3.26,3.26,0,0,0,1-.14,3.47,3.47,0,0,0,2.46-3.29,3.31,3.31,0,0,0-.15-1,3.42,3.42,0,0,0-3.29-2.46,3.25,3.25,0,0,0-1,.17,3.44,3.44,0,0,0,1,6.74Z"/><path class="cls-2" d="M213.32,347.89h0a3.53,3.53,0,0,0-4.39,2,3.12,3.12,0,0,0-.26,1.26,3.44,3.44,0,0,0,2.28,3.25,3.6,3.6,0,0,0,1.17.2,3.46,3.46,0,0,0,3.22-2.17,3.12,3.12,0,0,0,.26-1.26A3.49,3.49,0,0,0,213.32,347.89Z"/><path class="cls-2" d="M280.87,642.68h0a3.44,3.44,0,0,0,.23,4.85,3.37,3.37,0,0,0,2.33.92,3.46,3.46,0,1,0-2.55-5.78Z"/><path class="cls-2" d="M280.81,243a3.45,3.45,0,0,0-.2,4.85,3.45,3.45,0,0,0,2.56,1.14,3.61,3.61,0,0,0,2.36-.92,3.49,3.49,0,0,0,1.1-2.56,3.42,3.42,0,0,0-.94-2.34A3.53,3.53,0,0,0,280.81,243Z"/><path class="cls-2" d="M269.51,631.36a3.5,3.5,0,0,0-1.06,2.44,3.46,3.46,0,1,0,6.91,0,3.36,3.36,0,0,0-1-2.36A3.5,3.5,0,0,0,269.51,631.36Z"/><path class="cls-2" d="M293.14,232.38a3.46,3.46,0,0,0-1.3,2.68,3.58,3.58,0,0,0,.79,2.21,3.44,3.44,0,0,0,4.85.49,3.44,3.44,0,0,0,1.27-2.77,3.39,3.39,0,0,0-.78-2.12A3.54,3.54,0,0,0,293.14,232.38Z"/><path class="cls-2" d="M269.18,254.36a3.44,3.44,0,0,0-1,2.43,3.4,3.4,0,0,0,1,2.45,3.52,3.52,0,0,0,2.4,1,3.41,3.41,0,0,0,2.45-1,3.45,3.45,0,1,0-4.94-4.81Z"/><path class="cls-2" d="M305.52,663.21h0a3.64,3.64,0,0,0-.64,2.1,3.45,3.45,0,0,0,1.45,2.71,3.41,3.41,0,0,0,2,.66,3.49,3.49,0,0,0,3.46-3.51,3.37,3.37,0,0,0-1.43-2.75A3.55,3.55,0,0,0,305.52,663.21Z"/><path class="cls-2" d="M292.89,653.32a3.45,3.45,0,0,0-.76,2.19,3.41,3.41,0,0,0,1.24,2.61,3.31,3.31,0,0,0,2.22.82,3.48,3.48,0,0,0,3.45-3.48,3.47,3.47,0,0,0-1.26-2.66A3.58,3.58,0,0,0,292.89,653.32Z"/><path class="cls-2" d="M306,222.5a3.47,3.47,0,0,0-.81,4.83,3.42,3.42,0,0,0,2.81,1.44,3.67,3.67,0,0,0,2.06-.66,3.59,3.59,0,0,0,1.4-2.75,3.47,3.47,0,0,0-.65-2.05A3.59,3.59,0,0,0,306,222.5Z"/><path class="cls-2" d="M243.33,291.26a3.56,3.56,0,0,0-4.83.93,3.51,3.51,0,0,0-.58,1.92,3.45,3.45,0,0,0,6.33,1.91,3.48,3.48,0,0,0,.58-1.91A3.38,3.38,0,0,0,243.33,291.26Z"/><path class="cls-2" d="M258.84,619.37a3.45,3.45,0,0,0-1.22,2.73,3.58,3.58,0,0,0,.83,2.16,3.5,3.5,0,0,0,2.62,1.2,3.35,3.35,0,0,0,2.23-.84,3.42,3.42,0,0,0,1.23-2.66,3.3,3.3,0,0,0-.83-2.21A3.58,3.58,0,0,0,258.84,619.37Z"/><path class="cls-2" d="M239.63,593.69a3.43,3.43,0,0,0-1.48,2.86A3.44,3.44,0,0,0,241.6,600a3.65,3.65,0,0,0,2-.61,3.59,3.59,0,0,0,1.49-2.84,3.36,3.36,0,0,0-.6-1.92A3.56,3.56,0,0,0,239.63,593.69Z"/><path class="cls-2" d="M223.67,565.92a3.44,3.44,0,0,0-1.86,3.07,3.16,3.16,0,0,0,.37,1.54,3.4,3.4,0,0,0,3.09,1.91,3.27,3.27,0,0,0,1.55-.39A3.39,3.39,0,0,0,228.7,569a3.3,3.3,0,0,0-.38-1.58A3.57,3.57,0,0,0,223.67,565.92Z"/><path class="cls-2" d="M234.56,304.71h0a3.48,3.48,0,0,0-4.7,1.2,3.4,3.4,0,0,0-.49,1.84,3.48,3.48,0,0,0,1.71,2.93,3.55,3.55,0,0,0,1.74.47,3.45,3.45,0,0,0,3-1.7,3.54,3.54,0,0,0,.48-1.78A3.41,3.41,0,0,0,234.56,304.71Z"/><path class="cls-2" d="M231.24,580a3.48,3.48,0,0,0-1.68,3.08,3.59,3.59,0,0,0,.48,1.65,3.42,3.42,0,0,0,3,1.69,3.25,3.25,0,0,0,1.75-.47,3.45,3.45,0,0,0,1.71-3,3.4,3.4,0,0,0-.5-1.8A3.51,3.51,0,0,0,231.24,580Z"/><path class="cls-2" d="M252.84,278.32A3.6,3.6,0,0,0,248,279a3.34,3.34,0,0,0-.73,2.09,3.46,3.46,0,0,0,1.37,2.77,3.45,3.45,0,0,0,5.54-2.8A3.4,3.4,0,0,0,252.84,278.32Z"/><path class="cls-2" d="M258.21,266.34a3.46,3.46,0,0,0,.39,4.87,3.48,3.48,0,0,0,4.86-.34,3.47,3.47,0,0,0-.37-4.9A3.56,3.56,0,0,0,258.21,266.34Z"/><path class="cls-2" d="M248.86,606.8a3.48,3.48,0,0,0-1.36,2.79,3.34,3.34,0,0,0,.72,2.07A3.47,3.47,0,0,0,251,613a3.58,3.58,0,0,0,2.11-.72,3.45,3.45,0,0,0,1.35-2.76,3.36,3.36,0,0,0-.71-2.06A3.58,3.58,0,0,0,248.86,606.8Z"/><path class="cls-2" d="M736,493.66a3.13,3.13,0,0,0,0-.61,3.45,3.45,0,0,0-6.84-.62,3.18,3.18,0,0,0-.07.62,3.42,3.42,0,0,0,2.87,3.39,4.2,4.2,0,0,0,.61.06A3.46,3.46,0,0,0,736,493.66Z"/><path class="cls-2" d="M732.54,393.26a3.7,3.7,0,0,0-.63.06,3.47,3.47,0,0,0-2.83,3.39,3,3,0,0,0,0,.6l.18,1h.15a3.45,3.45,0,0,0,3.09,1.89,4.49,4.49,0,0,0,.62,0,3.48,3.48,0,0,0,2.83-3.42,4.07,4.07,0,0,0-.06-.6A3.45,3.45,0,0,0,732.54,393.26Z"/><path class="cls-2" d="M736.36,425.1h-.2a3.43,3.43,0,0,0-3.26,3.41v.24a3.44,3.44,0,0,0,3.65,3.26h0a3.34,3.34,0,0,0,2.53-1.39,3.45,3.45,0,0,0,.71-2.29A3.48,3.48,0,0,0,736.36,425.1Z"/><path class="cls-2" d="M734.88,409.11l-.38,0a3.46,3.46,0,0,0-3,3.43,1.55,1.55,0,0,0,0,.4,3.47,3.47,0,0,0,3.43,3.07l.41,0a3.43,3.43,0,0,0,3-3.42v-.43A3.51,3.51,0,0,0,734.88,409.11Z"/><path class="cls-2" d="M725,362.1a3.42,3.42,0,0,0-1,.15,3.46,3.46,0,0,0-2.45,3.29,3.58,3.58,0,0,0,.16,1A3.44,3.44,0,0,0,725,369a3.62,3.62,0,0,0,1-.17,3.41,3.41,0,0,0,2.43-3.29,3.64,3.64,0,0,0-.14-1A3.45,3.45,0,0,0,725,362.1Z"/><path class="cls-2" d="M728.39,377.67a3.44,3.44,0,0,0-2.63,3.33,3.9,3.9,0,0,0,.1.85,3.43,3.43,0,0,0,3.33,2.63,3.85,3.85,0,0,0,.83-.1,3.51,3.51,0,0,0,2.66-3.38,3.15,3.15,0,0,0-.11-.8A3.51,3.51,0,0,0,728.39,377.67Z"/><path class="cls-2" d="M708.58,565.75a3.5,3.5,0,0,0-4.6,1.47,3.19,3.19,0,0,0-.41,1.61,3.41,3.41,0,0,0,1.83,3,3.2,3.2,0,0,0,1.63.4,3.45,3.45,0,0,0,1.55-6.53Z"/><path class="cls-2" d="M625.65,222.11l-1.82-1.28v.66a3.39,3.39,0,0,0-3,1.42,3.48,3.48,0,0,0,.77,4.83l.32.22h0a3.37,3.37,0,0,0,1.68.44,3.43,3.43,0,0,0,2.8-1.45,3.45,3.45,0,0,0-.79-4.84Z"/><path class="cls-2" d="M476.58,716.93l1.19,0,0-1.2a3.47,3.47,0,0,0-3.58-3.34,3.38,3.38,0,0,0-3.07,2.13l-.28.7,1.75,1.75Z"/><path class="cls-2" d="M473.65,178h.05a3.5,3.5,0,0,0,3.44-3l.34-2.42-2.08,1.27a13.48,13.48,0,0,1-2.08,1.05c-.42.18-.83.33-1.27.48l-2.2.76,1.94,1.29A3.63,3.63,0,0,0,473.65,178Z"/><path class="cls-2" d="M725.14,527.68a3.45,3.45,0,0,0,3.28-2.44,3.18,3.18,0,0,0,.18-1,3.55,3.55,0,0,0-2.44-3.28h0a3.27,3.27,0,0,0-1-.15,3.47,3.47,0,0,0-3.31,2.46,3.31,3.31,0,0,0-.15,1,3.48,3.48,0,0,0,2.44,3.3A3.7,3.7,0,0,0,725.14,527.68Z"/><path class="cls-2" d="M738.39,477.65a2,2,0,0,0,.05-.5,3.39,3.39,0,0,0-2.91-3.38,2.56,2.56,0,0,0-.58,0,3.39,3.39,0,0,0-3.37,2.92,2.19,2.19,0,0,0-.06.58,3.53,3.53,0,0,0,3.18,3.41H735A3.45,3.45,0,0,0,738.39,477.65Z"/><path class="cls-2" d="M739.84,461.41v-.25a2.81,2.81,0,0,0-.23-1.15l-.29-.72h-5.79l-.32.64a2.81,2.81,0,0,0-.25.94l0,.12v.28a3.45,3.45,0,0,0,3.08,3.35l.37,0A3.46,3.46,0,0,0,739.84,461.41Z"/><path class="cls-2" d="M729.36,512.19a3.43,3.43,0,0,0,3.35-2.63,3.3,3.3,0,0,0,.1-.8,3.51,3.51,0,0,0-2.65-3.38,3.47,3.47,0,0,0-4.21,2.74,4.15,4.15,0,0,0-.05.59,3.44,3.44,0,0,0,2.61,3.4l.15,0A5.36,5.36,0,0,0,729.36,512.19Z"/><path class="cls-2" d="M712.35,332.39a3.47,3.47,0,0,0-2.07,3.13,3.56,3.56,0,0,0,.29,1.39,3.43,3.43,0,0,0,3.16,2.09,3.34,3.34,0,0,0,1.41-.31,3.46,3.46,0,0,0,2.05-3.24,3,3,0,0,0-.29-1.3A3.54,3.54,0,0,0,712.35,332.39Z"/><path class="cls-2" d="M718.81,542.71a3.74,3.74,0,0,0,1.17.2,3.51,3.51,0,0,0,3.26-2.3,3.66,3.66,0,0,0,.19-1.16,3.45,3.45,0,0,0-6.71-1.16,3.41,3.41,0,0,0-.2,1.16A3.49,3.49,0,0,0,718.81,542.71Z"/><path class="cls-2" d="M715.33,551.19a3.46,3.46,0,0,0-4.53,1.74,3.38,3.38,0,0,0-.31,1.43,3.5,3.5,0,0,0,2.12,3.18,3.89,3.89,0,0,0,1.33.25,3.51,3.51,0,0,0,3.2-2.12,3.94,3.94,0,0,0,.26-1.36A3.4,3.4,0,0,0,715.33,551.19Z"/><path class="cls-2" d="M718.59,347.13a3.41,3.41,0,0,0-2.25,3.25,3.76,3.76,0,0,0,.21,1.21,3.48,3.48,0,0,0,3.24,2.24,3.12,3.12,0,0,0,1.22-.23,3.48,3.48,0,0,0,2.24-3.25,3.6,3.6,0,0,0-.22-1.23A3.42,3.42,0,0,0,718.59,347.13Z"/><path class="cls-2" d="M646,242.81a3.52,3.52,0,0,0-.89,2.32,3.43,3.43,0,0,0,1.12,2.54,3.36,3.36,0,0,0,2.34.91,3.55,3.55,0,0,0,2.56-1.12,3.48,3.48,0,0,0-.25-4.9A3.55,3.55,0,0,0,646,242.81Z"/><path class="cls-2" d="M679,277.81a3.43,3.43,0,0,0-.64,4.86,3.46,3.46,0,1,0,.64-4.86Z"/><path class="cls-2" d="M668.54,619.7a3.49,3.49,0,0,0,2.64,5.72,3.5,3.5,0,0,0,2.64-1.23,3.74,3.74,0,0,0,.81-2.25,3.36,3.36,0,0,0-1.21-2.61A3.57,3.57,0,0,0,668.54,619.7Z"/><path class="cls-2" d="M668.72,265.48a3.45,3.45,0,0,0-1.23,2.74,3.65,3.65,0,0,0,.84,2.16A3.46,3.46,0,0,0,674.4,268a3.44,3.44,0,0,0-5.68-2.52Z"/><path class="cls-2" d="M633.71,232.5a3.47,3.47,0,0,0,.51,4.85,3.42,3.42,0,0,0,2.19.77A3.47,3.47,0,0,0,638.6,232,3.59,3.59,0,0,0,633.71,232.5Z"/><path class="cls-2" d="M678.55,607.4a3.47,3.47,0,0,0,.69,4.89,3.64,3.64,0,0,0,2,.66,3.46,3.46,0,0,0,2.78-1.38,3.55,3.55,0,0,0,.68-2.12,3.42,3.42,0,0,0-1.35-2.69A3.56,3.56,0,0,0,678.55,607.4Z"/><path class="cls-2" d="M705.24,318a3.42,3.42,0,0,0-1.87,3.07,3.63,3.63,0,0,0,.38,1.6,3.47,3.47,0,0,0,3.07,1.86,3.79,3.79,0,0,0,1.6-.39,3.47,3.47,0,0,0,1.86-3.07,3.68,3.68,0,0,0-.39-1.6A3.4,3.4,0,0,0,705.24,318Z"/><path class="cls-2" d="M634.5,652.75h0a3.42,3.42,0,0,0-1.27,2.66,3.42,3.42,0,0,0,3.46,3.47,3.29,3.29,0,0,0,2.16-.77,3.42,3.42,0,0,0,1.29-2.66,3.47,3.47,0,0,0-.76-2.19A3.57,3.57,0,0,0,634.5,652.75Z"/><path class="cls-2" d="M697.28,304.11a3.46,3.46,0,0,0,1.75,6.43,3.68,3.68,0,0,0,1.81-.49,3.46,3.46,0,0,0-3.56-5.94Z"/><path class="cls-2" d="M687.82,594.52a3.3,3.3,0,0,0-.61,1.93,3.46,3.46,0,0,0,6.34,1.92,3.54,3.54,0,0,0,.58-1.92,3.42,3.42,0,0,0-1.54-2.87A3.58,3.58,0,0,0,687.82,594.52Z"/><path class="cls-2" d="M701,579.9a3.49,3.49,0,0,0-4.7,1.23,3.43,3.43,0,0,0,1.15,4.69,3.21,3.21,0,0,0,1.79.52,3.47,3.47,0,0,0,3-1.74,3.77,3.77,0,0,0,.45-1.75,3.54,3.54,0,0,0-1.68-2.93Z"/><path class="cls-2" d="M622,662.34h0a3.45,3.45,0,0,0-.81,4.83,3.41,3.41,0,0,0,2.8,1.46,3.49,3.49,0,0,0,3.46-3.43,3.45,3.45,0,0,0-5.43-2.87Z"/><path class="cls-2" d="M646.52,642.39h0a3.44,3.44,0,0,0-1.14,2.58,3.43,3.43,0,0,0,3.46,3.43,3.48,3.48,0,0,0,2.36-.91,3.57,3.57,0,0,0,1.09-2.55,3.47,3.47,0,0,0-.89-2.31A3.54,3.54,0,0,0,646.52,642.39Z"/><path class="cls-2" d="M735.27,448.23l1,.48,2-3.54L735.9,441l-1,.72a3.43,3.43,0,0,0-1.48,2.83c0,.09,0,.17,0,.3l0,.28A3.46,3.46,0,0,0,735.27,448.23Z"/><path class="cls-2" d="M688.54,290.68a3.44,3.44,0,0,0,1.92,6.31,3.37,3.37,0,0,0,1.94-.59,3.48,3.48,0,0,0,1.52-2.86,3.35,3.35,0,0,0-.6-1.9A3.58,3.58,0,0,0,688.54,290.68Z"/><path class="cls-2" d="M657.66,253.83a3.66,3.66,0,0,0-1,2.43,3.35,3.35,0,0,0,1,2.45,3.45,3.45,0,0,0,4.86.06,3.42,3.42,0,0,0,1-2.54,3.36,3.36,0,0,0-1-2.35A3.52,3.52,0,0,0,657.66,253.83Z"/><path class="cls-2" d="M657.88,631.37a3.43,3.43,0,0,0-1,2.46,3.45,3.45,0,0,0,3.44,3.41,3.43,3.43,0,0,0,3.47-3.53,3.39,3.39,0,0,0-1-2.38A3.5,3.5,0,0,0,657.88,631.37Z"/><path class="cls-2" d="M489.78,733.66a289.87,289.87,0,0,0,264.43-260.5l0-.37-3.74-6.53-.32,3.67C738.29,607.51,625.48,719.1,487.78,729.49l-2.5.19,2.82,2.83-1.33,1.39Z"/><path class="cls-2" d="M181.6,464.35l-.07-1.07h-1.28a13.69,13.69,0,0,1-1.71-.09l-1.38-.16.09,1.38A289.94,289.94,0,0,0,442.43,733.66l3,.22-1.31-1.37,2.82-2.83-2.5-.19C304,718.87,191,604.89,181.6,464.35Z"/><path class="cls-2" d="M485.85,156.35l-1.58-.17.37,1.53,1.11.09h-1.11c0,.55,0,1.09-.07,1.64l-.09,1.16,1.16.08c138.83,9.42,252.55,121.07,264.55,259.7l.32,3.67,3.74-6.53,0-.37a289.92,289.92,0,0,0-268.36-260.8Z"/><path class="cls-2" d="M446.38,156.35C302.47,166.08,186.77,282,177.25,425.92l-.09,1.38,1.37-.16a17.7,17.7,0,0,1,1.92-.08h1.08l.07-1.08C191,284.36,305,170.3,446.58,160.68l1.17-.08-.1-1.16c0-.54-.06-1.08-.06-1.71l.36-1.48Z"/><path class="cls-2" d="M784.3,525.26l1-4.3c.64-2.7,1.27-5.46,1.85-8.2.34-1.6.67-3.18,1-4.78l.07-.36c.25-1.34.5-2.67.74-4,1.22-6.71,2.25-13.72,3.07-20.84l1-10.26c.12-1.41.23-2.8.32-4.21.12-1.61.21-3.23.3-4.85.09-1.35.15-2.71.22-4.07l.09-2.59c.09-2.33.13-4.67.18-7,0-1.53,0-3.08,0-4.6,0-.77,0-1.55,0-2.28v-1.13L894.77,440l-.1-4.66-100.59,1.78c-.24-10.51-1-21.15-2.29-31.66q-.56-4.62-1.25-9.21c-.23-1.52-.46-3.05-.71-4.54-.94-5.86-2.08-11.77-3.5-18.08l-1-4.45c-1.67-7.15-3.64-14.33-6-21.95l-1.38-4.31c-.86-2.68-1.82-5.48-2.94-8.57q-1.53-4.16-3.12-8.31c-.13-.32-.26-.67-.42-1.08-1-2.47-2-4.92-3-7.36-.58-1.39-1.18-2.78-1.79-4.15-1.2-2.73-2.45-5.46-3.72-8.14-1.13-2.36-2.27-4.69-3.44-7l89.71-45.69L847,248.49l-89.7,45.69c-1.24-2.38-2.5-4.75-3.81-7.11l-2.26-4c-2.06-3.65-4.32-7.43-6.67-11.19a6.5,6.5,0,0,0-.4-.63c-1.62-2.59-3.3-5.18-5-7.69-.84-1.28-1.7-2.56-2.57-3.8-3.17-4.65-6.56-9.33-10.09-13.9l-1-1.24c-3.68-4.76-7.49-9.4-11.29-13.76-1-1.19-2-2.33-3-3.47s-2-2.27-3.06-3.39c-3.31-3.65-6.74-7.25-10.21-10.69-1.79-1.79-3.62-3.56-5.45-5.32l-.45-.42q-1.58-1.5-3.2-3c-2.11-2-4.26-3.88-6.4-5.77-1.28-1.16-2.56-2.28-3.85-3.34q-3.46-3-7-5.82l-.34-.26c-2-1.61-4-3.17-6-4.72L726,104.19l-3.71-2.79-60.62,80.46a334.5,334.5,0,0,0-37.1-23.94l-4-2.15-3.84-2-.53,1,.19-1.2c-1.11-.58-2.21-1.15-3.31-1.7-1.59-.81-3.21-1.62-4.84-2.41-4.05-1.94-8.19-3.82-12.3-5.59q-4.2-1.81-8.44-3.52c-4.39-1.76-8.73-3.39-12.9-4.83-1.46-.51-2.92-1-4.37-1.5-2.91-1-5.83-1.92-8.79-2.82-10.06-3.07-20.29-5.66-30.43-7.69L550.18,24.8l-4.54-.88-19.22,98.72c-7.06-1.31-14.3-2.41-21.53-3.26-4-.48-7.82-.87-11.51-1.16l-3.85-.3c-1.34-.09-2.7-.18-4-.25l-7.61-.37c-7.09-.25-14.23-.28-21.25-.07-3.05.09-6.08.21-9.1.39-5.91.31-12.08.83-18.33,1.55l-.31,0c-1.41.15-2.84.31-4.24.5-2.82.37-5.63.76-8.4,1.18-.39.05-.81.12-1.23.2l-3.89.63c-3,.51-5.94,1-8.87,1.62-1.58.3-3.18.63-4.75,1l-2.95.66L371.94,27l-4.53,1L390,126c-1.32.31-2.61.62-3.9,1-4.37,1.09-8.73,2.28-13,3.54-6,1.77-11.88,3.71-17.56,5.75-1.46.51-2.9,1.05-4.35,1.6s-2.87,1.09-4.42,1.7c-1.39.54-2.78,1.07-4.28,1.69l-.33.13L338.46,143c-2.87,1.2-5.78,2.47-8.63,3.79-1.32.61-2.61,1.21-3.9,1.83s-2.76,1.32-4.1,2c-.75.35-1.5.73-2.22,1.1s-1.69.85-2.72,1.38c-2.41,1.22-4.84,2.5-7.23,3.82l-.85.47c-1.05.58-2.09,1.15-3.14,1.75a328.27,328.27,0,0,0-44.12,29.78l-63.41-78.29-3.62,2.89,63.42,78.32c-2.37,1.94-4.47,3.72-6.39,5.42s-4,3.45-5.9,5.23c-1,.88-2,1.76-2.9,2.66s-1.91,1.8-2.86,2.71l-5.63,5.49c-1,.93-1.89,1.86-2.79,2.81-1.77,1.81-3.51,3.66-5.25,5.52l-.17.18c-1.72,1.8-3.46,3.72-5.3,5.83s-3.47,4-5.15,5.93c-1.12,1.28-2.19,2.58-3.25,3.9-1.43,1.73-2.87,3.52-4.25,5.29-.81,1-1.62,2.07-2.4,3.1-.57.73-1.13,1.47-1.69,2.21l-.81,1.08c-.5.65-1,1.3-1.47,2l-.83,1.14c-.45.62-.9,1.24-1.33,1.85-.9,1.23-1.79,2.48-2.63,3.71-.38.52-.75,1.06-1.13,1.62l-.38.57-3,4.39c-.24.35-.47.69-.66,1-1.41,2.13-2.78,4.26-4.12,6.41-2.66,4.25-5.29,8.69-7.81,13.2-1.39,2.45-2.74,4.9-4,7.37l-.36.7c-.63,1.19-1.23,2.38-1.84,3.58l-.26.5c-.59,1.14-1.16,2.29-1.72,3.44l-.34.68c-.52,1-1,2.09-1.52,3.14L78.57,261.89l-2,4.21,91.22,42.53-1.27,2.78c-.61,1.36-1.21,2.73-1.78,4.08-.48,1.08-.94,2.18-1.39,3.27l-.3.72c-.56,1.34-1.11,2.68-1.64,4s-1.09,2.71-1.6,4.05c-3.26,8.47-6.13,16.93-8.53,25.15l-.4,1.36c-.25.84-.49,1.69-.71,2.51-.67,2.36-1.32,4.76-1.95,7.16l-.86,3.52c-.32,1.31-.64,2.61-.94,3.94-.92,4-1.82,8.23-2.73,13-.76,4.07-1.39,7.71-1.92,11.3-.2,1.3-.4,2.59-.58,3.91-.13,1-.27,1.94-.39,2.89-.23,1.76-.46,3.55-.64,5.3l-.79,7.61c-.09.89-.17,1.79-.23,2.66l0,.29c-.1,1.31-.21,2.6-.3,3.91q-.15,2.24-.27,4.47l0,.38c-.1,1.48-.17,3-.24,4.46l-.07,2.2c-.09,2.34-.13,4.67-.18,7,0,1.53,0,3.08,0,4.61,0,1.14,0,2.27,0,3.4L37.44,450.33l.09,4.63,100.6-1.75c0,.13,0,.27,0,.42v.31c0,.95,0,1.91.08,2.85,0,1.53.12,3,.19,4.59.26,5.09.62,10.09,1.06,14.88l.14,1.39c.09.86.18,1.72.28,2.56.18,1.86.39,3.68.62,5.54l.49,3.7c.63,4.64,1.35,9.25,2.15,13.71.49,2.7,1,5.39,1.55,8,1.08,5.21,2.17,10,3.35,14.67.35,1.37.72,2.76,1.09,4.12,2.37,8.86,5.11,17.59,8.14,25.94l.12.35c.47,1.31.94,2.62,1.43,3.89s1.06,2.82,1.62,4.21,1.1,2.79,1.66,4.19l.57,1.38c.35.85.7,1.71,1.07,2.56l.1.23c.57,1.37,1.17,2.73,1.77,4.1s1.2,2.73,1.83,4.09,1.25,2.71,1.89,4.07,1.28,2.69,1.95,4c.48,1,1,2,1.47,3L83.1,637.72l2.11,4.13,89.68-45.7.1.2c.51,1,1,1.92,1.52,2.85.71,1.37,1.46,2.71,2.2,4,3.12,5.68,6.52,11.42,10.1,17.07.56.88,1.11,1.76,1.69,2.63a327.19,327.19,0,0,0,21.57,29.57c.88,1.1,1.8,2.19,2.7,3.27l.21.25c3.42,4.1,7.14,8.31,11.06,12.49.79.85,1.59,1.69,2.38,2.53l5.82,6c4.64,4.66,9.56,9.29,14.6,13.72.89.82,1.8,1.62,2.7,2.38,4.36,3.8,8.5,7.21,12.65,10.42.83.66,1.68,1.31,2.53,2l.19.15-60.65,80.46,3.71,2.79,60.63-80.45c4.09,3.07,8.21,6,12.25,8.69,1.08.73,2.17,1.47,3.25,2.17l2.31,1.53c1.14.74,2.28,1.46,3.41,2.15,4,2.53,8,5,12.32,7.4,1.18.67,2.34,1.32,3.52,2,1.34.74,2.66,1.45,4,2.16s2.65,1.42,3.94,2.08,2.75,1.44,4.13,2.11c2.61,1.32,5.25,2.59,7.85,3.82a2.57,2.57,0,0,0,.37.16c2.77,1.29,5.55,2.55,8.34,3.75,1.39.6,2.8,1.2,4.22,1.78l4.22,1.73c3.85,1.56,7.94,3.09,12.36,4.64a1.8,1.8,0,0,0,.55.19c1.45.51,2.91,1,4.37,1.51s2.91,1,4.37,1.43l4.42,1.39c2.95.88,5.91,1.73,8.9,2.56s6,1.58,9,2.32c4.38,1.07,8.5,2,12.56,2.8L382,865.54l4.57.87,19.2-98.71c7.08,1.31,14.31,2.41,21.54,3.26,4.05.49,7.8.87,11.49,1.15l3.86.3c.94.08,1.89.14,2.84.19l8.82.44c7.06.25,14.22.27,21.26.07,3-.1,6.08-.21,9.1-.4,5.88-.31,12-.83,18.31-1.55,1.51-.16,3-.34,4.54-.53,10-1.25,20.17-3,30.1-5.25l22.62,98,4.53-1-22.63-98c1.17-.27,2.33-.55,3.5-.85,4.36-1.08,8.86-2.31,13.38-3.66l4.52-1.37c1.42-.45,2.86-.9,4.31-1.38s2.94-1,4.38-1.47,2.93-1,4.35-1.53c4-1.4,8.2-3,12.91-4.93q4.23-1.74,8.44-3.59l4.18-1.87c2.78-1.27,5.53-2.59,8.25-3.92l2.61-1.29.84-.43c2.94-1.48,5.83-3,8.72-4.58,2.66-1.45,5.3-3,7.93-4.48s5.23-3.08,7.79-4.67a316.58,316.58,0,0,0,26.15-18c2.1-1.57,4.18-3.2,6.25-4.85l63.42,78.3,3.57-2.94-63.4-78.29,2.62-2.18c3.35-2.8,6.82-5.84,10.32-9,1.11-1,2.22-2.05,3.33-3.09s2.22-2.09,3.3-3.14,2.2-2.14,3.26-3.2c2.15-2.12,4.25-4.28,6.33-6.44,1.09-1.12,2.16-2.26,3.2-3.4s2-2.19,3.08-3.39,2-2.26,3-3.38c1.35-1.49,2.65-3,3.93-4.53,1.61-1.94,3.23-3.88,4.82-5.84,2.73-3.35,5.5-6.94,8.49-11,2.6-3.48,5.19-7.14,7.62-10.77a5.17,5.17,0,0,0,.49-.7c4.13-6.06,8.16-12.5,12-19.15,4.45-7.63,8.61-15.5,12.37-23.4l91.2,42.53,2-4.2-91.2-42.52A325,325,0,0,0,784.3,525.26Zm5.28-80.09c0,178.36-145.1,323.47-323.47,323.47S142.65,623.53,142.65,445.17,287.75,121.7,466.11,121.7,789.58,266.8,789.58,445.17Z"/><rect class="cls-2" x="463.79" y="90.38" width="4.63" height="19.36"/><rect class="cls-2" x="463.79" y="778.23" width="4.63" height="64.83"/><rect class="cls-2" x="285.09" y="57.73" width="4.64" height="42.1" transform="translate(-5.45 133.97) rotate(-26)"/><rect class="cls-2" x="624" y="741.24" width="4.64" height="64.84" transform="translate(-275.77 352.87) rotate(-26)"/><rect class="cls-2" x="312.5" y="125.31" width="4.64" height="19.36" transform="translate(-27.31 151.65) rotate(-26)"/><rect class="cls-2" x="191.84" y="223.02" width="4.63" height="19.36" transform="translate(-108.74 242.43) rotate(-52)"/><rect class="cls-2" x="751.79" y="637.76" width="4.63" height="64.83" transform="translate(-238.27 851.81) rotate(-52)"/><rect class="cls-2" x="142.57" y="173.15" width="4.63" height="42.1" transform="translate(-97.34 188.81) rotate(-52)"/><rect class="cls-2" x="821.28" y="488.73" width="4.63" height="64.83" transform="translate(142.61 1218.41) rotate(-78)"/><rect class="cls-2" x="65.06" y="339.36" width="4.63" height="42.1" transform="translate(-299.17 351.4) rotate(-78)"/><rect class="cls-2" x="126.22" y="363.73" width="4.63" height="19.36" transform="translate(-263.47 421.19) rotate(-77.95)"/><rect class="cls-2" x="49.53" y="541.46" width="42.1" height="4.63" transform="translate(-129.45 33.23) rotate(-14)"/><rect class="cls-2" x="788.31" y="354.43" width="64.83" height="4.63" transform="translate(-61.93 209.16) rotate(-14)"/><rect class="cls-2" x="121.57" y="526.34" width="19.36" height="4.63" transform="translate(-123.99 47.45) rotate(-14)"/><rect class="cls-2" x="192.06" y="664.67" width="19.36" height="4.64" transform="translate(-381.57 285.77) rotate(-40)"/><rect class="cls-2" x="713.66" y="207.92" width="64.83" height="4.64" transform="translate(39.42 528.77) rotate(-40)"/><rect class="cls-2" x="132.79" y="704.87" width="42.1" height="4.64" transform="translate(-418.49 264.22) rotate(-39.99)"/><rect class="cls-2" x="279.26" y="815.24" width="42.1" height="4.64" transform="translate(-568.73 759.54) rotate(-66.01)"/><rect class="cls-2" x="316.06" y="758.12" width="19.36" height="4.63" transform="translate(-501.44 748.89) rotate(-66.01)"/><rect class="cls-2" x="582.34" y="108.96" width="64.84" height="4.63" transform="translate(263.16 627.7) rotate(-66.01)"/><path class="cls-2" d="M245.66,237a2.25,2.25,0,0,0,1.64-.71,2.36,2.36,0,0,0,.59-1.64,2.23,2.23,0,0,0-.7-1.48,2.33,2.33,0,0,0-1.65-.61,2.12,2.12,0,0,0-1.46.65,2.24,2.24,0,0,0,0,3.15A2.12,2.12,0,0,0,245.66,237Zm0-1.15Z"/><path class="cls-2" d="M222.23,264.71a2.3,2.3,0,0,0,1.77-.87l.14-.19c2.59-3.47,5.21-6.82,7.8-10,2.29-2.79,4.46-5.36,6.67-7.86a2.23,2.23,0,0,0,.53-1.64,2.13,2.13,0,0,0-.76-1.49,2.26,2.26,0,0,0-3.15.22c-2.51,2.86-4.69,5.44-6.58,7.77l-.39.36v.09c-2.68,3.29-5.31,6.66-7.83,10a2.22,2.22,0,0,0,.46,3.1A2.2,2.2,0,0,0,222.23,264.71Z"/><path class="cls-2" d="M216.14,273.12a2.28,2.28,0,0,0,1.85-1,2.23,2.23,0,0,0,.37-1.21,2.19,2.19,0,0,0-1-1.84,2.27,2.27,0,0,0-3.13.58,2.31,2.31,0,0,0-.36,1.21,2.2,2.2,0,0,0,.92,1.82A2.15,2.15,0,0,0,216.14,273.12Zm0-1.15Z"/><path class="cls-2" d="M288.61,199.71a2.16,2.16,0,0,0,1.29-.42c3.43-2.47,7-4.91,10.58-7.28,2.76-1.79,5.68-3.64,8.69-5.48a2.15,2.15,0,0,0,1-1.37,2.2,2.2,0,0,0-.28-1.7,2.25,2.25,0,0,0-3.05-.72c-3,1.81-5.93,3.67-8.82,5.55-3.68,2.42-7.29,4.91-10.71,7.37a2.24,2.24,0,0,0-.92,1.44,2.1,2.1,0,0,0,.34,1.6A2.18,2.18,0,0,0,288.61,199.71Z"/><path class="cls-2" d="M328.35,175.54a2.21,2.21,0,0,0,1-.24c4-2,7.87-3.9,11.57-5.57,3-1.37,6.17-2.74,9.44-4.11a2.32,2.32,0,0,0,1.16-1.17,2.19,2.19,0,0,0,0-1.74,2.26,2.26,0,0,0-1.24-1.19,2.15,2.15,0,0,0-1.67,0c-3.64,1.53-6.77,2.89-9.55,4.16-4.11,1.87-8.06,3.77-11.7,5.63a2.21,2.21,0,0,0-1,3A2.21,2.21,0,0,0,328.35,175.54Z"/><path class="cls-2" d="M317.23,179.17v0a2.24,2.24,0,0,0,2,1.19,2.27,2.27,0,0,0,1.08-.27,2.2,2.2,0,0,0,1.16-2,2.07,2.07,0,0,0-.28-1.06,2.28,2.28,0,0,0-.38-.5l.29-.31h-.67a2.44,2.44,0,0,0-.57-.26,2.21,2.21,0,0,0-1.69.17L314,178.58H317A2.27,2.27,0,0,0,317.23,179.17Z"/><path class="cls-2" d="M359.45,159.62a2.2,2.2,0,0,0,2.08,1.48,2.17,2.17,0,0,0,.53,0l.29-.08a2.23,2.23,0,0,0,1.42-2.08,1.93,1.93,0,0,0-.14-.75,2.13,2.13,0,0,0-.3-.58l.76-.61h-1.46l-.16-.08a2.19,2.19,0,0,0-1.72-.07l-6.41,2.45h5A2.93,2.93,0,0,0,359.45,159.62Z"/><path class="cls-2" d="M190.93,570.93c-1.53-3.32-3.11-7-5-11.51l-.09-.27c-1.24-3-2.48-6.27-3.7-9.53a2.25,2.25,0,0,0-2.86-1.32,2.26,2.26,0,0,0-1.24,1.15,2.15,2.15,0,0,0-.08,1.72c1.25,3.35,2.52,6.63,3.77,9.73,1.76,4.26,3.5,8.28,5.16,11.89a2.22,2.22,0,0,0,2,1.36,2,2,0,0,0,.92-.21,2.15,2.15,0,0,0,1.17-1.25,2.27,2.27,0,0,0-.09-1.76Z"/><path class="cls-2" d="M280.29,205.89a2.24,2.24,0,0,0,1.39-.49,2.32,2.32,0,0,0,.84-1.85,2.24,2.24,0,0,0-2-2.09,2.1,2.1,0,0,0-1.55.41,2.22,2.22,0,0,0-.94,1.92,2.5,2.5,0,0,0,.48,1.26A2.3,2.3,0,0,0,280.29,205.89Z"/><path class="cls-2" d="M252.94,229.67a2.4,2.4,0,0,0,1.57-.63c3-3,6.19-6,9.36-8.81,2.66-2.38,5.28-4.65,7.79-6.76a2.23,2.23,0,0,0,.23-3.16,2.28,2.28,0,0,0-3.12-.23c-2.34,2-4.91,4.2-7.87,6.84s-6.29,5.78-9.51,8.94a2.33,2.33,0,0,0-.68,1.57,2.25,2.25,0,0,0,2.23,2.24Z"/><path class="cls-2" d="M165.64,495a2.21,2.21,0,0,0,1.7-2.16l0-.34a2.24,2.24,0,0,0-2.54-1.86h0a2.24,2.24,0,0,0-1.88,2.19l0,.34a2.22,2.22,0,0,0,2.2,1.9l.43,0Z"/><path class="cls-2" d="M174.8,529.3a2.2,2.2,0,0,0,.2-1.68c-1.31-4.73-2.33-8.69-3.22-12.46h0c-.85-3.54-1.59-6.91-2.2-10a2.28,2.28,0,0,0-1-1.42,2.17,2.17,0,0,0-1.65-.33,2.24,2.24,0,0,0-1.42.94,2.19,2.19,0,0,0-.34,1.68c.65,3.2,1.39,6.6,2.22,10.11l.05.18c1,4.41,2.14,8.63,3.25,12.5a2.2,2.2,0,0,0,2.15,1.66,2.09,2.09,0,0,0,.59-.09A2.2,2.2,0,0,0,174.8,529.3Z"/><path class="cls-2" d="M166.12,391.86l.33,0a2.23,2.23,0,0,0,2.19-1.85c.77-4.13,1.64-8.36,2.59-12.57.86-3.73,1.68-7,2.48-10a2.22,2.22,0,0,0-1.56-2.7,2.29,2.29,0,0,0-1.7.21,2.25,2.25,0,0,0-1.06,1.37c-.81,3-1.64,6.37-2.45,9.9l-.07.32c-1,4.29-1.86,8.56-2.58,12.63a2,2,0,0,0,.31,1.68A2.14,2.14,0,0,0,166.12,391.86Z"/><path class="cls-2" d="M174.64,356.63a2,2,0,0,0,.49.06,2.23,2.23,0,0,0,2.15-1.61,2.38,2.38,0,0,0,.09-.62,2.24,2.24,0,0,0-1.55-2.11,2.19,2.19,0,0,0-1.72.15,2,2,0,0,0-1,1.15,1.88,1.88,0,0,0-.18.81A2.29,2.29,0,0,0,174.64,356.63Zm.49-1.09Z"/><path class="cls-2" d="M178,537.45a2.23,2.23,0,0,0-4.35.69,1.89,1.89,0,0,0,.1.67l.06.18a2.25,2.25,0,0,0,2.06,1.38,1.94,1.94,0,0,0,.69-.12,2.2,2.2,0,0,0,1.54-2.11A2.58,2.58,0,0,0,178,537.45Z"/><path class="cls-2" d="M163.88,484.75a2.26,2.26,0,0,0,2-2.19l0-.3c-.5-4.24-.94-8.55-1.28-12.78-.26-3.25-.47-6.61-.64-10.29a2.29,2.29,0,0,0-2.37-2.11h0a2.31,2.31,0,0,0-1.5.73,2.19,2.19,0,0,0-.57,1.6c.18,3.81.39,7.21.65,10.41.36,4.49.8,8.86,1.31,13a2.24,2.24,0,0,0,2.4,2Z"/><path class="cls-2" d="M161.51,438.21h0a2.23,2.23,0,0,0,2.23-2.16c.11-4,.33-8.28.65-12.83.27-3.81.57-7.16.92-10.29a2.24,2.24,0,0,0-3.65-1.92,2.17,2.17,0,0,0-.79,1.48c-.42,4.08-.72,7.38-.93,10.4-.3,4.19-.52,8.58-.64,13a2.24,2.24,0,0,0,.61,1.69A2.19,2.19,0,0,0,161.51,438.21Z"/><path class="cls-2" d="M191.43,313.07a2.27,2.27,0,0,0,1,.23,2.24,2.24,0,0,0,2-1.3,2.32,2.32,0,0,0,.21-.93,2.22,2.22,0,0,0-4.16-1.1l-.08.17a2,2,0,0,0-.21.93A2.24,2.24,0,0,0,191.43,313.07Z"/><path class="cls-2" d="M164.37,402.09h.37a2.21,2.21,0,0,0,2.18-1.8l.06-.43a2.22,2.22,0,0,0-4.41-.41l0,.43A2.24,2.24,0,0,0,164.37,402.09Z"/><path class="cls-2" d="M177.61,346.68a2,2,0,0,0,.51.12l.24-1.13h0l0,1.16a2.27,2.27,0,0,0,2.12-1.5h0c1.32-3.77,2.8-7.76,4.42-11.88l.13-.27c1.15-2.93,2.47-6.1,4-9.45a2.14,2.14,0,0,0,0-1.63,2.19,2.19,0,0,0-1.19-1.29A2.27,2.27,0,0,0,184.9,322c-1.6,3.71-2.86,6.72-3.94,9.45l-.12.3c-1.55,3.85-3.08,7.94-4.53,12.12a2.25,2.25,0,0,0,.06,1.69A2.22,2.22,0,0,0,177.61,346.68Z"/><path class="cls-2" d="M160.9,448.49l1.59.31-.23-1.61a13.46,13.46,0,0,1-.12-1.79l0-1.67-1.57.6a1.91,1.91,0,0,0-.77.51,2.42,2.42,0,0,0-.58,1.53A2.16,2.16,0,0,0,160.9,448.49Z"/><path class="cls-2" d="M748,331.41a2,2,0,0,0,.85-.17,2.3,2.3,0,0,0,1.39-2,1.84,1.84,0,0,0-.18-.86,2.17,2.17,0,0,0-1.19-1.21,2.28,2.28,0,0,0-1.72,0,2.34,2.34,0,0,0-1.39,2.06,2.75,2.75,0,0,0,.18.86A2.26,2.26,0,0,0,748,331.41Zm0-1.15Z"/><path class="cls-2" d="M749.66,339.6c1.48,4,2.9,8.12,4.22,12.15,1,3.14,2,6.45,3,9.8a2.21,2.21,0,0,0,2.13,1.66,2.23,2.23,0,0,0,2.14-2.85c-1-3.45-2-6.8-3-10l-.09-.26,0,0c-1.28-3.93-2.69-8-4.19-12a2.23,2.23,0,0,0-1.19-1.26,2.07,2.07,0,0,0-1.63-.07,2.15,2.15,0,0,0-1.3,1.19A2.1,2.1,0,0,0,749.66,339.6Z"/><path class="cls-2" d="M767.51,419.48v.21a2.24,2.24,0,0,0,2.38,2h0a2.23,2.23,0,0,0,2.05-2.3l0-.32a2.2,2.2,0,0,0-2.41-1.82A2.26,2.26,0,0,0,767.51,419.48Z"/><path class="cls-2" d="M762.74,382.37a2.28,2.28,0,0,0-.34,1.7c.88,4.25,1.66,8.51,2.32,12.64.5,3.12,1,6.46,1.46,10.2h0a2.23,2.23,0,0,0,2.21,1.92h.28a2.15,2.15,0,0,0,1.47-.85,2.23,2.23,0,0,0,.45-1.63c-.5-3.9-1-7.28-1.48-10.39-.67-4.15-1.46-8.45-2.34-12.82a2.24,2.24,0,0,0-4-.76Z"/><path class="cls-2" d="M736.28,309c1.6,3.15,3.1,6.26,4.49,9.28a2.22,2.22,0,0,0,2,1.26,2.08,2.08,0,0,0,.92-.21,2.22,2.22,0,0,0,1.12-2.95c-1.46-3.12-3-6.26-4.53-9.39-1.94-3.8-4-7.67-6.13-11.48a2.25,2.25,0,0,0-3-.87,2.29,2.29,0,0,0-1,1.24l-.78.07,1,1.71C732.59,301.88,734.56,305.59,736.28,309Z"/><path class="cls-2" d="M699.93,252a2.18,2.18,0,0,0,1.43-.5,2.21,2.21,0,0,0,.28-3.15,2.26,2.26,0,0,0-3.13-.29,2.09,2.09,0,0,0-.79,1.72,2.23,2.23,0,0,0,2.21,2.22Z"/><path class="cls-2" d="M682.73,234.06c2.48,2.56,4.85,5.08,7.08,7.53a2.33,2.33,0,0,0,1.62.68,2.21,2.21,0,0,0,1.48-.57,2.24,2.24,0,0,0,.16-3.16c-2.2-2.4-4.6-5-7.15-7.58-3.18-3.26-6.32-6.34-9.32-9.16a2.18,2.18,0,0,0-1.58-.59,2.14,2.14,0,0,0-1.52.66,2.06,2.06,0,0,0-.64,1.58,2.09,2.09,0,0,0,.71,1.59C676.7,228,679.78,231.05,682.73,234.06Z"/><path class="cls-2" d="M712.38,269.52h0c1.94,2.7,4,5.66,5.83,8.46a2.23,2.23,0,0,0,1.85,1,2.12,2.12,0,0,0,1.24-.37,2.23,2.23,0,0,0,.94-1.41,2.19,2.19,0,0,0-.32-1.67c-1.84-2.76-3.72-5.49-5.92-8.6-2.48-3.45-5.11-7-7.81-10.41a2.21,2.21,0,0,0-3.08-.44,2.29,2.29,0,0,0-.9,1.57,2.26,2.26,0,0,0,.48,1.58C707.49,262.8,710.08,266.27,712.38,269.52Z"/><path class="cls-2" d="M371.35,157.71a1.88,1.88,0,0,0,.68-.1c3.72-1.23,7.86-2.48,12.31-3.72,3.18-.91,6.53-1.79,10-2.62a2.26,2.26,0,0,0,1.4-1.05,2.24,2.24,0,0,0-2.46-3.28c-3,.73-6.39,1.62-10,2.62l-.25.07c-3.95,1.09-8.11,2.36-12.3,3.74a2.28,2.28,0,0,0-1.37,1.14,2.3,2.3,0,0,0-.1,1.71A2.24,2.24,0,0,0,371.35,157.71Z"/><path class="cls-2" d="M727,289.89a2.48,2.48,0,0,0,1.18-.31,2.26,2.26,0,0,0,1-1.9,2.54,2.54,0,0,0-.31-1.18,2.24,2.24,0,0,0-4.14,1.18,2,2,0,0,0,.31,1.12A2.16,2.16,0,0,0,727,289.89Z"/><path class="cls-2" d="M416.6,146.7l.37,0c4.71-.76,8.87-1.35,12.75-1.79,3-.39,6.37-.73,10.19-1.06a2.14,2.14,0,0,0,1.51-.77,2.22,2.22,0,0,0-1.87-3.67c-3.31.28-6.7.63-10.39,1.07-4.73.58-9,1.18-12.9,1.82a2.23,2.23,0,0,0,.34,4.44Z"/><path class="cls-2" d="M770.28,427.61a2.2,2.2,0,0,0-1.51.73,2.15,2.15,0,0,0-.56,1.64l.09,1.06h3.2l1.2-.11-.05-1.2a2.17,2.17,0,0,0-.72-1.51A2.29,2.29,0,0,0,770.28,427.61Z"/><path class="cls-2" d="M406.42,148.54l.42,0a2.21,2.21,0,0,0,1.79-2.17,1.71,1.71,0,0,0-.05-.46,2.22,2.22,0,0,0-4.4.43l0,.42A2.24,2.24,0,0,0,406.42,148.54Z"/><path class="cls-2" d="M399.11,740.19h0c-3.88-.88-8-1.9-12.48-3.1-3.17-.87-6.5-1.84-9.85-2.86a2.22,2.22,0,0,0-2.79,1.42,2.16,2.16,0,0,0,.14,1.74,2.28,2.28,0,0,0,1.3,1.08c3.35,1,6.73,2,10,2.92,4.14,1.11,8.39,2.17,12.63,3.14a2.3,2.3,0,0,0,2.71-1.7A2.28,2.28,0,0,0,399.11,740.19Z"/><path class="cls-2" d="M364.49,730.15a2.23,2.23,0,0,0-2.83,1.32,2,2,0,0,0-.13.79,2.15,2.15,0,0,0,1.44,2.06,2.07,2.07,0,0,0,.77.15,2.15,2.15,0,0,0,2.08-1.43,2,2,0,0,0,.16-.81A2.24,2.24,0,0,0,364.49,730.15Z"/><path class="cls-2" d="M454.89,140.66a2.2,2.2,0,0,0-2.23-2.12h-.29a2.23,2.23,0,0,0,.38,4.44h0A2.25,2.25,0,0,0,454.89,140.66Z"/><path class="cls-2" d="M456.59,748h-3.21l-.32.63a2.23,2.23,0,1,0,4.21,1,1.92,1.92,0,0,0-.34-1.12Z"/><path class="cls-2" d="M444.87,746.89h0c-4.23-.29-8.54-.68-12.81-1.15-3.16-.35-6.5-.79-10.24-1.33a2.29,2.29,0,0,0-2.51,2,2.41,2.41,0,0,0,.45,1.6,2.36,2.36,0,0,0,1.46.85c3.35.49,6.81.93,10.36,1.34,4.14.45,8.5.85,13.12,1.19a2.27,2.27,0,0,0,2.23-2.08,2.33,2.33,0,0,0-.55-1.64A2.26,2.26,0,0,0,444.87,746.89Z"/><path class="cls-2" d="M409.16,742.27h0a2.29,2.29,0,0,0-2.57,1.75l0,.47a2.21,2.21,0,0,0,1.82,2.17l.39,0A2.17,2.17,0,0,0,410.9,745a1.77,1.77,0,0,0,.08-.59A2.22,2.22,0,0,0,409.16,742.27Z"/><path class="cls-2" d="M196.09,303.78a2.14,2.14,0,0,0,1.07.28,2.22,2.22,0,0,0,2-1.18c2-3.8,4.13-7.55,6.26-11.15l.16-.28h0c1.74-2.91,3.51-5.79,5.23-8.53a2.28,2.28,0,0,0,.34-1.75,2.22,2.22,0,0,0-1-1.35,2.24,2.24,0,0,0-3.09.66c-2,3.09-3.8,6.09-5.46,8.91-2.19,3.74-4.35,7.57-6.39,11.39a2.18,2.18,0,0,0,.88,3Z"/><path class="cls-2" d="M476.07,142.19a7.51,7.51,0,0,1,.68.47l.31.22h.37c3.6.14,6.3.28,8.89.46a2.25,2.25,0,0,0,2.24-2.16,2.3,2.3,0,0,0-.53-1.48,2.14,2.14,0,0,0-1.56-.8c-3.21-.22-6.63-.38-10.44-.51l-9.89-.24,6.71,2.41A16.15,16.15,0,0,1,476.07,142.19Z"/><path class="cls-2" d="M265.39,671.44c-2.43-2.15-5-4.49-7.56-6.91a2.35,2.35,0,0,0-1.6-.66,2.16,2.16,0,0,0-1.55.66,2.07,2.07,0,0,0-.63,1.6,2.1,2.1,0,0,0,.68,1.57c3,2.83,5.44,5.08,7.7,7.08,3.47,3.07,6.81,5.91,9.91,8.41a2.16,2.16,0,0,0,1.43.54,2.2,2.2,0,0,0,1.71-.82,2.23,2.23,0,0,0-.29-3.13C271.73,676.94,268.44,674.14,265.39,671.44Z"/><path class="cls-2" d="M247.07,654.76h0a2.18,2.18,0,0,0-1.55.62,2.37,2.37,0,0,0-.6,1h-1.6l2.15,2.15A2.23,2.23,0,0,0,249.3,657a2.36,2.36,0,0,0-.64-1.57A2.22,2.22,0,0,0,247.07,654.76Z"/><path class="cls-2" d="M499,144.46h.21a2.22,2.22,0,0,0,2.23-2v-.23a2.26,2.26,0,0,0-2-2.23A2.31,2.31,0,0,0,497,142.2,2.18,2.18,0,0,0,499,144.46Z"/><path class="cls-2" d="M509.19,145.74h0c4.52.65,8.78,1.35,12.67,2.09,3.52.65,6.91,1.34,10.27,2.09l.31,0a2.23,2.23,0,0,0,1.89-3.4,2.27,2.27,0,0,0-1.42-1c-3.39-.74-6.81-1.43-10.21-2.08-4-.75-8.37-1.46-12.87-2.1a2.22,2.22,0,1,0-.65,4.4Z"/><path class="cls-2" d="M536.77,739.34h0c-4.07,1-8.3,1.9-12.56,2.73-3.21.62-6.61,1.22-10.12,1.79a2.21,2.21,0,0,0-1.46.89,2.17,2.17,0,0,0-.39,1.66,2.22,2.22,0,0,0,2.19,1.86h.26l.09,0c4.11-.67,7.38-1.25,10.06-1.8H525l.17-.05c4.1-.79,8.35-1.71,12.66-2.73a2.26,2.26,0,0,0,1.66-2.71A2.23,2.23,0,0,0,536.77,739.34Zm.26,1.12Z"/><path class="cls-2" d="M548.38,737a2.23,2.23,0,0,0-1.66-.19l-9,2.49h7.38a1,1,0,0,0,.06.25,2.22,2.22,0,0,0,2.14,1.64,2.61,2.61,0,0,0,.6-.09,2.2,2.2,0,0,0,1.62-2.17,2.25,2.25,0,0,0-.07-.6,2.16,2.16,0,0,0-.44-.8l.6-.53Z"/><path class="cls-2" d="M544.37,152.9a1.74,1.74,0,0,0,.66.11,2.22,2.22,0,0,0,2.16-1.66,2.3,2.3,0,0,0,0-.5,2.22,2.22,0,0,0-1.65-2.23,2.3,2.3,0,0,0-2.74,1.71l-.05.44A2.25,2.25,0,0,0,544.37,152.9Z"/><path class="cls-2" d="M503.71,747.13a2.17,2.17,0,0,0-.71-1,2.25,2.25,0,0,0-1.66-.49h0a2.17,2.17,0,0,0-1.95,2.22v.26a2.22,2.22,0,0,0,2.2,1.95h.26a2.24,2.24,0,0,0,2-2.22l0-.58Z"/><path class="cls-2" d="M491.13,746.61h0c-2.77.23-5.59.42-8.37.55l-1.1.06v.8h-9.09l-4,4,2.82,0c2.34,0,4.73-.09,7.11-.18,4.1-.15,8.49-.42,13-.79a2.3,2.3,0,0,0,1.56-.79,2.34,2.34,0,0,0,.5-1.6A2.16,2.16,0,0,0,491.13,746.61Z"/><path class="cls-2" d="M554.32,155.76h0c4.07,1.24,8.19,2.59,12.25,4s7,2.53,9.66,3.6a2.21,2.21,0,0,0,.82.15,2.31,2.31,0,0,0,2.09-1.44,2.22,2.22,0,0,0-1.28-2.86c-3-1.2-6.33-2.43-9.81-3.65-4.13-1.45-8.31-2.82-12.45-4.08a2.24,2.24,0,0,0-2.75,1.46,2.11,2.11,0,0,0,.15,1.72A2.28,2.28,0,0,0,554.32,155.76Z"/><path class="cls-2" d="M216.06,619.29l-.06,0a2.2,2.2,0,0,0-.89,1.82,2.2,2.2,0,0,0,2.21,2.21,2.15,2.15,0,0,0,1.28-.41,2.19,2.19,0,0,0,1-1.84,2.09,2.09,0,0,0-.41-1.26A2.26,2.26,0,0,0,216.06,619.29Zm.64,1Z"/><path class="cls-2" d="M667.42,218.65a2.26,2.26,0,0,0,1.72-.79,2.1,2.1,0,0,0,.49-1.44,2.19,2.19,0,0,0-.75-1.67,2.27,2.27,0,0,0-3.13.21,2.24,2.24,0,0,0,.2,3.16A2.26,2.26,0,0,0,667.42,218.65Zm0-1.15Z"/><path class="cls-2" d="M233.23,638.18h0c-2-2.41-4.12-5-6.44-8a2.25,2.25,0,0,0-3.11-.39,2.22,2.22,0,0,0-.86,1.48,2.25,2.25,0,0,0,.45,1.64c2,2.65,4.24,5.39,6.52,8.14,2.5,3,5.29,6.25,8.54,9.85a2.24,2.24,0,0,0,1.66.76,2.26,2.26,0,0,0,1.53-.62,2.13,2.13,0,0,0,.68-1.47,2.08,2.08,0,0,0-.57-1.63C238.62,644.57,235.8,641.3,233.23,638.18Z"/><path class="cls-2" d="M192.42,579.24h0a2.25,2.25,0,0,0-1.23,2.16,2.76,2.76,0,0,0,.24.86,2.23,2.23,0,0,0,3,1,2.22,2.22,0,0,0,1.24-2,2.08,2.08,0,0,0-.24-1A2.27,2.27,0,0,0,192.42,579.24Z"/><path class="cls-2" d="M206.51,600.49c-1.72-2.87-3.45-5.88-5.15-8.91a2.25,2.25,0,0,0-3-.85,2.21,2.21,0,0,0-.86,3c1.66,3,3.39,6,5.15,8.94l.12.19c2.1,3.51,4.41,7.18,6.89,10.94a2.22,2.22,0,0,0,1.84,1,2.08,2.08,0,0,0,1.19-.37,2.14,2.14,0,0,0,.93-1.22l.92-.07-1.18-1.79C211,607.86,208.73,604.2,206.51,600.49Z"/><path class="cls-2" d="M597.49,172.65h0c3.77,1.82,7.63,3.79,11.48,5.86,2.9,1.53,5.92,3.23,9,5a2.2,2.2,0,0,0,1.1.29,2.31,2.31,0,0,0,2-1.13,2.11,2.11,0,0,0,.2-1.64,2.16,2.16,0,0,0-1-1.39q-4.58-2.62-9.13-5.11c-3.87-2.06-7.78-4-11.64-5.92a2.25,2.25,0,0,0-1.71-.08,2.18,2.18,0,0,0-1.27,1.13A2.23,2.23,0,0,0,597.49,172.65Z"/><path class="cls-2" d="M588.18,168.33a2.14,2.14,0,0,0,.88.19,2.25,2.25,0,0,0,2-1.27,2,2,0,0,0,.22-.95,2.13,2.13,0,0,0-1.1-1.9l-.24-.14a2.26,2.26,0,0,0-1.75,0,2,2,0,0,0-1.09,1,1.8,1.8,0,0,0-.27,1A2.18,2.18,0,0,0,588.18,168.33Z"/><path class="cls-2" d="M637.55,195.94c3.75,2.59,7.26,5.13,10.45,7.55,2.52,1.88,5.18,3.95,8.09,6.29a2.19,2.19,0,0,0,3.12-.27,2.1,2.1,0,0,0,.51-1.65,2.17,2.17,0,0,0-.81-1.51q-3.67-3-8.06-6.27l-.18-.16c-3.86-2.91-7.32-5.4-10.55-7.6a2.19,2.19,0,0,0-1.67-.39,2.25,2.25,0,0,0-1.47.93,2.3,2.3,0,0,0-.35,1.66,2.23,2.23,0,0,0,.93,1.41Z"/><path class="cls-2" d="M582.55,725.17a2.28,2.28,0,0,0-1.74,0h0l-.11.06c-4.21,1.72-8.22,3.26-11.91,4.59-3.23,1.15-6.52,2.28-9.73,3.33a2.13,2.13,0,0,0-1.31,1.08,2.22,2.22,0,0,0,2,3.25,1.83,1.83,0,0,0,.68-.1c3.43-1.1,6.75-2.24,9.87-3.38,4.25-1.53,8.35-3.11,12.15-4.68a2.13,2.13,0,0,0,1.23-1.18,2,2,0,0,0,0-1.69A2.2,2.2,0,0,0,582.55,725.17Z"/><path class="cls-2" d="M630.19,190.59a2.14,2.14,0,0,0,1.06-.27l.54,0-.22-.24a2.31,2.31,0,0,0,.49-.54,2,2,0,0,0,.34-1.21,2.22,2.22,0,0,0-1-1.84l-.32-.21H631a2.22,2.22,0,0,0-2.7.89,2.56,2.56,0,0,0-.3.73h-2.92l3.86,2.3A2.14,2.14,0,0,0,630.19,190.59Z"/><path class="cls-2" d="M630.76,698.93l0,0a2.26,2.26,0,0,0-.62,3.1,2.24,2.24,0,0,0,1.85,1,2.34,2.34,0,0,0,1.34-.44,2.2,2.2,0,0,0,.9-1.77,2.39,2.39,0,0,0-.36-1.21A2.25,2.25,0,0,0,630.76,698.93Z"/><path class="cls-2" d="M745.7,566.54h0a2.28,2.28,0,0,0-2.93,1.11l-.11.27c-1.78,4-3.58,7.81-5.37,11.42-1.54,3.11-3.13,6.19-4.72,9.16a2.2,2.2,0,0,0-.18,1.73,2.14,2.14,0,0,0,1,1.22,2.07,2.07,0,0,0,1.15.34,2.25,2.25,0,0,0,2-1.19c1.57-2.91,3.19-6.05,4.81-9.27,2-4,3.83-8,5.57-11.87A2.27,2.27,0,0,0,745.7,566.54Z"/><path class="cls-2" d="M760.09,373.49a2,2,0,0,0,.09.57l.43.84a2.09,2.09,0,0,0,1.71.82,3.27,3.27,0,0,0,.53-.05,2.28,2.28,0,0,0,1.71-2.1v-.06a1.69,1.69,0,0,0,0-.38l0-.17a2.22,2.22,0,0,0-2.67-1.63A2.29,2.29,0,0,0,760.09,373.49Z"/><path class="cls-2" d="M749.63,557a2.24,2.24,0,0,0-2.87,1.19l-.17.89a2.27,2.27,0,0,0,1.46,2.07,2.59,2.59,0,0,0,.78.12,2.2,2.2,0,0,0,1.91-1.11l.11-.2A1.56,1.56,0,0,0,751,559,2.15,2.15,0,0,0,749.63,557Z"/><path class="cls-2" d="M760.93,522.42h0a2.26,2.26,0,0,0-2.7,1.56l0,.23c-1.25,4.53-2.42,8.5-3.57,12.14-1,3.07-2.07,6.36-3.29,9.8a2.23,2.23,0,0,0,.12,1.68,2.13,2.13,0,0,0,1.22,1.11,2.07,2.07,0,0,0,.77.15,2.19,2.19,0,0,0,2.1-1.48c1.34-3.82,2.4-7,3.33-9.92,1.27-4,2.51-8.27,3.65-12.53a2.16,2.16,0,0,0-.22-1.7A2.21,2.21,0,0,0,760.93,522.42Z"/><path class="cls-2" d="M769.21,476.56h0a2.2,2.2,0,0,0-2.45,2c-.44,4-1,8.32-1.68,12.74-.55,3.61-1.1,6.83-1.72,10.13a2.24,2.24,0,0,0,.36,1.71A2,2,0,0,0,765,504l.56.09a2.21,2.21,0,0,0,2.19-1.81c.58-3,1.16-6.41,1.76-10.3.66-4.28,1.24-8.63,1.71-13A2.25,2.25,0,0,0,769.21,476.56Z"/><path class="cls-2" d="M763.38,512.34h0A2.28,2.28,0,0,0,760.7,514a2.45,2.45,0,0,0-.05.55,2.18,2.18,0,0,0,1.69,2.13,2,2,0,0,0,.54.06,2.13,2.13,0,0,0,2.13-1.62l.08-.52A2.24,2.24,0,0,0,763.38,512.34Z"/><path class="cls-2" d="M313.4,706.34l-.2-.15c-3.73-2.18-7.42-4.45-11-6.74-2.9-1.88-5.78-3.81-8.56-5.76a2.24,2.24,0,0,0-2.53,3.69c3.11,2.14,5.93,4,8.47,5.64l.39.34h.11c3.55,2.29,7.2,4.54,10.85,6.69a2.23,2.23,0,0,0,1.1.29,2.18,2.18,0,0,0,1.9-1.06,2.22,2.22,0,0,0-.56-2.94Z"/><path class="cls-2" d="M322.17,711.27a2.24,2.24,0,0,0-3,.86,2.2,2.2,0,0,0-.29,1.09,2.32,2.32,0,0,0,1.25,2,2.67,2.67,0,0,0,1,.21,2.22,2.22,0,0,0,1.05-4.17Z"/><path class="cls-2" d="M768.57,445.64l4.35,7.47L773,449c0-1.27,0-2.55,0-3.82v-2.4c0-.5,0-1,0-1.48l-.18-3.92-4.24,7.33Z"/><path class="cls-2" d="M770.09,466.25a2.19,2.19,0,0,0-2.36,1.85l0,.27v.16a2.22,2.22,0,0,0,4.44,0,2.19,2.19,0,0,0-2-2.28Z"/><path class="cls-2" d="M692.85,645.36c-3.23,3.62-6.08,6.72-8.72,9.46-2.47,2.57-4.91,5-7.25,7.29a2.19,2.19,0,0,0-.09,3.12,2.13,2.13,0,0,0,1.62.71,2.37,2.37,0,0,0,1.57-.62c2.42-2.36,4.89-4.85,7.35-7.4,3.11-3.25,6.08-6.48,8.83-9.59a2.22,2.22,0,0,0,.57-1.65,2.11,2.11,0,0,0-.76-1.5A2.24,2.24,0,0,0,692.85,645.36Z"/><path class="cls-2" d="M659.68,677.58l0,0c-3.33,2.79-6.7,5.49-10,8-2.55,2-5.33,4-8.22,6.07a2.07,2.07,0,0,0-.95,1.48,2.14,2.14,0,0,0,.36,1.63,2.16,2.16,0,0,0,1.81,1,2.23,2.23,0,0,0,1.31-.42c2.77-2,5.59-4,8.38-6.18,3.4-2.6,6.84-5.34,10.18-8.12a2.21,2.21,0,0,0,.82-1.55,2.33,2.33,0,0,0-.53-1.62A2.25,2.25,0,0,0,659.68,677.58Z"/><path class="cls-2" d="M354.85,726.51h0c-4.27-1.69-8.26-3.38-11.87-5-3-1.32-6.14-2.78-9.31-4.32A2.22,2.22,0,0,0,332,717a2.19,2.19,0,0,0-1.28,1.12,2.14,2.14,0,0,0-.13,1.7,2.22,2.22,0,0,0,1.13,1.29c2.87,1.4,5.83,2.78,8.8,4.12l.69.32c4.16,1.85,8.22,3.55,12,5.06a2.21,2.21,0,0,0,.82.15,2.23,2.23,0,0,0,2-3.13A2.32,2.32,0,0,0,354.85,726.51Z"/><path class="cls-2" d="M283.26,686.13l-2-1.48v1.15a2.19,2.19,0,0,0-1.07.76,2.22,2.22,0,0,0,1.77,3.58,2.28,2.28,0,0,0,1.77-.88,2.28,2.28,0,0,0-.44-3.13Z"/><path class="cls-2" d="M669,670.33a2.12,2.12,0,0,0-1.56.55,2.17,2.17,0,0,0-.76,1.65,2.13,2.13,0,0,0,.57,1.49,2.19,2.19,0,0,0,3,.32l.19-.14a2.17,2.17,0,0,0,.73-1.64,2.24,2.24,0,0,0-.56-1.51A2.27,2.27,0,0,0,669,670.33Z"/><path class="cls-2" d="M623.74,704.16a2.29,2.29,0,0,0-1.72.24h0c-3.26,2-6.9,4.07-11.13,6.4-2.68,1.46-5.65,3-9.12,4.77a2.2,2.2,0,0,0-1.07,1.27,2.16,2.16,0,0,0,.11,1.68,2.23,2.23,0,0,0,2,1.24,1.81,1.81,0,0,0,1-.24c3.38-1.71,6.33-3.25,9-4.72l.28-.14c3.56-1.94,7.34-4.11,11.3-6.49a2.27,2.27,0,0,0,1-1.36,2.16,2.16,0,0,0-.24-1.64A2.2,2.2,0,0,0,623.74,704.16Z"/><path class="cls-2" d="M729.22,598.91a2.21,2.21,0,0,0-3.34,1.92,2.15,2.15,0,0,0,1.09,1.92,2.22,2.22,0,0,0,1.12.29,2.21,2.21,0,0,0,2.23-2.21A2.22,2.22,0,0,0,729.22,598.91Z"/><path class="cls-2" d="M723.83,607.79a2.23,2.23,0,0,0-3.07.66c-2.4,3.71-4.8,7.27-7.14,10.59l0,.08v0l-.12.22.08-.16-.11.15c-1.85,2.63-3.85,5.37-6,8.17a2.29,2.29,0,0,0-.39,1.65,2.31,2.31,0,0,0,.86,1.45,2.23,2.23,0,0,0,1.34.43,2.33,2.33,0,0,0,1.79-.87c2.19-2.9,4.26-5.74,6.15-8.44,2.43-3.46,4.88-7.11,7.27-10.83a2.14,2.14,0,0,0,.32-1.67A2.2,2.2,0,0,0,723.83,607.79Z"/><path class="cls-2" d="M590.24,721.06l0,0a2.3,2.3,0,0,0-1.3,2,2.09,2.09,0,0,0,.2.95,2.25,2.25,0,0,0,2,1.31,2.83,2.83,0,0,0,1-.21,2.14,2.14,0,0,0,1.24-1.81,1.91,1.91,0,0,0-.17-1.11A2.23,2.23,0,0,0,590.24,721.06Z"/><path class="cls-2" d="M701,636.76a2.17,2.17,0,0,0-1.49.8h0a2.24,2.24,0,0,0-.5,1.4,2.21,2.21,0,0,0,.78,1.7,2.24,2.24,0,0,0,1.46.52,2.3,2.3,0,0,0,1.73-.82,2.18,2.18,0,0,0,.48-1.4,2.22,2.22,0,0,0-.8-1.71A2.17,2.17,0,0,0,701,636.76Z"/><path class="cls-2" d="M180,456.64A11.47,11.47,0,1,1,182,433.86l1.51.26-.9,1.23a9.57,9.57,0,0,0,6.11,15.08l1.51.26-.91,1.24a11.56,11.56,0,0,1-9.27,4.71Zm0-21.05A9.57,9.57,0,1,0,183.62,454a9.36,9.36,0,0,0,3.18-2.11,11.49,11.49,0,0,1-6.62-16.33Z"/><path class="cls-2" d="M478.88,154.68a13.41,13.41,0,0,0-1.06-2.85,13.25,13.25,0,0,0-4.76-5.18,13.14,13.14,0,0,0-18.66,5.18,13.44,13.44,0,0,0-1.07,2.85,13.65,13.65,0,0,0-.37,3.12,13,13,0,0,0,1,5.12,13.14,13.14,0,0,0,25.25-5.12A13.65,13.65,0,0,0,478.88,154.68Zm-12.77,5a12.94,12.94,0,0,0,10.66-5.58,11,11,0,0,1,.62,3.7,11.29,11.29,0,1,1-21.95-3.7A13,13,0,0,0,466.11,159.68Z"/><path class="cls-2" d="M767.14,436.42H757l-3.74-6.48-3.74,6.48h-10.1l5,8.74-5,8.75h10.1l3.74,6.48,3.74-6.48h10.1l-5-8.75ZM756,453.91l-2.28,3.94v-3.94Zm-1.33-.89,3.27-2.47L756.53,453Zm-.05-15.72h1.89l1.42,2.47Zm-.9-.88v-3.94l2.28,3.94Zm7.33,8.74-1.4,2.42v-4.83Zm4-7-3.51,6.08L760,441.46Zm-.24-.9-5.34,3.4-2-3.4Zm-11.11,7.06v-6.62l4.8,3.57Zm5-2.16v5.93l-4.66-3Zm-.26,6.81-4.79,3.62V446Zm1,.62,5.34,3.39h-7.3Zm.44-.77,1.63-2.81,3.51,6.08Zm-8,4.16h-1.84l-1.35-2.34Zm1,.89v3.94l-2.28-3.94Zm0-7.94v6.65L748,449.05Zm-5.19,2.25v-6.11l4.81,3.05Zm-.89-5.22v4.32l-1.25-2.16Zm.31-2.3-5.34-3.4h7.3Zm-.44.76L745,444.28l-3.5-6.08ZM745,446.05l1.63,2.81-5.13,3.27Zm-3.27,7,5.34-3.39,2,3.39Zm11.11-15.28v6.62L748,441.29Zm-2.28-1.32,2.28-3.94v3.94Zm-1.91,3.31,1.4-2.43H752Z"/><text class="cls-3" transform="translate(464.4 165.5)">4</text></g></g></svg>